<svg width="656" height="421" viewBox="0 0 656 421" fill="none" xmlns="http://www.w3.org/2000/svg">
<path d="M418.471 153.888C411.979 156.482 405.08 158.1 398.036 158.681C398.712 166.342 398.622 174.043 397.768 181.688C397.675 182.101 397.428 182.47 397.069 182.73C396.71 182.99 396.264 183.124 395.809 183.109C395.354 183.093 394.919 182.93 394.582 182.647C394.244 182.363 394.026 181.979 393.965 181.561C393.289 176.333 394.869 170.67 393.73 158.939C385.275 159.15 381.313 156.725 373.884 155.791C355.411 153.457 337.655 147.627 321.723 138.665C321.25 138.329 320.938 137.835 320.856 137.288C320.775 136.741 320.929 136.187 321.286 135.745C337.632 117.274 350.202 96.2005 358.379 73.5579C359.344 70.999 362.544 67.5603 362.558 71.9657C362.598 83.2584 361.174 94.5444 361.174 105.854C361.174 126.379 361.763 148.335 383.373 153.493C396.626 156.648 408.96 152.647 417.163 150.62C419.111 150.122 420.557 152.955 418.471 153.888Z" fill="#3B89A0"/>
<path d="M387.187 109.972C385.293 113.367 391.749 112.965 395.621 113.136C396.11 113.174 396.568 113.37 396.915 113.691C397.262 114.012 397.475 114.436 397.516 114.888C397.557 115.341 397.424 115.792 397.14 116.162C396.856 116.532 396.439 116.796 395.964 116.909C393.404 117.228 390.802 117.092 388.297 116.508C383.822 115.648 380.405 114.123 382.842 109.483C384.417 106.352 386.207 103.316 388.199 100.395C388.444 100.041 388.819 99.7818 389.255 99.6652C389.691 99.5486 390.158 99.5827 390.569 99.7613C390.979 99.9399 391.306 100.251 391.487 100.636C391.669 101.021 391.692 101.453 391.554 101.853C390.323 104.658 388.863 107.372 387.187 109.972Z" fill="#3B89A0"/>
<path d="M411.715 96.896C411.758 99.0435 411.932 102.298 408.512 102.382C405.757 102.452 404.984 100.198 404.998 97.1837C405.013 91.7547 411.574 90.2428 411.715 96.896Z" fill="#3B89A0"/>
<path d="M379.465 96.7587C379.407 98.8125 378.464 100.749 375.901 100.652C373.761 100.572 372.991 97.896 373.052 96.1332C373.143 93.5308 374.028 92.2028 375.807 91.8416C378.536 91.2863 379.541 94.1831 379.465 96.7587Z" fill="#3B89A0"/>
<path d="M376.989 81.4387C375.557 81.2857 374.107 81.5058 372.803 82.0744C371.498 82.643 370.392 83.5373 369.607 84.6566C367.626 87.3661 365.508 85.1416 366.26 83.536C367.225 81.584 368.842 79.9698 370.872 78.9306C372.902 77.8914 375.238 77.482 377.539 77.7626C378.052 77.8435 378.512 78.1063 378.82 78.4954C379.128 78.8845 379.261 79.3693 379.189 79.8471C379.118 80.3249 378.848 80.7582 378.438 81.0553C378.027 81.3524 377.507 81.4899 376.989 81.4387Z" fill="#3B89A0"/>
<path d="M406.437 80.9772C405.985 80.9746 405.55 80.8234 405.208 80.5507C404.866 80.278 404.64 79.9017 404.57 79.4889C404.501 79.0761 404.592 78.6539 404.828 78.2978C405.064 77.9417 405.429 77.675 405.859 77.5453C408.618 76.9979 411.498 77.3927 413.967 78.6567C416.436 79.9208 418.327 81.9688 419.292 84.4226C419.888 86.3392 417.123 87.9114 416.075 85.7605C415.243 84.1061 413.855 82.7457 412.117 81.8833C410.379 81.0209 408.386 80.7029 406.437 80.9772Z" fill="#3B89A0"/>
<path d="M389.215 127.964C390.769 131.204 393.527 133.819 396.989 135.336C400.45 136.853 404.385 137.17 408.078 136.23C411.887 135.093 415.087 132.66 417.033 129.425C418.979 126.189 419.525 122.39 418.561 118.796C418.12 117.123 416.501 116.541 414.556 117.96C406.419 123.894 400.396 124.82 390.78 124.967C389.219 124.991 388.304 126.285 389.215 127.964Z" fill="#3B89A0"/>
<path d="M126.253 192.386C127.113 193.894 124.705 195.513 123.361 194.393C115.577 187.873 101.327 178.671 97.3073 169.974C91.8848 158.267 94.8455 143.606 84.1161 134.133C83.7294 133.826 83.4848 133.394 83.4331 132.926C83.3814 132.457 83.5266 131.988 83.8386 131.616C84.1506 131.244 84.6054 130.997 85.1087 130.927C85.612 130.857 86.1252 130.969 86.5418 131.239C98.399 138.956 96.1505 154.065 101.642 165.024C107.209 176.119 120.15 181.712 126.253 192.386Z" fill="#3B89A0"/>
<path d="M46.9504 175.299C35.8897 173.269 25.5442 168.737 16.8375 162.107C14.0431 159.829 17.3906 157.992 19.4294 159.267C28.0885 164.928 37.9986 168.738 48.4434 170.422C58.638 171.818 69.0166 171.571 79.1203 169.693C81.6111 169.385 81.5568 172.757 79.8433 173.707C72.0494 178.039 55.6987 177.082 46.9504 175.299Z" fill="#3B89A0"/>
<path d="M0.985866 170.085C-0.561354 168.516 2.04144 166.432 3.74049 167.569C15.3421 175.806 28.6628 181.729 42.862 184.963C53.9528 187.305 50.8765 192.108 40.9208 190.208C25.6666 187.519 11.7033 180.482 0.985866 170.085Z" fill="#3B89A0"/>
<path d="M44.0766 206.739C30.8999 206.033 12.6514 200.414 2.76076 192.392C2.41294 192.099 2.18988 191.7 2.13179 191.268C2.07371 190.836 2.18443 190.399 2.44399 190.035C2.70355 189.672 3.09486 189.407 3.54734 189.287C3.99982 189.167 4.4837 189.201 4.91168 189.382C19.9465 196.199 27.9645 199.661 44.7671 201.591C54.5203 202.715 54.2347 207.284 44.0766 206.739Z" fill="#3B89A0"/>
<path d="M102.314 222.347C104.964 224.019 101.952 228.137 99.2521 226.659C85.0017 218.895 68.774 223.648 53.2946 223.625C38.2013 223.861 23.4153 219.665 11.0606 211.639C9.27837 210.405 11.2413 207.937 13.1247 208.736C27.2705 215.346 42.9826 218.567 58.8219 218.102C73.4518 217.283 89.3072 214.152 102.314 222.347Z" fill="#3B89A0"/>
<path d="M650.739 420.13C506.048 421.759 94.0792 418.404 6.08286 417.454C0.414535 417.394 -4.08253 411.473 5.92018 411.433C119.07 410.894 482.236 411.022 650.529 412.457C657.155 412.497 657.173 420.056 650.739 420.13Z" fill="#D63037"/>
<path d="M371.932 178.113C340.12 182.796 279.186 214.269 246.003 254.874C277.454 250.468 370.215 249.716 396.872 252.609C386.842 241.308 375.736 230.863 363.686 221.4C368.313 216.493 372.666 212.676 376.472 209.318C368.856 204.97 356.333 198.032 350.806 195.644C357.067 189.041 364.16 183.156 371.932 178.113Z" fill="#D63037"/>
<path d="M441.488 210.827C445.566 214.588 449.045 218.868 451.819 223.538C440.667 229.452 419.039 240.527 405.985 253.362C418.449 254.874 426.59 260.47 430.928 277.446C432.794 284.728 435.368 296.412 437.92 309.528C461.537 304.752 485.545 301.814 509.692 300.747C505.455 290.708 499.791 281.236 492.85 272.582C491.36 270.759 494.122 268.444 495.767 270.214C504.151 279.118 510.638 289.41 514.887 300.546C525.703 299.955 536.552 300.097 547.346 300.971C549.804 301.229 549.833 304.63 547.288 304.574C510.835 303.475 474.377 306.653 438.787 314.033C442.42 333.207 445.84 354.632 446.914 369.634C502.946 369.129 593.849 394.748 607.937 363.844C639.489 294.632 543.662 185.395 475.48 175.831C481.235 183.202 485.265 191.603 487.312 200.497C479.843 202.896 451.284 209.188 441.488 210.827Z" fill="#D63037"/>
<path d="M399.543 230.462C388.083 203.999 388.394 189.914 385.126 176.942C385.051 176.494 384.793 176.09 384.405 175.814C384.018 175.537 383.53 175.409 383.043 175.456C382.556 175.503 382.107 175.721 381.789 176.065C381.471 176.41 381.308 176.854 381.334 177.306C381.219 192.964 389.84 219.045 396.843 234.041C397.064 234.404 397.375 234.714 397.751 234.945C398.126 235.175 398.555 235.321 399.002 235.37C399.45 235.419 399.904 235.37 400.327 235.226C400.75 235.082 401.13 234.848 401.437 234.543C424.114 205.404 435.444 194.878 461.446 176.189C461.851 175.924 462.129 175.524 462.221 175.074C462.314 174.623 462.215 174.157 461.944 173.773C461.673 173.389 461.252 173.117 460.769 173.014C460.285 172.912 459.778 172.986 459.353 173.222C435.222 188.124 414.826 207.643 399.543 230.462Z" fill="#D63037"/>
<path d="M215.175 257.894C192.87 245.31 155.061 214.352 139.56 194.767C123.982 209.47 110.124 225.653 98.2148 243.046C126.434 281.553 171.122 323.095 199.128 335.164C195.874 322.326 195.046 286.838 195.874 275.512C196.702 264.186 205.927 259.657 215.175 257.894Z" fill="#D63037"/>
<path d="M531.603 382.228C510.025 379.886 465.278 377.321 436.221 376.876C436.221 361.439 420.265 273.181 410.11 265.798C400.386 258.727 215.905 257.409 208.288 270.816C198.275 288.464 214.824 397.799 223.963 400.686C238.831 405.369 521.438 404.589 533.768 403.696C540.214 403.244 541.132 383.255 531.603 382.228ZM265.235 276.329C254.52 277.365 244.268 278.737 233.582 280.185C224.331 281.44 223.677 283.233 222.672 291.448C221.398 301.203 220.787 311.022 220.843 320.847C220.843 322.938 217.557 323.486 217.257 321.285C215.874 310.01 215.966 298.622 217.532 287.367C218.566 279.981 221.508 276.663 229.461 275.161C241.22 272.963 253.224 272.091 265.21 272.565C265.697 272.631 266.142 272.856 266.465 273.199C266.787 273.543 266.967 273.982 266.97 274.437C266.973 274.892 266.799 275.333 266.481 275.68C266.163 276.027 265.721 276.257 265.235 276.329ZM312.469 351.019C304.823 352.357 296.541 348.53 293.559 337.739C290.967 328.373 295.728 321.305 304.136 319.315C324.272 314.552 331.628 347.631 312.469 351.019Z" fill="#3B89A0"/>
<path d="M521.488 127.7C487.109 96.1802 507.603 51.9893 485.616 30.6048C481.458 26.4574 475.843 23.8109 469.773 23.137C463.702 22.4632 457.571 23.8056 452.47 26.9253C435.534 1.4397 400.989 -4.72848 371.577 3.7511C339.523 12.9933 328.038 49.203 353.77 60.8569C367.254 66.9649 414.592 67.4834 429.392 64.8308C430.577 76.1702 435.16 86.978 442.627 96.0363C443.393 96.8893 444.463 98.0701 445.735 97.0398C447.111 95.8924 448.73 95.022 450.488 94.4836C452.247 93.9453 454.107 93.7508 455.951 93.9124C457.795 94.0741 459.583 94.5883 461.201 95.4226C462.819 96.2569 464.232 97.3931 465.35 98.7591C466.379 100.166 467.097 101.747 467.464 103.411C467.83 105.075 467.838 106.79 467.486 108.456C467.135 110.123 466.43 111.71 465.414 113.124C464.398 114.538 463.09 115.753 461.566 116.698C457.144 119.404 453.992 119.01 449.04 118.779C447.489 118.709 447.2 119.91 447.095 121.007C445.566 136.942 443.87 155.126 446.498 170.974C446.566 171.414 446.816 171.812 447.196 172.084C447.576 172.356 448.056 172.48 448.533 172.429C449.01 172.378 449.447 172.158 449.751 171.813C450.055 171.469 450.202 171.029 450.16 170.586C450.196 166.291 450.023 161.996 449.871 157.698C474.073 160.203 504.718 147.104 521.56 132.129C524.228 129.784 522.319 128.463 521.488 127.7ZM391.276 18.6665C385.375 18.5683 379.536 19.7953 374.26 22.2423C368.4 24.8447 358.451 31.3139 359.12 38.0976C359.319 40.1313 356.159 41.3757 355.339 39.2784C351.38 29.1698 362.399 21.2722 369.745 17.5626C376.288 14.2587 383.619 12.5169 391.073 12.4949C400.609 12.505 396.673 18.8772 391.276 18.6665Z" fill="#3B89A0"/>
</svg>
