<svg width="1121" height="215" viewBox="0 0 1121 215" fill="none" xmlns="http://www.w3.org/2000/svg">
<path fill-rule="evenodd" clip-rule="evenodd" d="M0.185042 26.4027C11.693 3.2236 37.0684 -0.756086 48.2738 0.106757C49.3061 0.186243 50.0762 1.05963 49.994 2.05751C49.9118 3.0554 49.0083 3.79991 47.976 3.72042C37.5409 2.91689 14.1197 6.71364 3.56579 27.9713C3.11772 28.8738 1.99769 29.2543 1.06412 28.8211C0.130556 28.388 -0.263022 27.3052 0.185042 26.4027Z" fill="#D63037"/>
<path fill-rule="evenodd" clip-rule="evenodd" d="M8.77538 39.9695C13.1808 20.436 31.096 13.1611 39.4505 11.9307C40.458 11.7824 41.395 12.4788 41.5434 13.4863C41.6918 14.4938 40.9953 15.4308 39.9878 15.5791C32.3848 16.6989 16.3012 23.3624 12.3728 40.7808C12.1487 41.7742 11.1618 42.3979 10.1684 42.1739C9.17502 41.9498 8.55134 40.9629 8.77538 39.9695Z" fill="#D63037"/>
<path fill-rule="evenodd" clip-rule="evenodd" d="M25.6748 51.5384C23.9405 35.9432 35.3437 25.9947 41.2013 22.9542C42.1051 22.485 43.2182 22.8374 43.6873 23.7412C44.1565 24.645 43.8041 25.7581 42.9003 26.2272C37.7169 28.9178 27.8453 37.6905 29.34 51.1308C29.4525 52.1429 28.7233 53.0546 27.7112 53.1672C26.6991 53.2797 25.7874 52.5505 25.6748 51.5384Z" fill="#D63037"/>
<path fill-rule="evenodd" clip-rule="evenodd" d="M1097.36 199.709C1071.73 203.31 1054.11 184.62 1048.49 174.887C1047.97 173.99 1048.26 172.862 1049.13 172.366C1050 171.87 1051.12 172.195 1051.64 173.091C1056.87 182.155 1073.24 199.335 1096.74 196.034C1097.74 195.894 1098.69 196.603 1098.86 197.618C1099.03 198.633 1098.35 199.569 1097.36 199.709Z" fill="#D63037"/>
<path fill-rule="evenodd" clip-rule="evenodd" d="M1103.7 184.957C1085.09 192.357 1068.97 181.685 1063.23 175.487C1062.54 174.74 1062.59 173.573 1063.33 172.881C1064.08 172.19 1065.25 172.235 1065.94 172.983C1071.16 178.623 1085.74 188.129 1102.33 181.53C1103.28 181.154 1104.35 181.616 1104.73 182.562C1105.11 183.508 1104.64 184.58 1103.7 184.957Z" fill="#D63037"/>
<path fill-rule="evenodd" clip-rule="evenodd" d="M1103.7 164.477C1091.81 174.718 1077.16 170.93 1071.34 167.815C1070.44 167.334 1070.1 166.217 1070.58 165.319C1071.06 164.421 1072.18 164.083 1073.08 164.564C1078.23 167.321 1091.04 170.509 1101.29 161.683C1102.06 161.018 1103.22 161.105 1103.89 161.876C1104.55 162.648 1104.47 163.812 1103.7 164.477Z" fill="#D63037"/>
</svg>
