<svg width="11" height="18" viewBox="0 0 11 18" fill="none" xmlns="http://www.w3.org/2000/svg">
<path fill-rule="evenodd" clip-rule="evenodd" d="M2.48767 1.83849C2.54877 1.5898 2.60659 1.35447 2.65756 1.13419C2.74662 0.749218 2.50587 0.364105 2.11983 0.274016C1.73378 0.183927 1.34863 0.422979 1.25957 0.807951C1.21385 1.00556 1.15939 1.22502 1.10011 1.46386C0.669741 3.19807 -0.0140467 5.95343 0.557282 8.77663C1.22739 12.0879 3.57724 15.3703 9.48633 17.4767C9.8598 17.6098 10.2697 17.4159 10.402 17.0436C10.5342 16.6714 10.3387 16.2616 9.96519 16.1285C4.4448 14.1607 2.51681 11.2313 1.96357 8.49743C1.46135 6.01574 2.05625 3.59445 2.48767 1.83849Z" fill="#D63037"/>
</svg>
