<svg width="208" height="243" viewBox="0 0 208 243" fill="none" xmlns="http://www.w3.org/2000/svg">
<path fill-rule="evenodd" clip-rule="evenodd" d="M100.629 235.005C100.039 234.226 100.049 233.142 100.652 232.584C105.341 228.249 110.154 224.249 114.873 220.326C118.257 217.514 121.592 214.742 124.798 211.916C132.559 205.074 139.826 197.706 146.048 188.074C157.185 170.831 164.665 150.32 164.664 127.341C164.664 115.488 161.965 101.83 156.464 89.9478C150.97 78.0789 142.746 68.1088 131.708 63.3121C126.11 60.8791 120.019 59.7298 113.906 59.7419C118.188 64.9284 121.971 70.8545 125.092 77.6314C132.484 93.6848 126.449 107.532 116.137 114.962C105.866 122.364 90.7695 123.873 79.0858 114.748C72.8014 109.839 69.2402 103.469 68.2511 96.7739C67.2696 90.1295 68.8473 83.3649 72.4778 77.5503C78.3207 68.1921 88.037 61.5596 98.8588 58.3899C101.538 57.6051 104.295 57.0298 107.088 56.6786C94.3315 43.8661 77.9487 36.4764 61.4561 32.0866C60.6149 31.8627 59.9896 30.9261 60.0595 29.9945C60.1294 29.063 60.8679 28.4893 61.7091 28.7132C79.2892 33.3925 97.2434 41.5576 110.93 56.3392C118.206 55.9683 125.598 57.1359 132.403 60.0928C144.489 65.3455 153.334 76.2106 159.126 88.7226C164.913 101.222 167.72 115.49 167.721 127.869C167.722 151.692 159.97 172.799 148.609 190.389C142.2 200.312 134.739 207.859 126.892 214.776C123.55 217.722 120.183 220.519 116.799 223.329C112.154 227.187 107.478 231.071 102.79 235.405C102.187 235.963 101.219 235.784 100.629 235.005ZM110.112 59.8977C106.701 60.1703 103.313 60.798 100.031 61.7594C89.6628 64.7963 80.5006 71.1182 75.0615 79.8294C71.7387 85.1513 70.4365 91.1153 71.2645 96.7203C72.085 102.274 75.0226 107.674 80.5424 111.985C90.8025 119.998 104.571 118.913 114.233 111.951C123.854 105.018 128.82 92.7327 122.426 78.8486C119.071 71.5619 114.895 65.2943 110.112 59.8977Z" fill="#D63037"/>
<path fill-rule="evenodd" clip-rule="evenodd" d="M108.431 233.432C108.754 234.361 108.385 235.298 107.606 235.525C107.525 235.549 107.409 235.583 107.261 235.627C106.138 235.96 103.218 236.825 100.413 237.506C98.8346 237.889 97.243 238.226 96.0086 238.371C95.4074 238.442 94.8001 238.479 94.291 238.42C94.0511 238.392 93.6947 238.328 93.3339 238.136C92.9448 237.929 92.3004 237.412 92.129 236.465C91.8851 235.116 92.2522 233.857 92.6528 232.888C93.0705 231.877 93.662 230.871 94.1751 230.005L94.217 229.934C94.7422 229.048 95.1683 228.328 95.4227 227.716C95.5238 227.473 95.5719 227.305 95.5926 227.202C95.2901 226.394 95.5147 225.522 96.1532 225.166C96.8596 224.773 97.8052 225.16 98.2652 226.032C98.6559 226.772 98.6957 227.506 98.6346 228.065C98.5746 228.614 98.4046 229.126 98.2222 229.565C97.8842 230.378 97.3611 231.26 96.886 232.061C96.8539 232.115 96.8219 232.169 96.7902 232.222C96.2597 233.118 95.7779 233.948 95.4549 234.73C95.4294 234.792 95.4057 234.851 95.3835 234.909C96.4473 234.773 97.8601 234.476 99.352 234.114C102.089 233.45 104.941 232.605 106.077 232.268C106.229 232.224 106.35 232.188 106.436 232.162C107.215 231.935 108.108 232.503 108.431 233.432ZM94.0892 234.968C94.0893 234.968 94.093 234.969 94.0998 234.97C94.0925 234.969 94.0891 234.968 94.0892 234.968Z" fill="#D63037"/>
</svg>
