<svg width="807" height="700" viewBox="0 0 807 700" fill="none" xmlns="http://www.w3.org/2000/svg">
<path d="M199.112 275.643C177.276 294.039 177.967 249.144 188.194 253.075C190.516 253.985 198.997 263.085 200.674 257.252C201.404 254.727 195.215 226.312 192.876 220.47C209.66 206.635 222.163 187.697 228.75 166.129C228.75 163.622 222.514 166.966 222.514 166.966C223.788 163.514 224.321 159.799 224.072 156.097C223.936 155.902 223.759 155.745 223.556 155.637C223.353 155.528 223.13 155.472 222.903 155.472C222.676 155.472 222.452 155.528 222.25 155.637C222.047 155.745 221.87 155.902 221.733 156.097C217.832 164.459 208.476 166.107 200.674 166.966C191.335 166.966 158.555 161.962 146.856 167.804C141.397 170.311 135.157 178.669 137.517 193.739C137.517 195.413 139.856 205.446 141.414 206.279C147.45 206.254 153.38 207.984 158.572 211.284C159.353 212.116 158.572 212.953 157.795 212.953C154.675 212.953 152.332 212.116 149.993 212.116C139.075 211.283 123.474 211.284 121.916 226.33C120.354 238.033 124.255 249.74 128.157 259.773C132.826 272.308 158.572 313.276 161.692 314.946C162.785 314.97 163.874 314.807 164.918 314.464C165.729 323.264 167.219 332.027 168.713 340.026C169.49 345.031 174.172 345.877 173.383 340.026C171.163 331.299 169.643 322.572 167.495 313.845C178.604 311.06 202.143 303.935 206.923 300.736C208.476 299.89 201.438 273.136 199.112 275.643ZM207.695 179.506C208.098 179.541 208.476 179.728 208.761 180.034C209.047 180.34 209.221 180.745 209.253 181.176C209.253 186.331 194.251 189.366 193.653 189.539C192.876 189.539 192.095 187.865 192.876 187.865C193.742 186.932 205.556 178.742 207.695 179.506ZM167.903 283.169C167.905 283.28 167.886 283.39 167.848 283.492C167.809 283.595 167.752 283.688 167.679 283.766C167.606 283.845 167.519 283.906 167.423 283.947C167.327 283.989 167.225 284.009 167.121 284.006C164.782 284.843 162.452 282.332 161.662 280.662C159.992 278.527 158.433 276.294 156.993 273.973C157.344 280.651 158.931 287.188 161.662 293.202C161.879 293.759 161.92 294.377 161.78 294.962C161.641 295.547 161.327 296.067 160.887 296.445C160.448 296.822 159.905 297.036 159.342 297.054C158.779 297.073 158.226 296.894 157.765 296.546C152.465 290.579 147.998 283.82 144.504 276.48C140.76 268.868 136.706 261.434 137.487 252.238C137.487 251.401 139.045 250.564 139.045 252.238C140.869 260.043 144.036 267.414 148.384 273.973C149.937 277.223 151.783 280.303 153.894 283.169C152.448 277.732 152.181 272.012 153.113 266.448C153.132 265.956 153.304 265.485 153.602 265.111C153.901 264.737 154.308 264.482 154.758 264.386C155.208 264.29 155.675 264.359 156.085 264.581C156.494 264.804 156.821 265.169 157.014 265.615C160.546 273.227 168.934 278.801 167.903 283.169ZM151.538 177.832C150.732 178.241 150.061 177.709 150.757 176.999C153.651 174.427 157.039 172.569 160.678 171.558C164.318 170.547 168.121 170.407 171.816 171.148C178.01 172.18 184.265 172.738 190.533 172.818C190.957 172.818 202.062 171.33 197.554 176.162C192.265 180.412 180.417 178.342 174.155 176.999C166.727 174.678 158.8 174.97 151.538 177.832Z" fill="#3B89A0"/>
<path d="M240.454 257.252C242.435 255.549 244.026 253.384 245.107 250.921C246.188 248.459 246.729 245.764 246.69 243.042C246.69 231.804 238.2 224.783 231.094 215.451C227.239 210.396 222.514 206.256 217.832 201.242C217.051 200.404 215.493 201.242 216.274 202.911C219.394 207.093 222.514 212.112 225.613 216.288C234.791 228.573 240.046 234.488 241.209 241.368C241.257 245.775 240.178 250.111 238.089 253.908C237.895 252.651 237.352 251.485 236.531 250.564C235.75 249.731 234.71 249.79 234.969 251.401C237.011 264 239.639 278.155 235.75 291.527C234.614 296.173 232.476 300.468 229.51 304.067C226.39 308.249 221.712 309.923 217.811 313.267C217.03 314.1 217.03 315.774 218.592 315.774C224.051 316.607 228.729 312.43 232.63 309.086C236.49 304.804 239.426 299.666 241.231 294.034C244.493 281.978 244.222 269.138 240.454 257.252Z" fill="#3B89A0"/>
<path d="M369.926 344.198C382.988 340.194 391.041 334.552 416.723 320.789C426.529 317.285 431.194 315.206 435.439 305.742C471.42 225.484 475.954 172.964 479.91 160.265C480.81 155.314 481.328 150.292 481.459 145.25C481.459 142.738 478.339 142.738 477.558 144.412C475.554 153.234 473.996 162.165 472.889 171.166C465.525 210.138 454.551 248.226 440.13 284.862C436.31 294.098 433.89 307.43 425.311 312.448C416.744 317.503 407.886 321.971 398.792 325.825C389.347 330.653 380.072 336.691 369.926 341.709C367.583 342.524 368.364 344.198 369.926 344.198Z" fill="#3B89A0"/>
<path d="M476 131.854C471.331 127.673 466.593 124.397 461.181 120.152C458.058 118.345 455.383 115.765 453.379 112.626C452.417 110.697 451.914 108.543 451.914 106.356C451.914 104.169 452.417 102.015 453.379 100.086C454.869 95.4812 456.695 91.0085 458.838 86.7092C460.4 82.5323 462.739 78.3509 464.301 74.1694C465.078 72.4996 462.739 70.8252 461.181 72.4996C458.389 76.3694 456.032 80.5783 454.16 85.0394C451.04 92.5605 446.196 101.779 447.138 110.119C447.707 112.937 448.836 115.59 450.448 117.899C452.059 120.207 454.116 122.116 456.477 123.496C461.996 127.591 468.177 131.854 473.636 135.199C476 135.199 477.558 133.524 476 131.854Z" fill="#3B89A0"/>
<path d="M468.979 90.0533C471.547 74.9154 472.18 57.7756 473.649 48.2524C474.43 43.2474 474.43 38.2424 475.211 33.2056C475.992 29.8613 476.769 34.0428 477.55 34.88C478.331 38.2242 479.863 41.573 480.67 45.7454C482.937 57.4662 483.79 69.9923 485.339 81.6904C485.39 82.2073 485.617 82.6858 485.977 83.0337C486.337 83.3816 486.805 83.5741 487.29 83.5741C487.775 83.5741 488.242 83.3816 488.603 83.0337C488.963 82.6858 489.19 82.2073 489.24 81.6904C489.789 64.3077 487.14 46.9793 481.442 30.694C481.183 29.3271 480.505 28.0923 479.516 27.1856C478.527 26.2789 477.283 25.7521 475.983 25.689C470.524 25.689 471.314 35.699 470.524 39.0614C468.945 55.4488 468.163 71.9133 468.181 88.388C466.64 90.8905 468.198 90.8905 468.979 90.0533Z" fill="#3B89A0"/>
<path d="M510.317 64.1365C513.373 67.0015 515.549 70.791 516.557 75.0065C517.338 79.1445 517.338 83.4083 516.557 87.5463C516.167 88.1635 515.959 88.8917 515.959 89.637C515.959 90.3823 516.167 91.1105 516.557 91.7277C517.338 92.5604 518.115 91.7277 518.896 90.8905C521.952 87.6145 521.528 78.7739 520.458 74.1693C519.818 71.4867 518.652 68.9811 517.038 66.819C515.424 64.6569 513.399 62.8878 511.098 61.6295C509.986 61.2063 509.536 63.3039 510.317 64.1365Z" fill="#3B89A0"/>
<path d="M528.256 127.673C530.847 121.837 532.684 115.649 533.715 109.282C535.133 98.3934 535.278 84.202 528.256 75.0064C527.475 73.332 525.136 75.0064 525.917 76.6763C529.807 86.7353 530.626 97.8559 528.256 108.444C526.694 118.454 521.04 126.744 517.338 136.036C515.687 140.176 521.265 186.19 522.797 209.6C524.385 233.842 524.355 258.089 524.355 282.332C524.355 305.741 522.823 329.151 521.235 353.394C520.613 365.001 518.782 376.498 515.776 387.669C513.14 395.997 508.579 403.475 502.519 409.404C494.857 417.819 486.203 425.125 476.777 431.14C471.335 434.511 466.64 437.828 461.181 441.15C455.696 444.28 450.476 447.917 445.581 452.019C444.018 452.852 445.581 455.364 447.139 454.527C457.643 450.694 467.614 445.351 476.777 438.642C485.339 432.984 493.434 426.551 500.974 419.414C507.421 413.41 512.949 406.358 517.355 398.516C521.848 388.567 524.496 377.778 525.153 366.748C533.681 300.463 530.107 206.288 520.484 140.19C524.355 138.543 527.475 130.18 528.256 127.673Z" fill="#3B89A0"/>
<path d="M18.1643 584.966C17.0606 602.711 8.05276 647.033 4.12613 664.382C0.619761 679.874 0.224976 678.964 0.224976 682.777C0.224976 684.447 1.78289 685.284 3.34505 683.61C6.19339 679.096 8.05903 673.954 8.80412 668.563C11.0752 657.479 21.2844 602.443 21.2844 584.966C20.5033 582.454 18.1643 582.454 18.1643 584.966Z" fill="#3B89A0"/>
<path d="M490.82 58.2854C492.378 60.7924 494.717 62.4668 495.489 64.9739C497.715 70.2164 498.783 75.9384 498.609 81.6951C498.609 87.5055 504.709 82.1501 502.51 71.6851C501.727 67.4798 500.136 63.4948 497.841 59.9825C496.112 57.8632 493.985 56.1579 491.601 54.9775C490.82 55.7783 490.039 57.4345 490.82 58.2854Z" fill="#3B89A0"/>
<path d="M286.47 533.132C284.907 533.97 284.118 531.44 285.689 530.625C297.316 524.601 442.461 467.926 444.027 467.089C437.791 449.531 390.99 319.118 389.432 312.43C389.292 312.034 389.077 311.673 388.8 311.371C388.524 311.069 388.191 310.832 387.825 310.674C387.458 310.517 387.065 310.443 386.67 310.457C386.275 310.471 385.887 310.573 385.531 310.756C368.373 323.295 264.638 362.589 262.299 363.426C236.553 334.165 158.564 329.979 125.796 345.868C125.294 346.029 124.853 346.359 124.54 346.81C124.226 347.261 124.057 347.808 124.057 348.37C124.057 348.933 124.226 349.48 124.54 349.931C124.853 350.382 125.294 350.712 125.796 350.873C133.539 353.439 138.786 364.791 139.839 365.92C111.758 375.93 85.7703 392.469 68.0983 417.749C45.3367 450.29 43.0528 471.321 7.26324 594.98C7.21081 595.435 7.25331 595.896 7.38767 596.33C7.52203 596.764 7.74488 597.161 8.04008 597.492C25.2026 600.836 43.1377 601.669 60.3003 605.013C58.9419 564.313 59.6211 518.231 69.6393 478.778C73.6928 460.683 79.9889 443.252 88.3597 426.949C89.1408 426.112 90.6987 426.949 89.9219 427.782C85.3885 437.618 81.9833 448.007 79.7806 458.722C61.0813 518.845 67.6272 604.294 68.8624 667.717C69.0407 676.912 69.6393 686.112 70.4204 695.308C79.0024 698.175 87.9502 699.584 96.9389 699.485C104.741 699.485 155.418 695.909 173.374 694.48C210.781 691.486 321.567 686.122 340.288 687.791C340.895 687.75 341.468 687.472 341.898 687.011C342.329 686.549 342.588 685.936 342.627 685.284C343.017 663.535 351.206 524.774 351.206 515.569C329.301 519.945 307.679 525.812 286.47 533.132ZM230.304 450.368C233.228 467.778 239.043 484.485 247.471 499.694C247.776 499.978 248.006 500.343 248.137 500.753C248.268 501.162 248.295 501.602 248.216 502.027C248.137 502.452 247.953 502.846 247.685 503.17C247.417 503.494 247.074 503.736 246.69 503.871C245.132 503.871 243.57 500.527 242.793 499.694C239.673 494.689 236.553 488.824 233.433 482.973C228.737 470.947 225.595 458.291 224.094 445.354C221.224 420.825 229.188 396.45 238.132 385.162C238.845 384.252 249.054 374.292 248.273 377.636C247.492 380.143 244.3 382.577 242.814 384.325C239.05 389.308 236.145 394.97 234.235 401.046C228.912 416.833 227.557 433.842 230.304 450.368ZM206.108 362.589C211.13 363.056 215.832 365.428 219.369 369.278C219.516 369.485 219.613 369.728 219.652 369.985C219.692 370.242 219.672 370.505 219.595 370.752C219.518 370.999 219.386 371.222 219.211 371.402C219.035 371.582 218.821 371.713 218.588 371.785C206.74 371.785 208.039 365.096 158.53 365.096C156.972 365.096 157.753 363.426 158.53 363.426C169.405 362.53 194.952 360.592 206.133 362.589H206.108Z" fill="#D63037"/>
<path d="M544.634 1.43756C527.267 1.43756 431.916 -0.31874 416.723 1.43756C408.157 2.42946 398.784 3.94461 392.527 11.4476C389.072 15.341 386.883 20.3267 386.287 25.6618C385.472 36.5111 385.472 47.4132 386.287 58.2625C387.008 67.4672 386.966 76.7628 394.085 84.1975C407.936 98.621 431.513 91.3046 448.684 91.7232C448.995 91.7232 449.293 91.5909 449.512 91.3554C449.732 91.1199 449.855 90.8005 449.855 90.4674C449.855 90.1344 449.732 89.8149 449.512 89.5794C449.293 89.3439 448.995 89.2116 448.684 89.2116C441.663 89.2116 433.865 88.379 426.843 88.379C413.081 88.379 400.151 88.0013 394.085 75.002C390.188 66.6436 390.965 55.7737 390.965 46.5781C390.965 38.2198 390.188 26.5126 394.085 18.9915C397.982 11.4703 406.582 8.29896 414.367 7.28431C424.985 6.03853 435.664 5.48091 446.345 5.61447C564.598 5.61447 571.963 5.24592 575.036 5.61447C578.951 6.34886 582.69 7.90957 586.037 10.206C589.384 12.5024 592.272 15.4887 594.534 18.9915C599.084 27.3061 600.738 37.08 599.203 46.5781C599.012 47.8157 598.125 67.1168 593.744 75.002C586.973 87.1823 561.55 87.5691 555.539 88.379H541.496C540.72 88.379 537.6 88.379 538.376 90.0488H539.158C550.832 91.1977 562.581 91.1977 574.255 90.0488C582.058 89.2116 589.856 87.5418 594.534 80.8533C599.203 75.002 599.886 67.4626 600.774 59.9551C601.638 54.1433 602.16 48.2789 602.336 42.3967C602.726 37.1103 602.726 31.799 602.336 26.5126C601.322 21.911 599.407 17.5932 596.718 13.8457C594.028 10.0983 590.625 7.00708 586.735 4.77727C583.008 2.77527 570.668 1.43756 544.634 1.43756Z" fill="#3B89A0"/>
<path d="M677.226 265.615C694.338 267.355 711.552 267.633 728.705 266.448C735.078 266.486 741.409 265.355 747.426 263.103C750.578 261.716 753.442 259.671 755.852 257.088C758.262 254.506 760.169 251.436 761.464 248.057C762.725 243.733 763.252 239.203 763.022 234.68C763.022 224.62 763.243 222.85 762.245 219.633C762.245 218.796 760.683 218.796 760.683 219.633C759.621 223.424 759.355 227.42 759.902 231.335C759.813 235.564 759.291 239.769 758.344 243.875C757.592 247.173 756.147 250.244 754.119 252.852C752.092 255.46 749.535 257.538 746.645 258.927C740.82 260.847 734.793 261.971 728.705 262.271C722.465 262.271 715.444 263.103 709.208 263.103C699.067 263.103 688.149 263.103 678.007 263.941C676.454 264.778 676.454 265.615 677.226 265.615Z" fill="#3B89A0"/>
<path d="M495.498 441.172C524.516 441.85 606.11 443.966 624.189 442.009C632.764 441.099 641.445 440.49 648.385 435.321C657.092 428.823 658.527 418.6 658.527 408.567C660.416 376.139 660.789 353.175 630.446 350.887C614.867 349.708 599.25 350.887 582.868 350.887C541.581 350.887 544.239 351.719 536.852 351.719C536.542 351.719 536.244 351.852 536.024 352.087C535.804 352.323 535.681 352.642 535.681 352.975C535.681 353.308 535.804 353.627 536.024 353.863C536.244 354.098 536.542 354.231 536.852 354.231C539.972 354.231 545.432 354.995 549.333 355.063C572.74 355.482 596.125 353.444 619.528 355.063C632.004 355.928 648.534 355.851 653.063 371.785C657.092 385.953 656.167 405.223 653.84 419.437C650.699 438.661 623.421 437.673 609.382 437.828C571.177 438.247 533.728 436.991 495.51 438.665C494.716 439.502 494.716 441.154 495.498 441.172Z" fill="#3B89A0"/>
<path d="M780.18 373.455C762.865 371.603 667.688 373.122 665.527 374.292C663.969 375.129 666.308 424.451 667.87 424.451C687.397 422.954 781.212 422.094 788.764 420.274C798.175 417.999 803.579 406.897 803.579 396.864C804.36 383.487 791.884 375.129 780.18 373.455Z" fill="#D63037"/>
<path d="M456.499 199.572C434.734 197.199 412.848 196.36 390.982 197.06C380.063 197.06 369.145 197.06 358.227 197.897C352.755 197.758 347.281 198.038 341.846 198.735C336.633 198.559 331.416 198.838 326.245 199.567C321.906 200.632 317.899 202.888 314.618 206.113C311.337 209.338 308.894 213.421 307.529 217.963C304.409 226.321 308.331 235.49 314.546 241.368C321.578 247.443 330.499 250.432 339.507 249.731C379.206 249.731 405.147 250.018 445.581 247.219C447.139 247.219 447.139 243.875 445.581 244.712C414.675 246.675 383.696 246.954 352.764 245.55C344.185 245.55 334.086 246.259 325.468 243.043C318.481 240.431 310.649 233.033 310.649 223.814C311.011 219.482 312.646 215.384 315.319 212.112C317.794 207.895 321.717 204.891 326.241 203.749C335.733 202.056 345.556 203.776 356.661 202.079C375.869 202.079 342.177 201.242 457.267 201.242C457.28 200.787 457.28 200.405 456.499 199.572Z" fill="#3B89A0"/>
<path d="M794.223 25.6845C786.463 20.5794 777.06 21.4894 767.721 21.4894C616.107 21.4894 608.61 22.1218 608.61 25.6708C608.608 40.1973 607.825 54.7115 606.267 69.1415C605.968 69.3475 605.737 69.6485 605.607 70.0023C605.476 70.356 605.452 70.7447 605.539 71.1138C605.625 71.4828 605.817 71.8137 606.087 72.0597C606.358 72.3058 606.694 72.4548 607.048 72.4858C650.809 75.1657 705.884 72.6632 773.961 71.6486C780.978 71.5439 788.78 71.6486 795.016 66.6436C810.396 57.4799 811.249 36.8593 794.223 25.6845Z" fill="#D63037"/>
<path d="M798.901 207.093C791.884 199.572 766.142 197.898 766.142 201.242C766.142 214.619 766.142 245.55 767.704 247.22C769.785 248.648 772.271 249.242 774.721 248.894C779.711 249.128 784.706 248.563 789.54 247.22C793.456 246.065 797.024 243.841 799.896 240.763C802.767 237.686 804.844 233.862 805.922 229.666C806.383 225.581 805.993 221.437 804.779 217.533C803.565 213.63 801.557 210.064 798.901 207.093Z" fill="#D63037"/>
<path d="M759.902 192.883C747.167 172.408 720.686 176.999 702.968 176.999C692.826 176.999 681.908 176.999 671.767 176.162C606.946 176.162 576.255 172.586 563.354 179.506C560.658 180.482 558.169 182.018 556.027 184.026C553.886 186.034 552.134 188.475 550.874 191.209C549.705 193.545 548.888 196.065 548.454 198.675C537.774 198.653 532.467 198.398 531.376 199.585V202.093C532.445 203.137 533.831 203.73 535.278 203.762C542.893 203.762 546.141 204.008 547.834 204.035C547.571 208.331 547.754 212.617 547.754 216.32C547.137 226.695 547.891 237.112 549.995 247.26C536.797 247.26 535.732 247.015 533.715 248.098L533.821 251.442C534.246 251.897 531.86 251.442 551.442 251.442C552.559 254.271 554.186 256.835 556.23 258.987C558.274 261.139 560.695 262.836 563.354 263.982C571.776 266.989 577.163 266.489 613.271 266.489C644.022 266.489 664.211 265.579 668.647 265.656C668.958 265.656 669.256 265.524 669.475 265.288C669.695 265.053 669.819 264.733 669.819 264.4C669.819 264.067 669.695 263.748 669.475 263.512C669.256 263.277 668.958 263.144 668.647 263.144C663.977 263.144 658.51 262.312 653.828 262.312H605.473C592.211 262.312 574.272 265.656 562.573 258.968C559.29 256.777 556.617 253.681 554.834 250.004C553.051 246.327 552.222 242.203 552.436 238.065C551.655 225.525 550.097 208.808 553.213 196.264C554.293 192.999 556.182 190.109 558.676 187.906C569.191 176.635 591.931 179.547 721.684 179.547C731.825 179.547 741.962 179.547 749.765 185.399C753.493 188.125 756.423 191.928 758.217 196.367C760.011 200.806 760.595 205.698 759.902 210.478C760.683 211.315 760.683 211.315 761.464 210.478C762.581 207.636 763.023 204.54 762.75 201.47C762.478 198.399 761.499 195.449 759.902 192.883Z" fill="#3B89A0"/>
<path d="M591.435 205.423C585.067 225.839 592.993 245.713 592.993 238.024C593.948 234.953 594.877 198.029 591.435 205.423Z" fill="#3B89A0"/>
<path d="M621.069 202.911C619.587 208.476 620.292 212.157 620.292 230.503C620.292 235.644 620.649 238.024 624.189 238.024C626.375 236.463 625.751 235.189 625.751 221.307C625.751 194.321 620.135 202.911 621.069 202.911Z" fill="#3B89A0"/>
<path d="M656.948 238.024C658.323 235.817 656.587 191.987 651.489 202.912C651.913 202.912 650.134 245.349 656.948 238.024Z" fill="#3B89A0"/>
<path d="M681.908 203.749C681.05 212.914 680.789 222.132 681.127 231.335C681.127 233.847 681.127 238.024 682.689 239.698C683.466 240.536 684.812 240.499 685.028 239.698C685.71 236.691 685.972 233.592 685.805 230.503C686.133 221.273 685.611 212.031 684.247 202.912C684.247 202.079 681.908 202.079 681.908 203.749Z" fill="#3B89A0"/>
<path d="M715.444 204.586C715.444 205.041 712.969 234.616 717.787 238.861C723.458 243.843 720.712 216.229 720.194 212.812C717.982 198.198 715.508 202.766 715.444 204.586Z" fill="#3B89A0"/>
<path d="M427.641 30.6986C424.784 39.8896 427.098 39.7213 425.302 47.4199C425.302 52.4249 424.521 59.1225 426.86 63.304C427.641 64.9738 429.203 64.1366 429.203 63.304C430.184 60.1462 429.98 58.7539 429.98 39.057C429.98 36.5499 429.203 34.052 429.203 30.6986C429.98 29.8614 428.422 29.0242 427.641 30.6986Z" fill="#3B89A0"/>
<path d="M457.28 28.1916C455.658 37.2773 455.134 46.5491 455.722 55.7782C455.722 58.2852 455.722 62.4667 458.061 63.3039H459.619C461.958 61.6295 461.181 58.2989 461.181 55.7782C461.753 46.5489 461.228 37.279 459.619 28.1916C458.838 27.3544 457.28 26.5172 457.28 28.1916Z" fill="#3B89A0"/>
<path d="M518.115 29.0242C517.259 38.1909 517 47.4102 517.338 56.6154C517.338 59.1225 517.338 63.3039 518.896 64.9738C519.677 65.811 521.18 65.8838 521.409 65.0693C522.031 62.0203 522.236 58.8904 522.016 55.7782C522.344 46.5502 521.822 37.31 520.458 28.1916C520.458 27.3544 518.115 27.3544 518.115 29.0242Z" fill="#3B89A0"/>
<path d="M551.651 29.8615C551.651 30.3165 548.925 72.0764 556.32 64.1367C558.935 59.9416 555.327 34.6026 553.981 29.0243C553.625 27.4955 551.651 28.1917 551.651 29.8615Z" fill="#3B89A0"/>
<path d="M555.556 379.31C554.945 383.897 555.297 412.007 558.676 414.423C558.812 414.617 558.989 414.774 559.192 414.883C559.395 414.991 559.619 415.048 559.846 415.048C560.072 415.048 560.296 414.991 560.499 414.883C560.702 414.774 560.879 414.617 561.015 414.423C563.49 410.442 559.436 382.168 558.676 379.31C558.676 377.636 556.32 377.636 555.556 379.31Z" fill="#3B89A0"/>
<path d="M585.971 380.98C585.116 390.145 584.856 399.363 585.195 408.567C585.195 411.079 585.195 415.255 586.752 416.93C587.534 417.762 589.091 417.762 589.091 416.93C590.654 414.423 589.873 411.079 589.873 407.734C590.2 398.505 589.678 389.263 588.315 380.143C588.315 378.473 585.971 379.31 585.971 380.98Z" fill="#3B89A0"/>
<path d="M624.97 406.06C624.745 397.325 623.699 388.636 621.85 380.125C621.358 378.414 619.91 379.142 619.511 380.962C618.892 383.98 618.63 387.07 618.73 390.158C618.73 399.053 618.204 404.104 618.73 407.448C618.751 408.902 619.04 410.338 619.579 411.673C620.118 413.008 620.897 414.216 621.871 415.228C622.007 415.423 622.184 415.581 622.387 415.69C622.59 415.799 622.814 415.856 623.041 415.856C623.268 415.856 623.492 415.799 623.695 415.69C623.898 415.581 624.074 415.423 624.21 415.228C625.751 412.748 624.97 409.404 624.97 406.06Z" fill="#3B89A0"/>
<path d="M527.475 391.013C527.475 395.195 526.694 399.372 526.694 403.553V412.749C526.694 414.423 528.256 415.256 529.814 415.256C535.413 415.256 531.113 400.418 529.814 391.85C529.419 389.239 527.475 390.176 527.475 391.013Z" fill="#3B89A0"/>
<path d="M383.973 24.0101C380.644 23.233 377.232 22.9513 373.832 23.1729C357.442 23.5915 340.296 21.503 323.915 24.0101C318.514 25.092 313.587 28.0254 309.877 32.3684C306.681 36.7983 304.948 42.2392 304.948 47.8384C304.948 53.4377 306.681 58.8786 309.877 63.3084C319.521 76.6536 340.653 71.6668 362.914 71.6668C369.148 71.2482 375.4 71.2482 381.634 71.6668C382.116 71.6128 382.563 71.3692 382.887 70.9831C383.212 70.597 383.391 70.0958 383.391 69.5761C383.391 69.0564 383.212 68.5551 382.887 68.169C382.563 67.7829 382.116 67.5393 381.634 67.4853C376.96 67.0963 372.265 67.0963 367.592 67.4853C362.141 68.3953 355.892 68.3225 350.433 69.1597C333.967 69.1597 325.354 70.047 318.456 65.8155C314.291 62.9729 311.315 58.5124 310.152 53.3693C308.988 48.2263 309.728 42.8001 312.216 38.2288C316.885 29.8659 326.254 28.1961 334.837 28.1961C348.094 27.3589 361.356 29.0287 374.613 28.1961C378.012 28.3341 381.415 28.0532 384.754 27.3589C384.746 25.6845 384.746 24.8473 383.973 24.0101Z" fill="#3B89A0"/>
<path d="M489.593 28.8241C489.413 29.9971 489.301 31.1808 489.257 32.3685C489.257 40.0307 489.011 41.3002 490.038 42.4013C491.473 43.9392 493.159 40.1263 493.159 39.057C493.434 35.663 493.262 32.2443 492.649 28.9014C492.369 27.8959 489.801 27.5774 489.593 28.8241Z" fill="#3B89A0"/>
<path d="M222.514 268.959C223.3 270.193 224.344 271.212 225.562 271.937C226.78 272.663 228.139 273.073 229.531 273.136C233.432 273.136 234.201 275.643 231.87 277.318C230.104 278.268 228.064 278.451 226.175 277.828C224.286 277.205 222.695 275.824 221.733 273.973C219.042 269.464 219.394 265.615 222.514 268.959Z" fill="#3B89A0"/>
<path d="M213.154 217.139C211.921 216.965 210.668 217.191 209.556 217.787C208.444 218.383 207.524 219.322 206.914 220.484C204.575 223.828 202.622 223.068 203.013 219.646C203.123 217.542 204.005 215.57 205.467 214.161C206.929 212.752 208.851 212.02 210.815 212.125C216.296 212.112 217.051 216.289 213.154 217.139Z" fill="#3B89A0"/>
<path d="M210.034 229.666C210.034 230.775 210.692 231.838 211.862 232.622C213.032 233.406 214.619 233.847 216.274 233.847C217.929 233.847 219.516 233.406 220.687 232.622C221.857 231.838 222.514 230.775 222.514 229.666C222.514 228.557 221.857 227.493 220.687 226.709C219.516 225.925 217.929 225.484 216.274 225.484C214.619 225.484 213.032 225.925 211.862 226.709C210.692 227.493 210.034 228.557 210.034 229.666Z" fill="#3B89A0"/>
</svg>
