<svg width="310" height="142" viewBox="0 0 310 142" fill="none" xmlns="http://www.w3.org/2000/svg">
<path d="M95.7363 29.7041C95.4017 23.322 90.5519 20.8361 84.9922 23.9943C84.6795 24.1788 41.7814 47.8246 8.26403 67.1458C5.29317 70.4042 2.65069 73.9474 0.37484 77.7241C-0.397507 78.8936 -0.0191879 80.2257 1.8851 80.2257C16.7692 78.5715 3.56429 83.8154 91.3712 34.5727C92.8815 33.2281 95.064 31.8867 95.7363 29.7041ZM10.4466 68.8218L73.7479 32.8935C74.2552 32.4634 74.8505 32.1496 75.4921 31.9742C76.1337 31.7987 76.8059 31.7658 77.4615 31.8779C78.1171 31.9899 78.7403 32.2442 79.2872 32.6228C79.834 33.0013 80.2914 33.4951 80.6271 34.0693C82.0029 35.7203 81.9623 36.5708 80.1237 37.5933C51.1622 53.6375 15.0619 74.6973 14.3083 74.6973C13.1326 72.8524 11.9569 70.8355 10.4466 68.8218ZM5.07456 74.5284L7.59176 70.501C10.7843 71.8424 12.1258 73.5216 11.9694 76.2076C9.6086 75.873 6.92257 77.5522 5.07456 74.5284ZM91.3774 31.2144C90.036 29.1975 88.8603 27.3526 87.5157 25.3358C87.9198 25.112 88.3655 24.9735 88.8253 24.9288C89.2851 24.8841 89.7492 24.9343 90.1888 25.0761C90.6284 25.218 91.0343 25.4486 91.3812 25.7535C91.7282 26.0585 92.009 26.4314 92.206 26.8492C93.3849 28.8629 92.8815 30.5421 91.3712 31.2144H91.3774ZM84.9985 35.2418C83.3193 33.053 81.809 31.3801 80.3081 29.5352C81.4931 29.4563 82.6675 29.8014 83.6213 30.5089C84.5751 31.2164 85.2462 32.2401 85.5145 33.397C85.4957 33.9098 85.0047 34.7384 85.0047 35.2418H84.9985ZM88.3568 33.5627C86.8434 31.0612 85.6708 29.185 84.6608 27.1838C87.1811 27.6872 88.8602 29.0318 89.0385 31.2144C88.945 32.0307 88.7123 32.825 88.3506 33.5627H88.3568Z" fill="#D63037"/>
<path d="M115.719 11.9057C116.891 10.3954 118.22 8.54738 120.753 9.55424C121.256 9.7231 126.344 10.0889 127.632 7.87508C130.049 3.74755 139.292 1.30856 142.91 0.995873C177.231 -2.68138 192.731 4.31664 209.729 13.9225C213.003 15.3265 210.627 14.6136 221.149 10.9019C241.436 3.29415 275.732 4.99832 308.452 25.8455C312.679 28.4506 316.288 31.9452 319.028 36.0861C321.148 39.26 322.752 38.7096 327.423 40.7765C327.926 40.891 328.392 41.128 328.781 41.4663C329.17 41.8046 329.469 42.2338 329.652 42.7156C329.835 43.1975 329.896 43.717 329.829 44.2281C329.763 44.7392 329.571 45.226 329.271 45.6451C326.585 50.1791 277.896 131.776 273.531 139.331C272.186 141.682 271.18 142.186 268.662 141.682C259.425 139.665 181.625 124.559 164.398 120.863C161.666 120.123 158.831 119.838 156.006 120.022C150.163 120.724 144.273 119.157 139.552 115.644C138.227 114.673 136.656 114.091 135.018 113.965C127.129 112.958 66.6854 104.059 60.4753 103.221C42.0453 101.298 35.6914 115.722 115.719 11.9057ZM264.469 133.796C265.72 132.545 318.49 45.4606 318.699 45.1479C317.233 43.6814 321.826 37.487 265.31 130.775C263.506 133.78 263.49 132.817 264.469 133.796ZM237.943 125.4C217.216 116.228 194.945 111.045 172.297 110.122L237.943 125.4ZM231.227 119.356C216.621 111.97 201.343 107.27 185.727 107.94C201.268 110.057 216.527 113.886 231.227 119.356ZM260.273 132.117C279.414 100.889 298.554 69.7172 317.692 38.6002C289.044 14.2102 250.795 4.92639 218.466 16.4397C214.474 17.8214 211.09 20.553 208.898 24.1632C181.237 66.5579 156.697 102.99 153.326 108.612C193.451 96.1886 228.372 107.102 260.273 132.117ZM149.295 107.94C168.939 78.3902 188.751 48.5063 208.729 18.6223C189.908 3.04401 150.359 1.28981 130.659 8.54738C129.167 8.92261 67.6767 89.1718 66.3571 91.1511C80.5343 88.1137 95.2429 88.6326 109.171 92.6614C123.187 95.8777 136.69 101.019 149.295 107.94ZM79.118 93.5026C90.6876 95.1817 102.958 96.692 115.046 98.3712C98.9271 94.006 83.8178 92.158 79.118 93.5026ZM131.162 105.926C131.297 105.729 131.356 105.491 131.331 105.254C127.47 104.247 123.439 103.065 119.243 102.399C110.781 101.114 77.3983 96.0792 68.7086 95.6852C67.5714 95.6989 66.4414 95.8683 65.3502 96.1886C87.5076 99.5469 109.337 102.736 131.162 105.926Z" fill="#3B89A0"/>
<path d="M276.895 41.9583C278.84 42.9558 280.716 44.0753 281.273 42.6306C281.942 39.9509 267.777 33.7877 266.329 33.228C253.146 28.0582 238.995 25.8238 224.86 26.6802C222.423 26.9464 220.01 27.3958 217.64 28.0248C210.395 31.6364 244.991 25.6108 276.895 41.9583Z" fill="#3B89A0"/>
<path d="M216.283 39.2725C212.255 40.9516 216.117 41.4613 216.789 41.4613C224.949 41.5089 233.071 42.5805 240.964 44.6508C241.467 44.8196 245.498 44.3162 241.636 42.4619C226.655 37.6621 223.347 37.6434 216.283 39.2725Z" fill="#3B89A0"/>
<path d="M147.617 74.363C149.631 71.1735 151.647 68.1498 153.661 65.1292C153.955 64.9367 154.286 64.8074 154.633 64.7493C154.979 64.6911 155.334 64.7055 155.675 64.7915C157.366 65.2574 159.202 65.7983 161.05 66.1361C160.04 63.7846 157.692 63.2812 155.675 61.9366C157.188 59.4194 158.53 56.9023 160.053 54.2162C166.106 56.4051 165.744 56.2925 167.441 55.7265C166.422 54.1975 168.214 54.7885 161.228 51.8648C163.245 48.3376 165.09 44.9856 167.107 41.4553C168.448 41.9587 169.793 42.4622 171.303 42.9656C171.303 40.6173 169.289 40.4641 168.279 39.4416C169.793 36.2521 171.303 33.0595 172.813 29.7012C172.645 29.5355 172.732 26.9558 170.127 30.5423C165.75 36.5648 165.35 38.2658 164.083 38.2658C158.542 37.0901 153.17 35.7455 147.629 34.4041C153.339 23.9946 154.177 20.4674 145.616 32.7249C145.422 33.2932 145.019 33.766 144.488 34.0467C143.957 34.3275 143.339 34.3949 142.761 34.2352C138.736 33.8444 134.703 33.7318 130.337 33.563C130.898 32.551 131.347 31.4816 131.679 30.3735C136.057 16.7745 129.331 29.3666 129.331 29.5355C126.241 38.8037 118.758 30.9864 115.572 36.9213C118.258 36.7555 121.113 36.5867 124.471 36.4178C122.623 39.2727 121.113 41.7899 119.434 44.3102C119.04 45.095 110.81 44.3696 108.352 46.8117C111.207 48.322 114.062 46.8117 117.251 47.8186C115.907 50.0074 114.565 52.1963 113.052 54.3663C112.886 54.704 112.045 54.704 111.376 54.704C108.855 54.8698 106.504 54.8698 103.987 55.0386C103.292 55.186 102.617 55.4115 101.973 55.7109C101.973 56.9304 100.979 55.9673 111.041 57.5558C109.531 60.0761 108.186 62.5932 106.507 64.9447C105.635 65.8202 102.755 65.2136 95.932 65.617C95.2722 65.617 92.1797 66.7177 93.0771 67.6307C96.77 67.9653 100.466 68.303 104.334 68.6376C104.045 69.8987 103.653 71.1338 103.161 72.3305C98.7837 84.4191 98.962 84.9226 105.35 73.8439C106.601 72.171 107.695 69.3099 109.378 69.3099C113.755 69.9822 117.942 70.6544 122.473 71.3236C121.298 74.1785 119.115 79.8882 118.446 82.0708C116.932 86.0983 119.453 82.4054 119.618 82.2365C123.877 76.2078 125.119 72.4993 127.007 72.4993C132.045 73.5062 136.913 74.6882 141.951 75.6888C140.437 78.3748 139.096 80.8951 137.751 83.4123C136.576 85.2603 137.92 84.9226 138.592 83.9157C139.599 82.74 140.781 81.7269 141.782 80.5574C142.951 79.2097 143.971 77.0334 145.306 76.6956C147.079 76.1078 149.005 77.7807 154.709 79.0471C153.661 76.5456 150.472 76.0421 147.617 74.363ZM158.195 50.6891C152.823 49.3476 147.617 47.8342 142.414 46.4927C143.755 43.469 145.265 40.6173 146.791 37.259C152.332 38.2658 158.048 39.4478 164.083 40.6173C161.888 44.1413 160.053 47.4996 158.195 50.6891ZM151.144 63.2812C148.955 66.6395 146.944 69.8289 144.931 72.8527C144.795 73.0256 144.609 73.1512 144.397 73.2113C144.186 73.2715 143.961 73.263 143.755 73.1872C138.886 71.8427 133.849 70.5012 128.815 68.9909C130.491 66.136 132.17 63.45 133.849 60.764C133.971 60.5707 134.148 60.419 134.358 60.3291C134.568 60.2392 134.801 60.2153 135.025 60.2606C140.231 61.2674 145.434 62.2743 151.144 63.2812ZM136.032 57.4057C137.376 55.0543 138.886 52.7153 140.231 50.3545C140.831 49.1506 143.248 50.489 156.851 53.0405C155.34 55.7265 154.165 57.7309 152.823 59.9197C152.485 60.2574 151.813 60.7609 151.31 60.592C146.275 59.5883 141.238 58.5814 136.032 57.4057ZM130.828 59.4194C126.535 66.4456 125.653 68.4875 124.615 68.4875C120.237 67.8152 115.885 66.9741 111.354 66.1361C112.864 63.6158 114.206 61.2674 115.732 58.916C116.204 57.9466 117.451 58.0373 130.828 59.4194ZM143.755 36.9213C138.78 46.0425 140.275 46.1144 134.352 45.4859C131.163 45.145 127.973 44.8136 124.615 44.4759C125.96 41.9587 127.264 39.5823 128.646 37.4247C128.81 37.1575 129.029 36.9291 129.29 36.7552C129.551 36.5814 129.846 36.4663 130.156 36.4178C134.524 36.5022 138.886 36.7555 143.755 36.9213ZM137.207 49.0099C135.697 51.6959 134.352 53.8785 132.83 56.0611C132.67 56.2662 132.467 56.4331 132.235 56.5494C132.003 56.6658 131.748 56.7286 131.488 56.7334C126.954 56.23 122.589 55.5577 117.889 55.0542C123.949 45.9831 119.181 47.7216 137.207 49.0099Z" fill="#3B89A0"/>
<path d="M152.69 21.1398C152.186 19.6295 153.362 18.7883 154.538 18.4538C171.602 12.1687 189.068 13.3631 192.311 16.6057C193.771 18.066 192.161 18.9478 191.139 18.6226C178.94 14.739 164.816 18.1098 152.69 21.1398Z" fill="#3B89A0"/>
</svg>
