<svg width="71" height="114" viewBox="0 0 71 114" fill="none" xmlns="http://www.w3.org/2000/svg">
<path d="M16.8927 35.5139C15.9499 31.675 15.125 27.9691 14.0426 24.3773C13.8883 18.7843 14.5533 13.1989 16.0165 7.79852C17.9418 6.95439 20.154 12.453 23.3057 16.1257C25.8038 19.0383 26.0109 22.5812 26.8548 25.9091C27.2765 27.5778 27.7028 29.1102 28.1247 30.7741C28.1928 30.7855 28.2625 30.7817 28.3289 30.7631C28.3953 30.7445 28.4568 30.7115 28.509 30.6665C28.3408 29.0106 28.1522 12.7062 28.4575 6.65934C28.6472 2.9035 31.6811 -0.833445 35.1862 1.05916C38.5469 2.87623 38.6617 6.33444 39.0184 10.2238C41.6789 10.1063 41.9972 10.3742 42.4058 13.0494C42.8082 15.8234 42.6655 18.6493 41.9857 21.3686C41.6728 22.393 41.3132 22.8032 40.6679 22.4388C40.5803 19.1396 40.1613 12.4301 40.0346 12.4237C39.7633 13.2825 39.5508 14.1586 39.3985 15.0462C39.4782 20.9886 39.683 26.9373 40.013 32.8924C39.9952 33.2445 40.2465 35.0716 41.3173 34.6056C43.4097 25.2448 46.0297 16.0098 49.1647 6.94481C49.923 4.5097 51.8002 2.28875 54.2775 3.28459C54.9286 3.75889 55.4241 4.41602 55.701 5.17251C55.9779 5.92901 56.0238 6.75074 55.8327 7.53333C55.82 7.7845 55.6868 7.90485 55.674 8.15837C56.2935 8.4269 56.8093 8.8889 57.1441 9.47518C57.479 10.0614 57.6148 10.7404 57.5314 11.4104C57.4483 14.315 57.3085 17.0826 57.0986 19.9808C57.0595 20.2883 56.9095 20.5711 56.6768 20.776C56.4441 20.9809 56.1447 21.0939 55.8346 21.0938C55.5246 21.0938 55.2252 20.9806 54.9926 20.7756C54.76 20.5706 54.6101 20.2878 54.5711 19.9802C54.5619 19.0443 54.4824 18.1105 54.3333 17.1865C46.0393 49.9645 51.5712 34.135 60.3635 17.8699C61.1271 16.6749 62.0311 15.5757 63.0563 14.5958C64.0977 13.2018 65.266 11.9073 66.5463 10.7289C66.7467 10.4236 67.016 10.1698 67.3327 9.9879C67.6493 9.80601 68.0043 9.70119 68.3689 9.68192C69.5027 9.73918 69.6077 10.5023 69.6583 11.6439C69.8023 14.8047 70.1047 17.8582 70.3236 21.0275C70.4794 22.0896 70.0997 22.5247 62.4185 37.4338C61.8496 38.5394 62.3303 39.1803 63.1865 39.7483C64.1768 40.4102 65.266 41.1171 66.2477 41.6703C67.0095 42.1129 67.6005 42.7986 67.9257 43.6174C68.251 44.4362 68.2917 45.3405 68.0413 46.1852C66.7313 52.4591 56.1093 97.8773 54.9113 103.519C51.9881 117.273 31.8599 113.632 18.3178 110.012C11.5165 108.195 12.2103 104.055 10.9012 96.75C10.1922 92.8005 2.07701 48.2601 0.656766 41.8977C-0.668055 36.0227 10.9769 34.8951 16.8927 35.5139ZM64.0676 47.3731C43.6847 50.6411 23.7502 50.0134 4.43841 42.0887C8.52029 69.6576 10.7131 77.2192 16.0378 102.686C16.6972 105.847 18.6938 105.547 19.7779 106.169C34.8803 108.579 40.6915 110.755 47.6131 107.954C48.5783 107.66 49.4471 107.114 50.1291 106.37C50.8111 105.627 51.2813 104.714 51.4907 103.728C63.2477 54.6624 59.8217 66.2093 64.0535 47.3723L64.0676 47.3731ZM16.8562 23.8863C17.5397 30.1168 18.9208 36.2508 20.9738 42.1729C21.0971 42.4841 21.302 42.7562 21.567 42.9607C23.8155 43.4531 26.0704 43.8188 28.4543 44.1933C28.151 42.6507 23.2461 23.6912 23.1828 23.4527C22.1956 20.4917 16.3715 23.2311 16.8421 23.8856L16.8562 23.8863ZM64.3057 22.6181C63.6702 22.7131 63.0102 23.1998 62.3905 23.0273C61.8892 22.8891 61.5525 22.1001 61.0795 21.4455C57.2749 29.2126 52.7363 36.5566 49.2899 44.7324C51.5703 44.5934 53.475 44.4377 55.3773 44.282C56.2951 44.3283 56.4358 43.78 65.2867 25.7011C65.748 24.8607 64.9343 23.8241 64.2916 22.6173L64.3057 22.6181ZM46.1202 19.9324C43.9164 28.5286 41.9874 36.5292 39.8051 44.8842C41.5767 44.8489 42.7169 44.7794 43.9774 44.843C46.0666 44.9485 44.8761 44.9425 51.468 21.5909C49.5897 20.9924 47.8436 20.523 46.1061 19.9317L46.1202 19.9324ZM37.2841 44.7569C37.0504 33.5853 36.7638 28.4004 36.7228 23.2468C36.7031 20.4688 36.3841 19.935 33.4718 20.0515C32.6965 20.1808 31.9289 20.3526 31.1724 20.5661C31.5273 28.5455 31.8821 36.5249 32.1127 44.4957L37.2841 44.7569ZM36.4033 17.1778C36.0958 13.2462 35.8249 9.05762 35.249 4.99013C34.8881 2.44202 32.2868 3.57679 31.8771 4.18681C31.3406 4.85832 31.0333 5.68408 31.0003 6.54299C30.7748 15.0179 31.2885 15.844 31.1771 18.0505C32.9479 17.7493 34.4792 17.4383 36.3898 17.1653L36.4033 17.1778ZM20.7905 18.538C18.5807 14.7622 18.5807 14.7622 16.9167 15.1842C15.8745 20.8173 15.4144 19.9092 17.0528 19.992C18.397 19.821 19.6771 19.3169 20.777 18.5256L20.7905 18.538ZM63.7083 19.4414C65.5244 18.5235 65.5244 18.5235 67.153 21.1309L67.531 21.15C67.4901 19.5053 67.4468 17.8604 67.4013 16.2155C66.7544 15.9335 66.0918 15.6895 65.4166 15.4846C62.8822 17.9971 62.8822 17.9971 63.6948 19.429L63.7083 19.4414Z" fill="#3B89A0"/>
</svg>
