<svg width="72" height="71" viewBox="0 0 72 71" fill="none" xmlns="http://www.w3.org/2000/svg">
<path fill-rule="evenodd" clip-rule="evenodd" d="M46.263 59.0636C20.3888 58.5826 5.9322 37.3516 1.91654 26.8549C1.54661 25.888 2.00637 24.8181 2.94345 24.4654C3.88052 24.1126 4.94006 24.6106 5.30999 25.5775C9.04963 35.3527 22.5045 54.8957 46.2338 55.3368C47.2412 55.3556 48.0644 56.205 48.0725 57.2341C48.0806 58.2633 47.2704 59.0823 46.263 59.0636Z" fill="#D63037"/>
<path fill-rule="evenodd" clip-rule="evenodd" d="M54.848 45.4936C35.3083 49.8717 21.0663 36.7934 16.3788 29.7691C15.8135 28.9221 16.042 27.7771 16.889 27.2119C17.7361 26.6466 18.881 26.875 19.4463 27.7221C23.7121 34.1145 36.6177 45.7991 54.0417 41.8951C55.0354 41.6724 56.0215 42.2975 56.2441 43.2912C56.4668 44.2849 55.8417 45.2709 54.848 45.4936Z" fill="#D63037"/>
<path fill-rule="evenodd" clip-rule="evenodd" d="M58.0715 25.2689C44.7189 33.5106 30.8473 27.462 25.5924 23.4692C24.7816 22.8531 24.6237 21.6963 25.2398 20.8855C25.8559 20.0747 27.0127 19.9168 27.8235 20.5329C32.4736 24.0662 44.627 29.2336 56.1346 22.1308C57.0012 21.5959 58.1372 21.8648 58.6721 22.7314C59.207 23.598 58.9381 24.7341 58.0715 25.2689Z" fill="#D63037"/>
</svg>
