<svg width="27" height="12" viewBox="0 0 27 12" fill="none" xmlns="http://www.w3.org/2000/svg">
<path fill-rule="evenodd" clip-rule="evenodd" d="M24.6688 5.4455C24.5809 6.01337 24.42 6.49349 24.3095 6.51786C23.471 6.70284 22.6303 6.89803 21.7894 7.09328C18.0856 7.95325 14.3757 8.81462 10.8095 8.81242C7.99253 8.81069 5.25815 8.30752 2.52786 7.8051C1.75072 7.6621 0.973922 7.51915 0.195642 7.38785C0.0919329 7.37036 0.0855604 6.89561 0.181409 6.32748C0.277257 5.75935 0.43903 5.31297 0.542739 5.33047C1.32334 5.46216 2.10166 5.60538 2.87972 5.74854C5.60899 6.25073 8.33504 6.75233 11.145 6.75406C14.7015 6.75626 18.4002 5.89755 22.1035 5.03779C22.9453 4.84234 23.7874 4.64685 24.628 4.46139C24.7385 4.43702 24.7568 4.87762 24.6688 5.4455Z" fill="#D63037"/>
<path fill-rule="evenodd" clip-rule="evenodd" d="M19.1564 0.648792C19.1807 0.668575 19.2011 0.68525 19.2336 0.708762C19.6932 1.04178 20.1604 1.25541 20.6629 1.48519C20.8772 1.58322 21.098 1.68419 21.3274 1.79863C21.5575 1.91344 21.7969 2.02516 22.0421 2.13961C23.2535 2.70505 24.6078 3.33712 25.6958 4.73689C25.7802 4.84548 25.8389 4.99151 25.87 5.15174C25.9282 5.24608 25.9741 5.36607 26.0011 5.5061C26.0879 5.95583 25.9472 6.44194 25.6869 6.59185C25.3218 6.80212 24.6136 7.39887 24.2453 7.78486C23.8523 8.19672 23.4295 8.51786 23.0427 8.81166C22.9811 8.85844 22.9204 8.90452 22.8609 8.95016C22.4129 9.29393 22.0165 9.62288 21.6741 10.0682C21.5361 10.2476 21.4145 10.4399 21.2876 10.6408C21.2713 10.6666 21.2549 10.6926 21.2384 10.7186L21.2344 10.7248C21.1105 10.9202 20.9383 11.1919 20.7549 11.3472C20.6526 11.4337 20.5128 11.5155 20.3486 11.4975C20.1746 11.4784 20.0254 11.3531 19.9079 11.1747C19.7046 10.8662 19.5834 10.378 19.4908 9.88037C19.2597 8.63844 19.1301 7.36803 19.007 6.1615C18.9958 6.05149 18.9846 5.94201 18.9734 5.83313C18.8373 4.50805 18.6972 3.25529 18.4341 2.04899C18.4319 2.03861 18.4296 2.02808 18.4272 2.01744C18.404 1.91124 18.3785 1.7942 18.363 1.70345L18.3629 1.70328C18.356 1.66278 18.3361 1.5463 18.3345 1.40758C18.3332 1.28596 18.3485 0.808731 18.6286 0.582946C18.7361 0.496234 18.8338 0.495825 18.8857 0.502574C18.9398 0.509597 18.9829 0.52972 19.0065 0.542098C19.0521 0.565957 19.0924 0.597702 19.1095 0.611158L19.1097 0.611308C19.1282 0.62589 19.1429 0.637819 19.1564 0.648792ZM24.5863 5.53424C23.7717 4.73544 22.832 4.29326 21.8414 3.82712C21.5812 3.70469 21.3175 3.5806 21.0517 3.44797C20.8691 3.35688 20.6758 3.26842 20.4765 3.1772C20.1952 3.04848 19.9019 2.91426 19.6096 2.75935C19.7588 3.69734 19.8593 4.63214 19.9518 5.53305C19.9626 5.63786 19.9733 5.74214 19.9839 5.84592C20.1093 7.07347 20.2276 8.23044 20.4368 9.35503C20.4531 9.44249 20.4685 9.51816 20.4829 9.58338C20.5079 9.54539 20.5362 9.50148 20.5684 9.45078C20.5834 9.42711 20.599 9.40238 20.6152 9.37674C20.7394 9.17992 20.8974 8.92946 21.0764 8.69665C21.5174 8.12316 22.0059 7.72776 22.4576 7.3812C22.5227 7.33125 22.5869 7.28241 22.6502 7.23425C23.0405 6.93723 23.3971 6.66584 23.7299 6.31704C23.9478 6.08879 24.2668 5.79717 24.5863 5.53424ZM18.6903 2.16785C18.6903 2.16781 18.6908 2.16822 18.6921 2.16918C18.6909 2.16836 18.6903 2.16788 18.6903 2.16785Z" fill="#D63037"/>
</svg>
