<svg width="269" height="158" viewBox="0 0 269 158" fill="none" xmlns="http://www.w3.org/2000/svg">
<path fill-rule="evenodd" clip-rule="evenodd" d="M156.705 80.2011C166.849 68.5464 175.964 55.5871 183.888 41.4754C186.783 36.3201 188.267 32.4023 188.737 29.5089C189.202 26.6508 188.652 25.0329 187.764 24.0626C186.8 23.0087 185.089 22.3209 182.513 22.1821C179.977 22.0453 176.852 22.4561 173.365 23.2986C166.402 24.9812 158.28 28.3154 151.103 31.9616C143.901 35.6212 137.809 39.515 134.842 42.2538C130.462 46.2972 127.263 51.5349 126.441 56.7412C125.64 61.8138 127.056 67.033 132.26 71.442C139.149 77.2801 147.746 79.8452 156.705 80.2011ZM160.934 80.2098C170.425 68.9985 178.993 56.6422 186.503 43.2683C189.478 37.9688 191.183 33.6412 191.75 30.1547C192.322 26.6329 191.756 23.7363 189.906 21.7137C188.132 19.7748 185.484 18.9911 182.607 18.836C179.692 18.6788 176.273 19.1518 172.653 20.0265C165.404 21.7783 157.066 25.2129 149.774 28.918C142.508 32.6098 136.123 36.6499 132.845 39.6759C128.109 44.0476 124.404 49.9185 123.426 56.1114C122.427 62.4381 124.316 68.9087 130.415 74.0772C137.226 79.8484 145.448 82.6104 153.891 83.3708C121.141 119.555 78.202 142.49 30.2394 147.326C29.3997 147.41 28.7942 148.226 28.8871 149.147C28.98 150.068 29.736 150.746 30.5758 150.662C80.2274 145.656 124.559 121.543 158.017 83.5871C158.081 83.5882 158.146 83.5891 158.21 83.5899C168.14 83.7175 178.207 81.3427 186.657 77.9446C200.338 72.4432 216.49 62.3855 229.779 49.3475C243.047 36.3307 253.637 20.168 255.842 2.41628C255.956 1.50202 255.369 0.64633 254.532 0.505029C253.695 0.363735 252.924 0.990347 252.81 1.90462C250.743 18.552 240.733 34.0616 227.715 46.8339C214.718 59.5849 198.896 69.4329 185.556 74.7972C178.164 77.7698 169.531 79.9144 160.934 80.2098Z" fill="#D63037"/>
<path fill-rule="evenodd" clip-rule="evenodd" d="M32.7588 155.144C32.3718 155.958 31.4493 156.263 30.6983 155.824C26.7428 153.512 22.9736 152.354 18.4875 151.083C18.4909 151.084 18.4929 151.084 18.4929 151.084C18.4929 151.084 18.4742 151.079 18.419 151.066L18.1838 151.009C17.9902 150.962 17.7308 150.898 17.4359 150.82C16.8537 150.668 16.1039 150.457 15.4355 150.217C15.1031 150.097 14.7597 149.959 14.4542 149.804C14.1996 149.675 13.7766 149.44 13.4555 149.057C13.2839 148.852 13.018 148.458 12.9695 147.891C12.9155 147.26 13.1572 146.761 13.4233 146.447C13.6607 146.168 13.9355 146.006 14.1289 145.912C14.3374 145.81 14.5608 145.733 14.7805 145.672C17.838 144.827 20.9551 144.301 24.0124 143.817C24.3885 143.758 24.7635 143.699 25.1374 143.64C27.8253 143.219 30.4567 142.806 33.0436 142.213C33.3468 142.144 34.857 141.712 36.3108 141.269C37.0271 141.05 37.6997 140.838 38.1725 140.676C38.3369 140.62 38.4631 140.575 38.5529 140.541C38.944 140.27 39.4463 140.2 39.9178 140.4C40.0528 140.457 40.5267 140.678 40.7836 141.291C41.0847 142.01 40.8406 142.625 40.6978 142.877C40.5612 143.118 40.4005 143.26 40.3426 143.31C40.2664 143.376 40.1984 143.421 40.1571 143.448C40.0159 143.538 39.8685 143.601 39.8005 143.629C39.623 143.704 39.3851 143.79 39.133 143.876C38.6153 144.053 37.9071 144.276 37.1826 144.497C35.7547 144.933 34.1427 145.397 33.7234 145.493C31.0342 146.109 28.2997 146.538 25.6213 146.958C25.2478 147.016 24.8755 147.074 24.5045 147.133C22.8682 147.392 21.2536 147.657 19.6627 147.971C23.981 149.201 27.9353 150.441 32.0996 152.874C32.8506 153.313 33.1458 154.329 32.7588 155.144ZM38.6836 140.488C38.6837 140.488 38.681 140.489 38.6748 140.492C38.6803 140.489 38.6834 140.488 38.6836 140.488Z" fill="#D63037"/>
</svg>
