<svg width="340" height="229" viewBox="0 0 340 229" fill="none" xmlns="http://www.w3.org/2000/svg">
<path fill-rule="evenodd" clip-rule="evenodd" d="M283.841 192.315C284.28 191.576 285.326 191.362 286.177 191.837C290.66 194.338 294.932 195.734 300.016 197.294C300.012 197.292 300.01 197.292 300.01 197.292C300.01 197.292 300.031 197.298 300.094 197.315L300.36 197.387C300.58 197.447 300.874 197.529 301.208 197.625C301.868 197.816 302.718 198.075 303.475 198.356C303.852 198.496 304.241 198.653 304.588 198.824C304.876 198.967 305.355 199.222 305.719 199.61C305.914 199.817 306.215 200.211 306.27 200.75C306.331 201.351 306.057 201.803 305.755 202.078C305.486 202.323 305.175 202.454 304.955 202.528C304.719 202.608 304.466 202.662 304.217 202.702C300.751 203.256 297.218 203.504 293.752 203.716C293.326 203.742 292.901 203.768 292.477 203.793C289.43 203.977 286.448 204.156 283.516 204.509C283.172 204.551 281.46 204.838 279.812 205.141C279 205.29 278.238 205.437 277.702 205.552C277.515 205.591 277.372 205.624 277.271 205.649C276.827 205.874 276.258 205.899 275.723 205.673C275.57 205.608 275.033 205.361 274.742 204.761C274.401 204.058 274.678 203.496 274.84 203.27C274.995 203.053 275.177 202.931 275.243 202.889C275.329 202.833 275.406 202.796 275.453 202.774C275.613 202.7 275.78 202.653 275.857 202.631C276.058 202.575 276.328 202.513 276.614 202.451C277.201 202.326 278.003 202.171 278.825 202.02C280.443 201.723 282.27 201.414 282.746 201.356C285.794 200.989 288.894 200.803 291.929 200.62C292.353 200.595 292.775 200.57 293.195 200.544C295.05 200.43 296.88 200.309 298.684 200.139C293.789 198.632 289.307 197.144 284.588 194.512C283.737 194.037 283.402 193.053 283.841 192.315ZM277.122 205.689C277.122 205.689 277.125 205.688 277.132 205.686C277.126 205.688 277.123 205.689 277.122 205.689Z" fill="#D63037"/>
<path fill-rule="evenodd" clip-rule="evenodd" d="M203.845 74.5644C206.046 78.6978 206.381 84.0496 205.05 87.99C201.01 99.9504 188.519 108.717 178.59 115.092C170.703 120.156 163.643 124.07 155.339 127.185C154.797 134.155 155.59 140.934 157.844 147.274C161.714 158.156 169.934 167.882 183.422 175.176C211.013 190.095 241.365 192.805 271.743 195.517C276.983 195.984 282.224 196.452 287.451 196.983C288.409 197.08 289.173 197.866 289.158 198.739C289.143 199.611 288.355 200.24 287.397 200.143C282.266 199.622 277.088 199.162 271.883 198.699C241.537 196.001 210.258 193.221 181.879 177.876C167.614 170.162 158.735 159.743 154.556 147.992C152.335 141.745 151.455 135.161 151.769 128.449C149.846 129.09 147.849 129.695 145.755 130.266C123.077 136.454 100.601 131.447 82.9375 114.209C64.9833 96.6878 52.3243 74.2189 41.8422 53.0869C37.419 44.17 33.9983 35.8789 32.7773 26.2512C32.666 25.3734 33.3468 24.6468 34.2979 24.6282C35.249 24.6096 36.1103 25.3061 36.2216 26.1839C37.3781 35.3029 40.6153 43.2143 44.9767 52.0068C55.4336 73.0879 67.876 95.0935 85.3567 112.153C101.947 128.343 122.944 133.088 144.482 127.211C147.15 126.483 149.656 125.7 152.049 124.853C152.561 120.147 153.641 115.397 155.239 110.675C157.719 103.348 161.892 93.9392 167.734 85.8266C173.549 77.7535 181.18 70.7351 190.684 68.5888C193.747 67.897 196.487 68.2311 198.798 69.4152C201.078 70.5834 202.731 72.4716 203.845 74.5644ZM155.754 123.456C156.306 119.626 157.249 115.752 158.561 111.874C160.982 104.72 165.046 95.5766 170.684 87.7487C176.35 79.8813 183.441 73.5705 191.809 71.6807C194.175 71.1463 195.971 71.4577 197.334 72.1563C198.728 72.8706 199.888 74.1022 200.755 75.7316C202.518 79.0426 202.824 83.5452 201.728 86.7922C198.042 97.7032 186.462 105.987 176.425 112.431C169.311 116.998 162.952 120.571 155.754 123.456Z" fill="#D63037"/>
</svg>
