<svg width="807" height="700" viewBox="0 0 807 700" fill="none" xmlns="http://www.w3.org/2000/svg">
<path d="M199.112 275.644C177.276 294.04 177.967 249.145 188.194 253.076C190.516 253.986 198.997 263.086 200.674 257.253C201.404 254.728 195.215 226.313 192.876 220.471C209.66 206.636 222.163 187.698 228.75 166.13C228.75 163.623 222.514 166.967 222.514 166.967C223.788 163.515 224.321 159.8 224.072 156.098C223.936 155.903 223.759 155.746 223.556 155.638C223.353 155.529 223.13 155.473 222.903 155.473C222.676 155.473 222.452 155.529 222.25 155.638C222.047 155.746 221.87 155.903 221.733 156.098C217.832 164.46 208.476 166.108 200.674 166.967C191.335 166.967 158.555 161.962 146.856 167.805C141.397 170.312 135.157 178.67 137.517 193.74C137.517 195.414 139.856 205.447 141.414 206.279C147.45 206.255 153.38 207.985 158.572 211.284C159.353 212.117 158.572 212.954 157.795 212.954C154.675 212.954 152.332 212.117 149.993 212.117C139.075 211.284 123.474 211.284 121.916 226.331C120.354 238.034 124.255 249.741 128.157 259.774C132.826 272.309 158.572 313.277 161.692 314.947C162.785 314.971 163.874 314.808 164.918 314.465C165.729 323.265 167.219 332.028 168.713 340.027C169.49 345.032 174.172 345.878 173.383 340.027C171.163 331.3 169.643 322.573 167.495 313.846C178.604 311.061 202.143 303.936 206.923 300.737C208.476 299.891 201.438 273.137 199.112 275.644ZM207.695 179.507C208.098 179.542 208.476 179.729 208.761 180.035C209.047 180.341 209.221 180.746 209.253 181.177C209.253 186.332 194.251 189.367 193.653 189.54C192.876 189.54 192.095 187.866 192.876 187.866C193.742 186.933 205.556 178.743 207.695 179.507V179.507ZM167.903 283.17C167.905 283.281 167.886 283.391 167.848 283.493C167.809 283.596 167.752 283.689 167.679 283.767C167.606 283.846 167.519 283.907 167.423 283.948C167.327 283.99 167.225 284.01 167.121 284.007C164.782 284.844 162.452 282.333 161.662 280.663C159.992 278.528 158.433 276.295 156.993 273.974C157.344 280.652 158.931 287.189 161.662 293.203C161.879 293.76 161.92 294.378 161.78 294.963C161.641 295.548 161.327 296.068 160.887 296.446C160.448 296.823 159.905 297.037 159.342 297.055C158.779 297.074 158.226 296.895 157.765 296.547C152.465 290.58 147.998 283.821 144.504 276.481C140.76 268.869 136.706 261.435 137.487 252.239C137.487 251.402 139.045 250.565 139.045 252.239C140.869 260.044 144.036 267.415 148.384 273.974C149.937 277.224 151.783 280.304 153.894 283.17C152.448 277.733 152.181 272.013 153.113 266.449C153.132 265.957 153.304 265.486 153.602 265.112C153.901 264.738 154.308 264.483 154.758 264.387C155.208 264.29 155.675 264.359 156.085 264.582C156.494 264.805 156.821 265.17 157.014 265.616C160.546 273.228 168.934 278.802 167.903 283.17ZM151.538 177.833C150.732 178.242 150.061 177.71 150.757 177C153.651 174.428 157.039 172.57 160.678 171.559C164.318 170.548 168.121 170.408 171.816 171.149C178.01 172.181 184.265 172.739 190.533 172.819C190.957 172.819 202.062 171.331 197.554 176.163C192.265 180.413 180.417 178.342 174.155 177C166.727 174.679 158.8 174.97 151.538 177.833V177.833Z" fill="#3B89A0"/>
<path d="M240.454 257.253C242.435 255.55 244.026 253.385 245.107 250.922C246.188 248.46 246.729 245.765 246.69 243.043C246.69 231.805 238.2 224.784 231.094 215.452C227.239 210.397 222.514 206.257 217.832 201.243C217.051 200.405 215.493 201.243 216.274 202.912C219.394 207.094 222.514 212.113 225.613 216.289C234.791 228.574 240.046 234.489 241.209 241.369C241.257 245.776 240.178 250.112 238.089 253.909C237.895 252.652 237.352 251.486 236.531 250.565C235.75 249.732 234.71 249.791 234.969 251.402C237.011 264.001 239.639 278.156 235.75 291.528C234.614 296.174 232.476 300.469 229.51 304.068C226.39 308.25 221.712 309.924 217.811 313.268C217.03 314.101 217.03 315.775 218.592 315.775C224.051 316.608 228.729 312.431 232.63 309.087C236.49 304.805 239.426 299.667 241.231 294.035C244.493 281.979 244.222 269.139 240.454 257.253V257.253Z" fill="#3B89A0"/>
<path d="M369.926 344.199C382.988 340.195 391.041 334.553 416.723 320.789C426.529 317.286 431.194 315.206 435.439 305.742C471.42 225.485 475.954 172.964 479.91 160.265C480.81 155.314 481.328 150.292 481.459 145.25C481.459 142.739 478.339 142.739 477.558 144.413C475.554 153.235 473.996 162.166 472.889 171.167C465.525 210.139 454.551 248.226 440.13 284.862C436.31 294.099 433.89 307.43 425.311 312.449C416.744 317.504 407.886 321.971 398.792 325.826C389.347 330.654 380.072 336.692 369.926 341.71C367.583 342.525 368.364 344.199 369.926 344.199Z" fill="#3B89A0"/>
<path d="M476 131.855C471.331 127.674 466.593 124.398 461.181 120.152C458.058 118.345 455.383 115.765 453.379 112.627C452.417 110.698 451.914 108.544 451.914 106.357C451.914 104.17 452.417 102.016 453.379 100.087C454.869 95.4819 456.695 91.0092 458.838 86.71C460.4 82.5331 462.739 78.3516 464.301 74.1702C465.078 72.5003 462.739 70.8259 461.181 72.5003C458.389 76.3701 456.032 80.5791 454.16 85.0401C451.04 92.5613 446.196 101.78 447.138 110.12C447.707 112.938 448.836 115.591 450.448 117.899C452.059 120.208 454.116 122.117 456.477 123.497C461.996 127.592 468.177 131.855 473.636 135.199C476 135.199 477.558 133.525 476 131.855Z" fill="#3B89A0"/>
<path d="M468.979 90.0543C471.547 74.9164 472.18 57.7765 473.649 48.2534C474.43 43.2484 474.43 38.2434 475.211 33.2065C475.992 29.8623 476.769 34.0437 477.55 34.8809C478.331 38.2252 479.863 41.574 480.67 45.7463C482.937 57.4672 483.79 69.9933 485.339 81.6913C485.39 82.2082 485.617 82.6868 485.977 83.0347C486.337 83.3826 486.805 83.5751 487.29 83.5751C487.775 83.5751 488.242 83.3826 488.603 83.0347C488.963 82.6868 489.19 82.2082 489.24 81.6913C489.789 64.3087 487.14 46.9803 481.442 30.6949C481.183 29.3281 480.505 28.0933 479.516 27.1866C478.527 26.2799 477.283 25.7531 475.983 25.6899C470.524 25.6899 471.314 35.6999 470.524 39.0624C468.945 55.4498 468.163 71.9143 468.181 88.3889C466.64 90.8914 468.198 90.8915 468.979 90.0543Z" fill="#3B89A0"/>
<path d="M510.317 64.1375C513.373 67.0025 515.549 70.792 516.557 75.0075C517.338 79.1455 517.338 83.4092 516.557 87.5473C516.167 88.1645 515.959 88.8927 515.959 89.638C515.959 90.3832 516.167 91.1114 516.557 91.7287C517.338 92.5614 518.115 91.7287 518.896 90.8915C521.952 87.6155 521.528 78.7748 520.458 74.1702C519.818 71.4877 518.652 68.9821 517.038 66.82C515.424 64.6578 513.399 62.8888 511.098 61.6305C509.986 61.2073 509.536 63.3049 510.317 64.1375Z" fill="#3B89A0"/>
<path d="M528.256 127.673C530.847 121.838 532.684 115.65 533.715 109.282C535.133 98.3942 535.278 84.2027 528.256 75.0071C527.475 73.3327 525.136 75.0072 525.917 76.677C529.807 86.7361 530.626 97.8566 528.256 108.445C526.694 118.455 521.04 126.745 517.338 136.036C515.687 140.177 521.265 186.191 522.797 209.601C524.385 233.843 524.355 258.09 524.355 282.332C524.355 305.742 522.823 329.152 521.235 353.394C520.613 365.002 518.782 376.498 515.776 387.67C513.14 395.998 508.579 403.476 502.519 409.405C494.857 417.819 486.203 425.126 476.777 431.14C471.335 434.512 466.64 437.829 461.181 441.15C455.696 444.281 450.476 447.918 445.581 452.02C444.018 452.853 445.581 455.364 447.139 454.527C457.643 450.695 467.614 445.351 476.777 438.643C485.339 432.985 493.434 426.552 500.974 419.415C507.421 413.411 512.949 406.359 517.355 398.517C521.848 388.568 524.496 377.779 525.153 366.749C533.681 300.464 530.107 206.288 520.484 140.19C524.355 138.543 527.475 130.18 528.256 127.673Z" fill="#3B89A0"/>
<path d="M18.1643 584.967C17.0606 602.712 8.05276 647.033 4.12613 664.382C0.619761 679.875 0.224976 678.965 0.224976 682.778C0.224976 684.448 1.78289 685.285 3.34505 683.611C6.19339 679.097 8.05903 673.954 8.80412 668.564C11.0752 657.48 21.2844 602.443 21.2844 584.967C20.5033 582.455 18.1643 582.455 18.1643 584.967Z" fill="#3B89A0"/>
<path d="M490.82 58.2859C492.378 60.7929 494.717 62.4673 495.489 64.9744C497.715 70.2168 498.783 75.9389 498.609 81.6956C498.609 87.506 504.709 82.1506 502.51 71.6856C501.727 67.4803 500.136 63.4953 497.841 59.983C496.112 57.8637 493.985 56.1584 491.601 54.978C490.82 55.7788 490.039 57.435 490.82 58.2859Z" fill="#3B89A0"/>
<path d="M286.47 533.133C284.907 533.97 284.118 531.441 285.689 530.626C297.316 524.602 442.461 467.927 444.027 467.09C437.791 449.532 390.99 319.119 389.432 312.431C389.292 312.035 389.077 311.674 388.8 311.372C388.524 311.07 388.191 310.833 387.825 310.675C387.458 310.518 387.065 310.444 386.67 310.458C386.275 310.472 385.887 310.574 385.531 310.757C368.373 323.296 264.638 362.59 262.299 363.427C236.553 334.166 158.564 329.98 125.796 345.869C125.294 346.03 124.853 346.36 124.54 346.811C124.226 347.262 124.057 347.809 124.057 348.371C124.057 348.934 124.226 349.481 124.54 349.932C124.853 350.383 125.294 350.713 125.796 350.874C133.539 353.44 138.786 364.792 139.839 365.921C111.758 375.931 85.7703 392.47 68.0983 417.75C45.3367 450.291 43.0528 471.322 7.26324 594.981C7.21081 595.436 7.25331 595.897 7.38767 596.331C7.52203 596.765 7.74488 597.162 8.04008 597.493C25.2026 600.837 43.1377 601.67 60.3003 605.014C58.9419 564.314 59.6211 518.232 69.6393 478.779C73.6928 460.684 79.9889 443.253 88.3597 426.95C89.1408 426.113 90.6987 426.95 89.9219 427.783C85.3885 437.619 81.9833 448.008 79.7806 458.723C61.0813 518.846 67.6272 604.295 68.8624 667.718C69.0407 676.913 69.6393 686.113 70.4204 695.309C79.0024 698.176 87.9502 699.585 96.9389 699.486C104.741 699.486 155.418 695.91 173.374 694.481C210.781 691.487 321.567 686.123 340.288 687.792C340.895 687.751 341.468 687.473 341.898 687.012C342.329 686.55 342.588 685.937 342.627 685.285C343.017 663.536 351.206 524.775 351.206 515.57C329.301 519.946 307.679 525.812 286.47 533.133V533.133ZM230.304 450.369C233.228 467.779 239.043 484.486 247.471 499.695C247.776 499.979 248.006 500.344 248.137 500.754C248.268 501.163 248.295 501.603 248.216 502.028C248.137 502.453 247.953 502.847 247.685 503.171C247.417 503.495 247.074 503.737 246.69 503.872C245.132 503.872 243.57 500.528 242.793 499.695C239.673 494.69 236.553 488.825 233.433 482.974C228.737 470.948 225.595 458.291 224.094 445.355C221.224 420.826 229.188 396.451 238.132 385.163C238.845 384.253 249.054 374.293 248.273 377.637C247.492 380.144 244.3 382.578 242.814 384.326C239.05 389.309 236.145 394.971 234.235 401.047C228.912 416.834 227.557 433.843 230.304 450.369V450.369ZM206.108 362.59C211.13 363.057 215.832 365.429 219.369 369.279C219.516 369.486 219.613 369.729 219.652 369.986C219.692 370.243 219.672 370.506 219.595 370.753C219.518 371 219.386 371.223 219.211 371.403C219.035 371.583 218.821 371.714 218.588 371.786C206.74 371.786 208.039 365.097 158.53 365.097C156.972 365.097 157.753 363.427 158.53 363.427C169.405 362.531 194.952 360.593 206.133 362.59H206.108Z" fill="#D63037"/>
<path d="M544.634 1.43829C527.267 1.43829 431.916 -0.318007 416.723 1.43829C408.157 2.43019 398.784 3.94535 392.527 11.4483C389.072 15.3417 386.883 20.3274 386.287 25.6625C385.472 36.5119 385.472 47.4139 386.287 58.2632C387.008 67.4679 386.966 76.7636 394.085 84.1983C407.936 98.6218 431.513 91.3054 448.684 91.724C448.995 91.724 449.293 91.5917 449.512 91.3561C449.732 91.1206 449.855 90.8012 449.855 90.4681C449.855 90.1351 449.732 89.8157 449.512 89.5802C449.293 89.3447 448.995 89.2123 448.684 89.2123C441.663 89.2123 433.865 88.3797 426.843 88.3797C413.081 88.3797 400.151 88.0021 394.085 75.0027C390.188 66.6444 390.965 55.7744 390.965 46.5788C390.965 38.2205 390.188 26.5133 394.085 18.9922C397.982 11.471 406.582 8.29969 414.367 7.28504C424.985 6.03927 435.664 5.48164 446.345 5.6152C564.598 5.6152 571.963 5.24665 575.036 5.6152C578.951 6.34959 582.69 7.91031 586.037 10.2067C589.384 12.5031 592.272 15.4894 594.534 18.9922C599.084 27.3068 600.738 37.0808 599.203 46.5788C599.012 47.8164 598.125 67.1176 593.744 75.0027C586.973 87.1831 561.55 87.5698 555.539 88.3797H541.496C540.72 88.3797 537.6 88.3797 538.376 90.0496H539.158C550.832 91.1984 562.581 91.1984 574.255 90.0496C582.058 89.2124 589.856 87.5425 594.534 80.854C599.203 75.0027 599.886 67.4634 600.774 59.9559C601.638 54.1441 602.16 48.2796 602.336 42.3974C602.726 37.111 602.726 31.7998 602.336 26.5133C601.322 21.9118 599.407 17.5939 596.718 13.8465C594.028 10.0991 590.625 7.00781 586.735 4.778C583.008 2.776 570.668 1.43829 544.634 1.43829Z" fill="#3B89A0"/>
<path d="M677.226 265.616C694.338 267.356 711.552 267.634 728.705 266.449C735.078 266.487 741.409 265.356 747.426 263.104C750.578 261.717 753.442 259.672 755.852 257.089C758.262 254.506 760.169 251.437 761.464 248.058C762.725 243.734 763.252 239.204 763.022 234.681C763.022 224.621 763.243 222.851 762.245 219.634C762.245 218.797 760.683 218.797 760.683 219.634C759.621 223.425 759.355 227.421 759.902 231.336C759.813 235.565 759.291 239.77 758.344 243.876C757.592 247.174 756.147 250.244 754.119 252.853C752.092 255.461 749.535 257.539 746.645 258.928C740.82 260.848 734.793 261.972 728.705 262.272C722.465 262.272 715.444 263.104 709.208 263.104C699.067 263.104 688.149 263.104 678.007 263.942C676.454 264.779 676.454 265.616 677.226 265.616Z" fill="#3B89A0"/>
<path d="M495.498 441.173C524.516 441.851 606.11 443.967 624.189 442.01C632.764 441.1 641.445 440.491 648.385 435.322C657.092 428.824 658.527 418.601 658.527 408.568C660.416 376.14 660.789 353.176 630.446 350.888C614.867 349.709 599.25 350.888 582.868 350.888C541.581 350.888 544.239 351.72 536.852 351.72C536.542 351.72 536.244 351.852 536.024 352.088C535.804 352.324 535.681 352.643 535.681 352.976C535.681 353.309 535.804 353.628 536.024 353.864C536.244 354.099 536.542 354.232 536.852 354.232C539.972 354.232 545.432 354.996 549.333 355.064C572.74 355.483 596.125 353.445 619.528 355.064C632.004 355.929 648.534 355.852 653.063 371.786C657.092 385.954 656.167 405.224 653.84 419.438C650.699 438.662 623.421 437.674 609.382 437.829C571.177 438.248 533.728 436.992 495.51 438.666C494.716 439.503 494.716 441.155 495.498 441.173Z" fill="#3B89A0"/>
<path d="M780.18 373.455C762.865 371.603 667.688 373.123 665.527 374.293C663.969 375.13 666.308 424.452 667.87 424.452C687.397 422.955 781.212 422.095 788.764 420.275C798.175 418 803.579 406.898 803.579 396.865C804.36 383.488 791.884 375.13 780.18 373.455Z" fill="#D63037"/>
<path d="M456.499 199.573C434.734 197.2 412.848 196.361 390.982 197.061C380.063 197.061 369.145 197.061 358.227 197.898C352.755 197.759 347.281 198.039 341.846 198.735C336.633 198.56 331.416 198.839 326.245 199.568C321.906 200.633 317.899 202.889 314.618 206.113C311.337 209.338 308.894 213.422 307.529 217.964C304.409 226.322 308.331 235.49 314.546 241.369C321.578 247.444 330.499 250.433 339.507 249.732C379.206 249.732 405.147 250.018 445.581 247.22C447.139 247.22 447.139 243.876 445.581 244.713C414.675 246.675 383.696 246.955 352.764 245.55C344.185 245.55 334.086 246.26 325.468 243.043C318.481 240.432 310.649 233.033 310.649 223.815C311.011 219.483 312.646 215.385 315.319 212.112C317.794 207.896 321.717 204.892 326.241 203.75C335.733 202.057 345.556 203.777 356.661 202.08C375.869 202.08 342.177 201.242 457.267 201.242C457.28 200.787 457.28 200.405 456.499 199.573Z" fill="#3B89A0"/>
<path d="M794.223 25.6852C786.463 20.5801 777.06 21.4901 767.721 21.4901C616.107 21.4901 608.61 22.1226 608.61 25.6716C608.608 40.198 607.825 54.7122 606.267 69.1423C605.968 69.3482 605.737 69.6492 605.607 70.003C605.476 70.3567 605.452 70.7455 605.539 71.1145C605.625 71.4836 605.817 71.8144 606.087 72.0605C606.358 72.3066 606.694 72.4556 607.048 72.4865C650.809 75.1665 705.884 72.664 773.961 71.6493C780.978 71.5447 788.78 71.6493 795.016 66.6443C810.396 57.4806 811.249 36.86 794.223 25.6852Z" fill="#D63037"/>
<path d="M798.901 207.094C791.884 199.573 766.142 197.898 766.142 201.243C766.142 214.62 766.142 245.55 767.704 247.22C769.785 248.649 772.271 249.242 774.721 248.895C779.711 249.128 784.706 248.564 789.54 247.22C793.456 246.066 797.024 243.841 799.896 240.764C802.767 237.687 804.844 233.863 805.922 229.666C806.383 225.581 805.993 221.438 804.779 217.534C803.565 213.63 801.557 210.065 798.901 207.094V207.094Z" fill="#D63037"/>
<path d="M759.902 192.884C747.167 172.409 720.686 177 702.968 177C692.826 177 681.908 177 671.767 176.163C606.946 176.163 576.255 172.587 563.354 179.507C560.658 180.483 558.169 182.019 556.027 184.027C553.886 186.035 552.134 188.476 550.874 191.21C549.705 193.546 548.888 196.066 548.454 198.676C537.774 198.654 532.467 198.399 531.376 199.586V202.093C532.445 203.138 533.831 203.731 535.278 203.763C542.893 203.763 546.141 204.009 547.834 204.036C547.571 208.332 547.754 212.618 547.754 216.321C547.137 226.696 547.891 237.113 549.995 247.261C536.797 247.261 535.732 247.016 533.715 248.099L533.821 251.443C534.246 251.898 531.86 251.443 551.442 251.443C552.559 254.272 554.186 256.836 556.23 258.988C558.274 261.14 560.695 262.837 563.354 263.983C571.776 266.99 577.163 266.49 613.271 266.49C644.022 266.49 664.211 265.58 668.647 265.657C668.958 265.657 669.256 265.525 669.475 265.289C669.695 265.054 669.819 264.734 669.819 264.401C669.819 264.068 669.695 263.749 669.475 263.513C669.256 263.278 668.958 263.145 668.647 263.145C663.977 263.145 658.51 262.313 653.828 262.313H605.473C592.211 262.313 574.272 265.657 562.573 258.968C559.29 256.778 556.617 253.682 554.834 250.005C553.051 246.328 552.222 242.204 552.436 238.066C551.655 225.526 550.097 208.809 553.213 196.265C554.293 193 556.182 190.11 558.676 187.907C569.191 176.636 591.931 179.548 721.684 179.548C731.825 179.548 741.962 179.548 749.765 185.4C753.493 188.126 756.423 191.929 758.217 196.368C760.011 200.807 760.595 205.699 759.902 210.479C760.683 211.316 760.683 211.316 761.464 210.479C762.581 207.637 763.023 204.541 762.75 201.471C762.478 198.4 761.499 195.45 759.902 192.884Z" fill="#3B89A0"/>
<path d="M591.435 205.424C585.067 225.84 592.993 245.714 592.993 238.024C593.948 234.953 594.877 198.03 591.435 205.424Z" fill="#3B89A0"/>
<path d="M621.069 202.912C619.587 208.477 620.292 212.158 620.292 230.503C620.292 235.645 620.649 238.025 624.189 238.025C626.375 236.464 625.751 235.19 625.751 221.308C625.751 194.322 620.135 202.912 621.069 202.912Z" fill="#3B89A0"/>
<path d="M656.948 238.025C658.323 235.818 656.587 191.988 651.489 202.912C651.913 202.912 650.134 245.35 656.948 238.025Z" fill="#3B89A0"/>
<path d="M681.908 203.75C681.05 212.914 680.789 222.132 681.127 231.336C681.127 233.848 681.127 238.025 682.689 239.699C683.466 240.536 684.812 240.5 685.028 239.699C685.71 236.692 685.972 233.593 685.805 230.504C686.133 221.274 685.611 212.032 684.247 202.912C684.247 202.08 681.908 202.08 681.908 203.75Z" fill="#3B89A0"/>
<path d="M715.444 204.587C715.444 205.042 712.969 234.617 717.787 238.862C723.458 243.844 720.712 216.23 720.194 212.813C717.982 198.199 715.508 202.767 715.444 204.587Z" fill="#3B89A0"/>
<path d="M427.641 30.6991C424.784 39.8901 427.098 39.7218 425.302 47.4204C425.302 52.4254 424.521 59.123 426.86 63.3044C427.641 64.9743 429.203 64.1371 429.203 63.3044C430.184 60.1467 429.98 58.7544 429.98 39.0575C429.98 36.5504 429.203 34.0525 429.203 30.6991C429.98 29.8619 428.422 29.0247 427.641 30.6991Z" fill="#3B89A0"/>
<path d="M457.28 28.1923C455.658 37.278 455.134 46.5498 455.722 55.7789C455.722 58.286 455.722 62.4674 458.061 63.3046H459.619C461.958 61.6302 461.181 58.2996 461.181 55.7789C461.753 46.5496 461.228 37.2797 459.619 28.1923C458.838 27.3551 457.28 26.5179 457.28 28.1923Z" fill="#3B89A0"/>
<path d="M518.115 29.025C517.259 38.1916 517 47.4109 517.338 56.6162C517.338 59.1232 517.338 63.3047 518.896 64.9745C519.677 65.8117 521.18 65.8845 521.409 65.0701C522.031 62.021 522.236 58.8912 522.016 55.779C522.344 46.5509 521.822 37.3107 520.458 28.1923C520.458 27.3551 518.115 27.3551 518.115 29.025Z" fill="#3B89A0"/>
<path d="M551.651 29.8622C551.651 30.3172 548.925 72.0771 556.32 64.1374C558.935 59.9423 555.327 34.6033 553.981 29.025C553.625 27.4962 551.651 28.1924 551.651 29.8622Z" fill="#3B89A0"/>
<path d="M555.556 379.311C554.945 383.898 555.297 412.008 558.676 414.424C558.812 414.618 558.989 414.775 559.192 414.884C559.395 414.992 559.619 415.049 559.846 415.049C560.072 415.049 560.296 414.992 560.499 414.884C560.702 414.775 560.879 414.618 561.015 414.424C563.49 410.443 559.436 382.169 558.676 379.311C558.676 377.637 556.32 377.637 555.556 379.311Z" fill="#3B89A0"/>
<path d="M585.971 380.981C585.116 390.146 584.856 399.364 585.195 408.568C585.195 411.079 585.195 415.256 586.752 416.931C587.534 417.763 589.091 417.763 589.091 416.931C590.654 414.424 589.873 411.079 589.873 407.735C590.2 398.505 589.678 389.264 588.315 380.144C588.315 378.474 585.971 379.311 585.971 380.981Z" fill="#3B89A0"/>
<path d="M624.97 406.06C624.745 397.325 623.699 388.636 621.85 380.126C621.358 378.415 619.91 379.143 619.511 380.963C618.892 383.981 618.63 387.07 618.73 390.158C618.73 399.053 618.204 404.104 618.73 407.448C618.751 408.903 619.04 410.338 619.579 411.673C620.118 413.008 620.897 414.217 621.871 415.229C622.007 415.424 622.184 415.582 622.387 415.691C622.59 415.8 622.814 415.857 623.041 415.857C623.268 415.857 623.492 415.8 623.695 415.691C623.898 415.582 624.074 415.424 624.21 415.229C625.751 412.749 624.97 409.405 624.97 406.06Z" fill="#3B89A0"/>
<path d="M527.475 391.014C527.475 395.195 526.694 399.372 526.694 403.553V412.749C526.694 414.423 528.256 415.256 529.814 415.256C535.413 415.256 531.113 400.419 529.814 391.851C529.419 389.239 527.475 390.176 527.475 391.014Z" fill="#3B89A0"/>
<path d="M383.973 24.0111C380.644 23.234 377.232 22.9523 373.832 23.1739C357.442 23.5925 340.296 21.504 323.915 24.0111C318.514 25.093 313.587 28.0264 309.877 32.3694C306.681 36.7992 304.948 42.2402 304.948 47.8394C304.948 53.4386 306.681 58.8796 309.877 63.3094C319.521 76.6546 340.653 71.6678 362.914 71.6678C369.148 71.2492 375.4 71.2492 381.634 71.6678C382.116 71.6138 382.563 71.3702 382.887 70.9841C383.212 70.598 383.391 70.0967 383.391 69.577C383.391 69.0573 383.212 68.556 382.887 68.1699C382.563 67.7838 382.116 67.5403 381.634 67.4863C376.96 67.0973 372.265 67.0973 367.592 67.4863C362.141 68.3963 355.892 68.3235 350.433 69.1607C333.967 69.1607 325.354 70.048 318.456 65.8165C314.291 62.9739 311.315 58.5134 310.152 53.3703C308.988 48.2272 309.728 42.8011 312.216 38.2298C316.885 29.8669 326.254 28.1971 334.837 28.1971C348.094 27.3599 361.356 29.0297 374.613 28.1971C378.012 28.335 381.415 28.0541 384.754 27.3599C384.746 25.6855 384.746 24.8483 383.973 24.0111Z" fill="#3B89A0"/>
<path d="M489.593 28.8246C489.413 29.9976 489.301 31.1813 489.257 32.369C489.257 40.0312 489.011 41.3007 490.038 42.4018C491.473 43.9397 493.159 40.1268 493.159 39.0575C493.434 35.6635 493.262 32.2448 492.649 28.9019C492.369 27.8964 489.801 27.5779 489.593 28.8246Z" fill="#3B89A0"/>
<path d="M222.514 268.96C223.3 270.193 224.344 271.213 225.562 271.938C226.78 272.663 228.139 273.074 229.531 273.137C233.432 273.137 234.201 275.644 231.87 277.318C230.104 278.269 228.064 278.452 226.175 277.828C224.286 277.205 222.695 275.825 221.733 273.974C219.042 269.465 219.394 265.616 222.514 268.96Z" fill="#3B89A0"/>
<path d="M213.154 217.14C211.921 216.966 210.668 217.192 209.556 217.788C208.444 218.384 207.524 219.323 206.914 220.485C204.575 223.829 202.622 223.069 203.013 219.647C203.123 217.543 204.005 215.571 205.467 214.162C206.929 212.753 208.851 212.021 210.815 212.126C216.296 212.113 217.051 216.289 213.154 217.14Z" fill="#3B89A0"/>
<path d="M210.034 229.666C210.034 230.775 210.692 231.839 211.862 232.623C213.032 233.407 214.619 233.848 216.274 233.848C217.929 233.848 219.516 233.407 220.687 232.623C221.857 231.839 222.514 230.775 222.514 229.666C222.514 228.557 221.857 227.494 220.687 226.71C219.516 225.925 217.929 225.485 216.274 225.485C214.619 225.485 213.032 225.925 211.862 226.71C210.692 227.494 210.034 228.557 210.034 229.666V229.666Z" fill="#3B89A0"/>
</svg>
