<svg width="207" height="233" viewBox="0 0 207 233" fill="none" xmlns="http://www.w3.org/2000/svg">
<path fill-rule="evenodd" clip-rule="evenodd" d="M100.472 223.571C99.8775 222.822 99.8774 221.793 100.472 221.27C105.09 217.213 109.836 213.474 114.49 209.808C117.826 207.18 121.115 204.59 124.274 201.946C131.923 195.547 139.076 188.64 145.167 179.568C156.07 163.328 163.306 143.933 163.081 122.093C162.965 110.828 160.149 97.8109 154.564 86.4452C148.986 75.0919 140.713 65.5071 129.693 60.802C124.104 58.4153 118.037 57.2423 111.961 57.1729C116.268 62.1589 120.087 67.8413 123.255 74.3237C130.761 89.6791 124.896 102.76 114.717 109.685C104.579 116.583 89.5854 117.818 77.8811 108.99C71.5856 104.242 67.9831 98.1404 66.9344 91.7637C65.8938 85.4358 67.3962 79.0274 70.9486 73.5492C76.666 64.7324 86.2605 58.5576 96.988 55.6884C99.6441 54.978 102.379 54.4678 105.152 54.171C92.3454 41.8246 75.9865 34.5842 59.5477 30.1935C58.7092 29.9696 58.0785 29.071 58.1389 28.1866C58.1992 27.3022 58.9279 26.7668 59.7663 26.9907C77.289 31.6709 95.2178 39.6692 108.969 53.8993C116.198 53.6433 123.559 54.851 130.352 57.7515C142.419 62.9039 151.318 73.3475 157.198 85.316C163.073 97.2719 166.004 110.87 166.125 122.636C166.359 145.278 158.858 165.236 147.735 181.802C141.46 191.148 134.117 198.222 126.383 204.693C123.09 207.449 119.77 210.062 116.434 212.688C111.853 216.293 107.242 219.922 102.625 223.98C102.03 224.502 101.067 224.319 100.472 223.571ZM108.19 57.2706C104.802 57.4845 101.44 58.0362 98.1864 58.9064C87.9084 61.6553 78.8616 67.5424 73.5395 75.7496C70.2881 80.7636 69.0518 86.4147 69.9296 91.7527C70.7995 97.0421 73.7726 102.213 79.3022 106.384C89.5803 114.136 103.258 113.287 112.795 106.798C122.292 100.336 127.108 88.7257 120.617 75.4451C117.21 68.4753 112.998 62.463 108.19 57.2706Z" fill="#D63037"/>
<path fill-rule="evenodd" clip-rule="evenodd" d="M110.046 223.677C110.377 224.567 110.018 225.457 109.243 225.664C109.163 225.685 109.047 225.717 108.901 225.756C107.783 226.059 104.879 226.846 102.087 227.458C100.516 227.802 98.9317 228.102 97.7018 228.225C97.1027 228.284 96.4972 228.312 95.9888 228.248C95.7492 228.218 95.393 228.153 95.0312 227.965C94.6411 227.761 93.9932 227.26 93.813 226.353C93.5565 225.063 93.9105 223.867 94.3007 222.947C94.7076 221.988 95.2878 221.036 95.7913 220.216L95.8323 220.149C96.3476 219.31 96.7657 218.629 97.0135 218.048C97.112 217.818 97.1584 217.658 97.178 217.559C96.8684 216.784 97.0839 215.955 97.7175 215.624C98.4183 215.258 99.3653 215.641 99.8327 216.478C100.23 217.19 100.277 217.891 100.221 218.423C100.166 218.947 100.002 219.433 99.8242 219.85C99.495 220.621 98.9818 221.456 98.5156 222.214C98.484 222.265 98.4527 222.316 98.4216 222.367C97.9011 223.214 97.4285 224.001 97.1139 224.742C97.0891 224.801 97.066 224.857 97.0444 224.912C98.1043 224.796 99.5108 224.532 100.996 224.206C103.72 223.609 106.556 222.841 107.687 222.535C107.837 222.494 107.958 222.462 108.044 222.439C108.818 222.232 109.715 222.786 110.046 223.677ZM95.7539 224.951C95.754 224.951 95.7576 224.952 95.7645 224.953C95.7572 224.952 95.7538 224.951 95.7539 224.951Z" fill="#D63037"/>
</svg>
