<svg width="663" height="830" viewBox="0 0 663 830" fill="none" xmlns="http://www.w3.org/2000/svg">
<path d="M189.85 660.032C189.85 660.032 143.228 672.894 173.718 700.122C214.562 736.58 465.467 727.935 465.467 727.935C465.467 727.935 584.199 730.987 593.019 688.232C593.019 688.232 582.088 652.746 557.154 657.542C532.219 662.338 490.21 674.804 490.21 674.804C490.21 674.804 522.614 703.458 452.614 692.832C406.188 685.787 257.722 675.955 257.722 675.955C257.722 675.955 203.274 666.136 189.85 660.032Z" fill="#D63037"/>
<path d="M422.709 269.106C424.23 283.31 425.76 286.58 426.737 294.232C427.022 295.713 426.83 297.246 426.189 298.611C425.548 299.976 424.491 301.103 423.169 301.829C421.848 302.556 420.33 302.845 418.834 302.655C417.338 302.465 415.941 301.806 414.843 300.772C413.5 299.429 411.198 301.156 412.349 302.691C416.378 309.021 425.8 311.145 429.998 303.65C431.591 300.089 431.929 296.092 430.958 292.314C429.693 284.44 427.797 276.417 425.778 268.722C425.368 267.196 422.521 267.379 422.709 269.106Z" fill="#3B89A0"/>
<path d="M428.655 276.012C434.171 281.431 445.533 280.616 448.219 272.559C448.794 270.815 446.688 270.069 445.533 271.024C443.776 272.9 441.61 274.345 439.202 275.245C436.197 275.896 433.057 275.418 430.382 273.902C429.039 273.134 427.496 274.87 428.655 276.012Z" fill="#3B89A0"/>
<path d="M387.031 279.081C392.154 285.495 403.163 287.714 409.088 281C410.047 280.041 409.088 277.739 407.553 278.506C404.683 280.122 401.394 280.84 398.111 280.567C394.829 280.293 391.704 279.041 389.141 276.971C387.82 275.982 386.098 277.909 387.031 279.081Z" fill="#3B89A0"/>
<path d="M429.615 260.281C434.075 255.725 440.358 257.028 445.725 254.53C446.32 254.172 446.799 253.649 447.105 253.025C447.411 252.402 447.531 251.703 447.45 251.013C447.369 250.323 447.091 249.671 446.649 249.135C446.207 248.598 445.62 248.201 444.958 247.99C440.867 247.287 436.661 247.822 432.876 249.525C429.379 250.749 426.447 253.204 424.627 256.431C424.221 257.098 424.075 257.89 424.218 258.657C424.36 259.424 424.78 260.112 425.398 260.589C426.015 261.065 426.787 261.298 427.565 261.241C428.343 261.184 429.073 260.842 429.615 260.281V260.281Z" fill="#3B89A0"/>
<path d="M409.28 259.514C405.279 257.727 400.822 257.229 396.525 258.089C392.229 258.948 388.306 261.122 385.3 264.31C383.556 266.42 385.086 270.972 388.352 269.681C391.333 268.308 394.411 267.154 397.56 266.228C400.926 265.755 404.325 265.563 407.723 265.652C408.427 265.611 409.1 265.346 409.644 264.897C410.187 264.447 410.574 263.836 410.747 263.152C410.921 262.469 410.872 261.747 410.608 261.093C410.344 260.439 409.879 259.886 409.28 259.514V259.514Z" fill="#3B89A0"/>
<path d="M395.663 316.294C397.586 318.525 400.104 320.161 402.924 321.011C405.744 321.86 408.747 321.888 411.582 321.09C412.929 320.519 412.541 318.217 411.198 317.833C408.896 317.449 406.603 317.619 404.296 317.066C401.913 316.308 399.651 315.21 397.582 313.804C395.864 312.823 394.547 314.921 395.663 316.294Z" fill="#3B89A0"/>
<path d="M374.182 8.81816C370.182 27.2903 371.174 46.4942 377.055 64.4561C377.113 64.676 377.214 64.882 377.353 65.062C377.492 65.2421 377.666 65.3924 377.864 65.5041C378.062 65.6158 378.28 65.6867 378.506 65.7125C378.732 65.7383 378.961 65.7186 379.179 65.6544C379.397 65.5902 379.6 65.483 379.776 65.339C379.952 65.1949 380.097 65.0171 380.203 64.8159C380.309 64.6148 380.374 64.3944 380.393 64.1678C380.413 63.9413 380.386 63.7131 380.316 63.4969C377.05 45.0498 374.373 28.3946 377.055 9.5986C377.438 7.85896 374.543 6.90412 374.182 8.81816Z" fill="#3B89A0"/>
<path d="M360.177 1.9118C354.01 22.8791 355.085 45.3125 363.229 65.594C364.197 68.0835 368.025 66.9281 367.066 64.4429C358.994 44.8521 357.579 23.1526 363.037 2.67916C363.116 2.48354 363.152 2.27355 363.143 2.06303C363.134 1.85252 363.081 1.64625 362.986 1.45783C362.892 1.2694 362.759 1.1031 362.596 0.969887C362.433 0.836671 362.243 0.739563 362.039 0.684964C361.836 0.630366 361.623 0.619517 361.415 0.653131C361.207 0.686744 361.009 0.764057 360.833 0.879976C360.657 0.995894 360.507 1.14779 360.394 1.32564C360.281 1.50349 360.207 1.70327 360.177 1.9118V1.9118Z" fill="#3B89A0"/>
<path d="M345.981 28.9569C344.917 46.8028 349.191 64.5614 358.259 79.9689C358.538 80.3764 358.959 80.6651 359.44 80.7784C359.921 80.8918 360.427 80.8216 360.859 80.5817C361.291 80.3418 361.617 79.9494 361.775 79.4812C361.933 79.013 361.91 78.5029 361.712 78.0505C353.819 62.8656 349.551 46.0589 349.242 28.9481C349.242 26.8466 346.173 27.0385 345.981 28.9569Z" fill="#3B89A0"/>
<path d="M354.23 91.2963C293.556 118.625 210.634 160.734 176.229 220.195C140.294 282.304 177.166 352.574 227.241 393.784C255.317 416.749 288.141 433.193 323.344 441.932C323.955 442.11 324.611 442.038 325.168 441.732C325.726 441.427 326.139 440.912 326.318 440.301C326.496 439.691 326.424 439.034 326.118 438.477C325.812 437.919 325.297 437.506 324.687 437.328C264.737 421.671 208.458 384.384 179.874 328.184C163.188 295.384 160.616 257.748 178.531 224.799C211.231 164.631 294.564 123.211 355.573 93.7902C357.492 93.2321 355.952 90.5202 354.23 91.2963Z" fill="#3B89A0"/>
<path d="M423.284 10.5447C429.014 28.5879 431.863 47.4219 431.725 66.3527C431.725 66.8869 431.937 67.3992 432.315 67.777C432.693 68.1548 433.205 68.367 433.739 68.367C434.274 68.367 434.786 68.1548 435.164 67.777C435.541 67.3992 435.754 66.8869 435.754 66.3527C436.716 46.8931 433.443 27.4564 426.162 9.3849C425.986 9.03577 425.686 8.76532 425.321 8.62727C424.955 8.48922 424.551 8.49366 424.189 8.6397C423.826 8.78574 423.532 9.0627 423.365 9.41561C423.197 9.76851 423.168 10.1715 423.284 10.5447V10.5447Z" fill="#3B89A0"/>
<path d="M441.121 17.6383C443.715 32.7124 444.301 48.0638 442.865 63.2919C442.703 65.4021 446.139 65.7858 446.51 63.8674C449.134 48.2287 448.414 32.2115 444.399 16.8709C443.998 14.5689 440.737 15.5324 441.121 17.6383Z" fill="#3B89A0"/>
<path d="M458.194 39.7C458.871 50.2511 458.031 60.8447 455.701 71.1574C454.127 78.4343 447.853 88.9855 449.562 96.2841C450.935 102.222 458.212 104.886 462.799 107.79C518.785 143.233 610.018 206.989 603.971 273.134C598.469 333.302 526.363 389.825 470.084 412.776C467.215 413.945 468.563 418.745 471.427 417.572C525.129 395.576 584.373 353.114 603.779 295.772C629.992 218.338 540.677 153.173 472.194 108.37C460.789 100.91 459.55 101.167 456.852 94.5619C453.8 87.0845 455.862 89.5043 459.154 73.8432C461.427 62.5504 462.137 50.9987 461.264 39.5125C461.222 39.1183 461.03 38.7553 460.728 38.4992C460.425 38.2432 460.035 38.1137 459.64 38.1379C459.244 38.162 458.873 38.338 458.604 38.629C458.334 38.92 458.188 39.3037 458.194 39.7V39.7Z" fill="#3B89A0"/>
<path d="M389.716 20.7079C389.544 20.1966 389.182 19.7712 388.705 19.5202C388.227 19.2692 387.671 19.2118 387.153 19.36C386.634 19.5082 386.192 19.8506 385.919 20.3159C385.647 20.7813 385.564 21.3339 385.688 21.8589C391.068 46.9856 398.742 73.6557 383.194 96.6678C369.97 116.24 349.068 131.6 331.981 147.497C299.203 178.043 264.92 209.858 240.622 248.073C238.132 245.731 235.09 244.057 231.779 243.208C228.468 242.359 224.996 242.362 221.686 243.216C220.339 243.574 220.535 246.434 222.266 246.268C225.431 245.965 228.624 246.291 231.662 247.227C233.69 248.043 235.589 249.148 237.299 250.51C237.18 250.808 237.155 251.135 237.225 251.448C249.76 312.976 291.015 356.476 325.842 367.912C326.335 368.058 326.863 368.021 327.33 367.808C327.797 367.595 328.171 367.22 328.384 366.753C328.596 366.285 328.633 365.757 328.486 365.265C328.339 364.773 328.02 364.35 327.586 364.075C304.967 351.771 285.399 338.748 269.851 317.659C255.986 298.054 246.035 275.957 240.543 252.581C240.831 252.59 241.117 252.529 241.378 252.405C241.638 252.28 241.864 252.096 242.039 251.866C272.995 210.054 309.157 174.546 347.342 139.461C363.639 124.493 384.554 109.155 392.995 88.0568C401.436 66.9587 396.091 41.7231 389.716 20.7079Z" fill="#3B89A0"/>
<path d="M562.538 236.305C559.416 235.692 556.19 235.87 553.154 236.824C550.118 237.777 547.37 239.476 545.159 241.764C512.372 209.947 481.416 176.296 452.439 140.974C437.502 122.353 422.791 103.94 417.145 80.1695C411.647 56.9482 414.093 33.9535 413.692 10.3529C413.662 8.43446 410.383 7.65838 410.047 9.77298C406.664 31.9429 407.184 54.5336 411.582 76.5246C416.208 99.1573 427.871 117.012 441.888 135.027C472.269 174.075 506.094 213.167 543.995 245.431C537.42 255.524 531.861 266.433 525.33 276.588C517.974 287.081 509.41 296.673 499.815 305.167C485.379 319.119 471.619 333.747 457.235 347.56C455.892 349.304 458.195 351.584 459.537 350.053C474.688 335.857 489.076 320.898 504.227 306.51C522.457 288.435 537.618 267.508 549.114 244.555C549.184 244.423 549.241 244.284 549.284 244.14C553.07 241.185 557.734 239.575 562.538 239.567C564.265 239.349 564.077 236.676 562.538 236.305Z" fill="#3B89A0"/>
<path d="M408.704 554.908C408.704 550.666 403.529 550.657 403.529 554.908C403.132 558.361 408.704 558.361 408.704 554.908Z" fill="#3B89A0"/>
<path d="M501.542 262.4C497.041 261.984 492.506 262.641 488.309 264.318C486.774 264.894 485.815 262.4 487.158 261.637C491.617 259.176 496.641 257.92 501.734 257.992C502.241 256.934 502.824 255.914 503.478 254.94C504.676 252.489 505.32 249.805 505.365 247.077C505.41 244.35 504.855 241.646 503.739 239.157C502.623 236.668 500.973 234.455 498.906 232.674C496.84 230.894 494.407 229.59 491.78 228.854C493.33 223.962 493.853 218.802 493.314 213.699C492.956 211.161 491.854 208.786 490.146 206.874C488.439 204.962 486.204 203.598 483.722 202.956C480.269 202.38 475.591 203.575 473.939 200.462C473.465 199.308 473.268 198.06 473.363 196.817C473.116 194.373 472.352 192.01 471.122 189.884C469.892 187.758 468.224 185.918 466.229 184.485C464.234 183.053 461.958 182.06 459.55 181.574C457.143 181.088 454.659 181.119 452.265 181.666C450.1 184.24 448.941 187.511 449.004 190.874C448.976 191.235 448.825 191.575 448.575 191.837C448.326 192.099 447.993 192.267 447.634 192.312C447.275 192.358 446.912 192.277 446.605 192.085C446.298 191.893 446.068 191.601 445.952 191.258C445.604 188.905 445.766 186.505 446.428 184.221C447.09 181.937 448.236 179.823 449.788 178.021C447.731 165.678 433.8 158.131 417.372 164.98C416.6 160.936 414.571 157.238 411.576 154.413C408.58 151.589 404.769 149.782 400.686 149.249C396.592 148.876 392.471 149.584 388.736 151.3C385 153.017 381.78 155.683 379.396 159.033C375.629 156.409 371.156 154.987 366.565 154.955C361.975 154.924 357.482 156.284 353.679 158.856C349.877 161.428 346.943 165.091 345.263 169.364C343.584 173.637 343.238 178.318 344.272 182.791C348.557 186.219 351.754 190.817 353.476 196.028C354.017 197.571 351.584 198.508 350.982 197.174C349.415 193.817 347.15 190.832 344.339 188.418C341.528 186.004 338.236 184.217 334.68 183.174C310.765 181.919 297.254 199.202 299.386 213.864C296.103 214.218 292.951 215.342 290.185 217.146C287.419 218.949 285.119 221.381 283.472 224.243C281.825 227.104 280.878 230.314 280.707 233.612C280.537 236.909 281.148 240.2 282.491 243.216C274.822 246.477 266.573 250.89 263.503 258.751C260.451 267 264.079 276.4 268.683 283.882C272.711 290.596 278.467 297.498 286.123 299.224C289.862 296.537 294.007 294.465 298.401 293.086C299.735 292.676 300.894 294.62 299.743 295.388C292.288 301.186 288.451 301.688 285.739 305.747C285.511 310.038 286.463 314.309 288.493 318.096C290.522 321.884 293.551 325.042 297.249 327.229C302.11 329.659 307.441 331.003 312.873 331.169C318.304 331.334 323.707 330.317 328.707 328.188C329.132 332.534 330.78 336.671 333.46 340.119C336.14 343.567 339.741 346.185 343.848 347.669C347.955 349.154 352.398 349.445 356.663 348.508C360.928 347.571 364.841 345.445 367.947 342.375C368.644 351.196 369.12 360.046 369.203 369.045C369.203 372.097 374.121 372.097 373.999 369.045C373.188 349.046 373.789 328.131 368.274 308.755C369.49 307.134 368.274 304.195 365.941 304.98C359.401 307.282 349.251 304.212 348.868 295.968C348.951 294.324 349.362 292.713 350.076 291.23C350.789 289.747 351.792 288.422 353.025 287.332C354.258 286.241 355.696 285.408 357.255 284.881C358.814 284.353 360.463 284.143 362.104 284.261C362.44 284.254 362.764 284.138 363.028 283.931C363.292 283.724 363.482 283.437 363.568 283.113C363.655 282.789 363.634 282.445 363.508 282.134C363.383 281.823 363.159 281.561 362.872 281.388C362.062 280.997 361.202 280.718 360.317 280.559C360.805 279.769 361.09 278.87 361.145 277.943C361.914 270.561 364.555 263.496 368.819 257.421C370.225 255.661 372.05 254.281 374.127 253.41C376.205 252.538 378.468 252.203 380.709 252.433C382.078 252.609 383.463 252.247 384.571 251.422C385.679 250.598 386.423 249.375 386.647 248.012C387.075 246.237 387.877 244.573 388.997 243.131C390.118 241.689 391.533 240.502 393.148 239.649C394.763 238.796 396.541 238.297 398.364 238.184C400.187 238.072 402.013 238.348 403.721 238.995C404.249 239.186 404.81 239.267 405.37 239.234C405.93 239.201 406.478 239.055 406.98 238.803C407.482 238.552 407.928 238.202 408.29 237.773C408.652 237.344 408.924 236.846 409.088 236.31C409.528 234.79 410.267 233.373 411.262 232.142C412.256 230.912 413.486 229.891 414.879 229.141C416.272 228.391 417.801 227.926 419.376 227.773C420.951 227.621 422.54 227.784 424.051 228.252C425.35 228.662 426.754 228.577 427.994 228.014C429.233 227.45 430.221 226.448 430.766 225.2C431.192 223.752 431.968 222.431 433.026 221.353C434.083 220.275 435.388 219.474 436.828 219.019C438.268 218.564 439.797 218.47 441.282 218.745C442.766 219.02 444.16 219.656 445.341 220.596C450.137 224.237 450.329 230.188 451.48 235.555C457.684 262.178 465.271 292.044 452.439 316.503C446.284 327.901 435.962 336.48 423.63 340.448C411.298 344.415 397.91 343.464 386.263 337.793C384.367 336.795 383.002 339.328 384.519 340.671C392.231 346.348 401.744 349.027 411.285 348.209C411.697 356.497 412.687 364.746 414.25 372.895C414.294 373.542 414.571 374.151 415.03 374.608C415.488 375.066 416.097 375.342 416.744 375.385C420.581 375.581 424.657 376.588 427.679 373.663C428.007 373.332 428.214 372.9 428.268 372.438C428.322 371.975 428.219 371.507 427.976 371.11C427.733 370.712 427.364 370.407 426.928 370.244C426.491 370.081 426.013 370.069 425.569 370.21C423.348 370.684 421.07 370.83 418.806 370.646C418.2 362.945 417.002 355.303 415.222 347.786C423.906 346.366 432.16 343.016 439.378 337.983C446.595 332.95 452.592 326.362 456.926 318.705C463.122 318.805 469.128 316.558 473.737 312.416C478.346 308.273 481.219 302.541 481.778 296.369C485.604 297.481 489.703 297.183 493.328 295.53C496.954 293.876 499.865 290.976 501.533 287.357C503.131 283.701 503.971 279.759 504.004 275.77C504.037 271.78 503.262 267.826 501.725 264.144C501.925 263.926 501.734 263.159 501.542 262.4ZM328.72 234.387C328.451 234.22 328.249 233.964 328.149 233.664C328.048 233.364 328.055 233.039 328.169 232.744C328.282 232.448 328.495 232.202 328.771 232.047C329.047 231.891 329.368 231.837 329.679 231.893C331.665 232.821 333.825 233.317 336.016 233.348C338.208 233.38 340.381 232.947 342.393 232.077C344.405 231.207 346.21 229.921 347.688 228.303C349.166 226.684 350.284 224.771 350.969 222.689C351.545 221.154 354.078 221.346 354.021 223.073C353.751 235.93 338.377 239.61 328.72 234.387ZM406.978 181.448C399.692 182.407 391.635 186.627 392.786 195.256C392.978 196.791 390.676 197 390.292 195.644C387.798 185.668 397.582 178.762 406.79 178.762C408.129 178.762 408.517 181.256 406.978 181.448V181.448Z" fill="#3B89A0"/>
<path d="M482.746 471.471C482.554 468.785 480.055 469.6 477.374 469.36C464.887 468.24 453.551 427.356 452.247 417.568C449.744 398.105 448.526 378.497 448.602 358.874C448.599 358.274 448.413 357.689 448.068 357.198C447.724 356.707 447.238 356.332 446.676 356.123C446.113 355.915 445.501 355.883 444.92 356.032C444.338 356.18 443.816 356.502 443.423 356.955C440.089 362.248 437.932 368.196 437.096 374.395C433.648 389.608 426.235 403.637 415.61 415.057C412.65 418.348 408.779 420.685 404.488 421.771C393.553 424.261 388.212 416.382 383.769 409.127C378.245 400.084 372.616 391.303 367.083 382.269C360.74 371.923 357.422 368.078 345.597 368.078C345.142 368.09 344.697 368.209 344.296 368.425C343.895 368.641 343.551 368.948 343.29 369.321C343.03 369.694 342.86 370.123 342.795 370.573C342.73 371.024 342.771 371.483 342.916 371.914C353.271 400.302 348.104 478.56 328.144 478.944C326.034 478.987 324.094 491.736 330.446 492.756C357.98 497.169 386.067 502.68 413.692 499.662C436.896 497.125 458.321 496.061 478.717 487.385C479.849 486.925 480.808 486.123 481.462 485.091C482.115 484.059 482.43 482.849 482.362 481.63L482.746 471.471ZM427.888 416.801C416.988 424.906 410.422 440.999 394.129 434.642C379.924 429.1 370.938 408.988 362.863 397.237C361.93 395.877 364.21 394.547 365.165 395.894C372.882 406.794 380.325 422.739 392.197 429.466C409.467 439.233 414.198 420.524 426.34 414.119C426.696 413.914 427.118 413.858 427.515 413.965C427.912 414.071 428.25 414.33 428.455 414.686C428.66 415.042 428.716 415.464 428.609 415.861C428.503 416.257 428.244 416.595 427.888 416.801V416.801Z" fill="#D63037"/>
<path d="M328.912 465.716C328.794 456.967 327.96 448.242 326.418 439.63C325.982 437.14 322.014 438.091 322.581 440.781C324.325 449.021 325.245 457.488 326.226 465.907C326.396 467.255 328.912 467.442 328.912 465.716Z" fill="#3B89A0"/>
<path d="M472.194 446.915C472.929 436.638 473.121 426.33 472.77 416.033C472.77 413.352 468.362 413.347 468.55 416.033C468.741 426.393 468.427 436.761 469.317 446.915C469.317 447.297 469.468 447.663 469.738 447.932C470.008 448.202 470.374 448.354 470.756 448.354C471.137 448.354 471.503 448.202 471.773 447.932C472.043 447.663 472.194 447.297 472.194 446.915Z" fill="#3B89A0"/>
<path d="M772.193 674.023C772.609 673.964 772.989 673.757 773.264 673.44C773.539 673.122 773.691 672.717 773.691 672.297C773.691 671.877 773.539 671.471 773.264 671.154C772.989 670.837 772.609 670.629 772.193 670.57C766.321 670.107 760.492 669.21 754.753 667.884C754.605 661.617 753.408 655.418 751.213 649.546C756.994 650.689 762.925 650.858 768.762 650.048C769.194 650.048 769.609 649.876 769.915 649.57C770.221 649.264 770.392 648.849 770.392 648.417C770.392 647.985 770.221 647.57 769.915 647.264C769.609 646.958 769.194 646.786 768.762 646.786C762.431 646.595 756.096 646.019 749.765 646.019C747.913 641.914 745.635 638.015 742.968 634.387C749.381 634.835 755.814 634.94 762.239 634.7C764.349 634.7 764.354 631.404 762.239 631.247C755.542 630.683 748.814 630.556 742.1 630.868C741.851 630.905 741.611 630.992 741.395 631.123C741.18 631.254 740.992 631.427 740.845 631.631C738.096 628.261 735.073 625.124 731.806 622.253C736.166 621.647 740.526 620.945 744.786 619.933C746.53 619.549 746.316 616.48 744.398 616.672C739.04 617.31 733.719 618.231 728.458 619.432C723.712 615.666 718.67 612.289 713.381 609.334C717.44 608.615 721.456 607.671 725.41 606.504C727.52 605.929 726.557 603.016 724.451 603.243C719.05 603.942 713.719 605.1 708.515 606.705C708.951 606.705 699.848 602.48 693.661 600.034C700.753 597.931 707.602 595.084 714.096 591.541C714.418 591.367 714.663 591.079 714.783 590.734C714.903 590.388 714.89 590.01 714.745 589.674C714.601 589.338 714.336 589.068 714.003 588.918C713.67 588.767 713.293 588.746 712.945 588.859C704.807 591.275 696.922 594.472 689.401 598.408C680.786 595.225 678.501 594.824 678.937 594.824C686.043 591.74 692.978 588.276 699.712 584.447C700.034 584.221 700.267 583.891 700.373 583.512C700.478 583.134 700.449 582.731 700.291 582.371C700.133 582.011 699.855 581.718 699.505 581.54C699.154 581.362 698.753 581.311 698.369 581.395C692.538 583.535 686.913 586.203 681.566 589.365C683.373 585.531 684.038 581.257 683.48 577.054C682.923 572.852 681.167 568.899 678.422 565.669C668.83 554.542 653.483 548.403 639.675 544.741C610.899 537.451 580.789 539.565 551.825 544.549C520.784 549.786 490.268 557.76 460.632 568.376C465.502 561.867 465.131 552.929 466.086 545.124C468.099 531.085 469.06 516.915 468.959 502.732C468.936 502.24 468.724 501.775 468.367 501.435C468.01 501.095 467.536 500.905 467.043 500.905C466.55 500.905 466.076 501.095 465.719 501.435C465.363 501.775 465.15 502.24 465.127 502.732C464.874 519.349 463.657 535.938 461.482 552.414C461.497 556.367 460.714 560.282 459.18 563.925C454.384 572.937 443.833 574.284 434.629 575.047C411.052 576.639 387.386 576.384 363.848 574.284C363.657 574.284 354.256 574.088 354.256 574.284C352.512 572.937 352.146 563.925 351.763 561.814C348.118 543.973 344.285 526.136 341.983 507.912C341.599 506.569 338.931 506.377 339.105 508.295C341.673 529.965 346.003 551.459 350.407 572.61C303.223 556.966 252.616 550.6 203.3 546.083C181.627 543.973 157.843 540.712 137.124 549.728C131.743 551.826 126.828 554.964 122.66 558.962C118.492 562.96 115.154 567.741 112.835 573.031C110.517 578.32 109.263 584.015 109.147 589.79C109.031 595.564 110.055 601.305 112.159 606.683C105.689 608.675 99.3426 611.048 93.1535 613.79C93.0572 613.5 92.8853 613.24 92.6553 613.039C92.4254 612.837 92.1458 612.701 91.8455 612.643C86.6899 610.863 81.6311 608.814 76.6901 606.504C75.3472 605.737 74.0044 608.039 75.1554 609.19C79.1047 612.331 83.6647 614.614 88.545 615.896C83.6705 618.224 78.8658 620.788 74.1831 623.574C67.2856 622.615 60.5756 620.888 53.6911 619.549C53.3019 619.472 52.8978 619.541 52.5563 619.743C52.2148 619.945 51.96 620.266 51.841 620.645C51.722 621.023 51.7472 621.433 51.9116 621.794C52.0761 622.155 52.3682 622.443 52.7319 622.601C57.9557 624.654 63.4092 626.065 68.9729 626.804C61.6125 631.536 54.659 636.872 48.1844 642.758C41.7719 641.585 35.2742 640.939 28.7563 640.826C27.0123 640.634 26.4411 643.556 28.3726 644.088C33.6228 645.286 38.9605 646.064 44.3346 646.411C38.1413 652.403 32.6475 659.077 27.9584 666.306C22.0898 665.534 16.4044 664.222 10.5184 663.651C8.6 663.272 8.41252 666.145 10.1347 666.912C15.1951 668.608 20.4419 669.685 25.761 670.121C23.0626 675.18 21.1178 680.606 19.9883 686.227C19.3256 686.227 20.9693 686.227 1.50628 689.715C1.11789 689.815 0.77886 690.052 0.552064 690.383C0.325267 690.713 0.226096 691.115 0.272948 691.513C0.3198 691.912 0.509495 692.279 0.806846 692.548C1.1042 692.817 1.48903 692.969 1.88996 692.976C7.79136 692.756 13.6457 691.835 19.33 690.234C18.519 696.924 18.9925 703.707 20.7252 710.22C14.403 710.05 8.08126 710.572 1.87252 711.777C0.337798 711.968 0.721475 714.462 2.2562 714.654C5.83661 714.782 9.42131 714.718 12.9949 714.462C15.9414 714.486 18.8838 714.238 21.7846 713.721C23.734 719.401 26.5536 724.743 30.1428 729.557C24.4348 730.89 18.8319 732.639 13.3786 734.789C11.6346 735.556 12.2275 738.242 14.1459 737.666C20.3888 736.403 26.5377 734.713 32.5495 732.609C35.3061 735.884 38.361 738.897 41.675 741.608C37.1013 745.597 32.2443 749.556 27.3829 753.201C25.8482 754.356 27.191 757.038 28.9176 755.891C34.4697 752.311 39.7534 748.332 44.727 743.984C48.7279 746.922 52.9558 749.537 57.371 751.806C51.9563 756.115 47.3238 761.324 43.6762 767.205C42.5252 769.124 45.4202 770.658 46.5538 768.949C50.4497 763.088 55.2449 757.878 60.763 753.51C64.1159 755.106 67.5428 756.562 71.0221 757.87C68.5801 762.966 66.6183 768.277 65.1623 773.737C64.5868 775.655 67.0763 776.789 67.8437 775.079C70.3829 769.91 72.4802 764.536 74.1134 759.013C78.3818 760.552 82.7113 761.934 87.0408 763.22C85.9241 765.089 85.2015 767.166 84.9174 769.324C84.1501 772.376 83.3827 775.271 82.8072 778.341C82.4235 780.638 85.493 781.393 86.0685 779.492C87.3028 774.336 88.8135 769.251 90.5942 764.258C95.457 765.636 100.339 766.964 105.239 768.243C104.367 770.205 103.822 772.407 103.138 774.312C102.118 777.163 101.394 780.259 100.644 783.137C100.452 784.859 103.138 785.626 103.696 783.9C105.71 779.1 107.441 774.187 108.88 769.185C113.763 770.437 118.659 771.644 123.569 772.803C122.928 775.668 122.405 778.519 121.729 781.218C120.962 784.475 119.811 787.545 119.235 790.81C119.189 791.142 119.258 791.48 119.432 791.766C119.605 792.052 119.872 792.27 120.187 792.383C120.503 792.496 120.847 792.496 121.163 792.384C121.479 792.273 121.746 792.055 121.921 791.769C124.856 786.139 126.625 779.975 127.122 773.645C133.808 775.206 140.493 776.712 147.178 778.162C145.074 784.65 143.301 791.241 141.863 797.908C141.801 798.276 141.878 798.653 142.08 798.967C142.281 799.28 142.592 799.507 142.952 799.603C143.313 799.7 143.696 799.658 144.026 799.486C144.357 799.314 144.612 799.025 144.741 798.676C146.921 792.136 148.922 785.596 150.596 778.899C150.596 778.899 158.85 780.665 162.944 781.515C160.793 786.44 159.317 791.633 158.553 796.954C158.49 797.205 158.478 797.467 158.516 797.723C158.554 797.98 158.642 798.226 158.776 798.449C158.909 798.671 159.085 798.865 159.293 799.02C159.502 799.174 159.738 799.286 159.99 799.349C160.242 799.412 160.503 799.425 160.76 799.387C161.016 799.349 161.263 799.261 161.486 799.127C161.708 798.994 161.902 798.818 162.057 798.609C162.211 798.401 162.323 798.164 162.386 797.913C163.557 792.631 165.012 787.416 166.746 782.291C172.269 783.41 177.791 784.491 183.314 785.535C181.169 790.976 179.316 796.529 177.764 802.168C176.996 804.662 180.641 805.621 181.6 803.127C183.75 797.618 185.564 791.983 187.033 786.254C193.311 787.417 199.596 788.531 205.886 789.598C203.857 794.943 202.215 800.425 200.972 806.005C200.845 806.488 200.915 807.002 201.167 807.434C201.418 807.866 201.831 808.18 202.315 808.307C202.798 808.434 203.312 808.364 203.744 808.112C204.176 807.86 204.49 807.447 204.617 806.964C206.613 801.499 208.167 795.883 209.265 790.169C215.351 791.187 221.445 792.159 227.546 793.086C224.68 799.503 222.523 806.213 221.115 813.099C220.923 815.017 223.413 816.364 224.372 814.446C227.362 807.772 229.578 800.778 230.977 793.601C236.5 794.426 242.023 795.215 247.545 795.968C245.75 801.613 244.477 807.412 243.744 813.29C243.552 815.401 246.621 815.401 247.197 813.674C249.03 808.066 250.316 802.294 251.038 796.439C256.322 797.145 261.605 797.82 266.886 798.462C265.176 804.867 263.789 811.354 262.731 817.899C262.348 820.005 265.417 820.951 265.993 818.854C267.76 812.271 269.172 805.598 270.222 798.863C271.434 799.007 280.686 800.04 284.117 800.398C282.947 804.042 282.082 807.777 281.532 811.564C281.148 813.482 283.829 814.825 284.793 812.911C286.523 809.079 287.591 804.98 287.95 800.79C293.327 801.331 298.704 801.835 304.082 802.303C302.032 808.214 300.706 814.351 300.131 820.58C299.94 822.691 303.183 823.074 303.776 821.156C305.411 815.165 306.702 808.826 307.971 802.639C312.412 803.011 316.855 803.358 321.299 803.681C321.286 807.28 320.679 810.853 319.503 814.254C319.395 814.67 319.441 815.112 319.633 815.497C319.826 815.882 320.151 816.184 320.549 816.347C320.947 816.51 321.391 816.524 321.798 816.385C322.205 816.247 322.549 815.965 322.764 815.593C324.524 811.975 325.286 807.953 324.97 803.943C329.124 804.233 333.279 804.501 337.436 804.745C335.998 810.148 334.172 815.44 331.972 820.58C331.846 820.823 331.772 821.09 331.754 821.363C331.736 821.637 331.775 821.911 331.868 822.168C331.961 822.426 332.106 822.661 332.295 822.86C332.483 823.059 332.711 823.216 332.964 823.322C333.216 823.429 333.488 823.481 333.762 823.478C334.035 823.474 334.305 823.413 334.555 823.3C334.804 823.186 335.027 823.023 335.21 822.819C335.393 822.615 335.532 822.375 335.617 822.115C338.095 816.621 339.948 810.866 341.142 804.958C345.879 805.229 350.62 805.469 355.364 805.678C354.099 812.233 353.46 818.893 353.454 825.568C353.454 827.312 356.506 827.866 356.715 825.952C357.526 819.168 358.045 812.436 358.961 805.83C364.6 806.066 370.237 806.259 375.873 806.41C375.721 811.734 374.849 817.197 374.94 822.499C374.968 822.86 375.119 823.2 375.369 823.462C375.618 823.724 375.951 823.892 376.31 823.937C376.669 823.982 377.032 823.902 377.339 823.71C377.646 823.518 377.876 823.225 377.992 822.882C379.093 817.496 379.546 811.996 379.34 806.502C386.257 806.668 393.177 806.777 400.097 806.829C398.789 811.411 397.098 815.985 396.217 820.58C395.833 822.499 398.519 823.842 399.478 821.923C401.558 817.086 403.083 812.028 404.021 806.846C408.759 806.864 413.5 806.854 418.244 806.816C417.183 811.6 416.487 816.458 416.164 821.348C416.154 821.784 416.308 822.207 416.595 822.535C416.882 822.863 417.282 823.072 417.715 823.12C418.148 823.168 418.584 823.052 418.936 822.795C419.288 822.538 419.531 822.159 419.617 821.731C420.616 816.792 421.287 811.703 421.832 806.781C425.46 806.743 429.093 806.685 432.732 806.607C431.508 812.367 430.593 818.189 429.99 824.047C429.833 825.969 432.867 826.349 433.443 824.43C434.878 818.546 435.931 812.575 436.595 806.554C442.315 806.418 448.037 806.24 453.76 806.022C453.364 813.064 451.855 820.288 451.855 827.325C451.855 829.244 454.907 829.819 455.308 827.709C456.678 820.511 457.38 813.201 457.405 805.874C463.242 805.636 469.08 805.352 474.919 805.024C474.682 808.384 474.924 811.76 475.639 815.052C475.741 815.409 475.967 815.717 476.277 815.922C476.586 816.126 476.959 816.213 477.327 816.168C477.695 816.122 478.035 815.946 478.285 815.672C478.535 815.398 478.679 815.043 478.691 814.673C478.774 811.376 478.878 808.093 478.761 804.802C482.702 804.566 486.642 804.31 490.581 804.034C491.13 811.882 491.017 819.691 491.736 827.522C491.768 827.983 491.974 828.415 492.312 828.731C492.65 829.047 493.096 829.222 493.558 829.222C494.021 829.222 494.467 829.047 494.805 828.731C495.143 828.415 495.349 827.983 495.381 827.522C495.856 819.584 495.407 811.619 494.042 803.786C499.01 803.425 503.973 803.031 508.932 802.604C509.073 806.387 509.415 810.159 509.956 813.905C510.34 815.819 513.008 815.244 513.218 813.517C513.403 809.761 513.157 805.995 512.485 802.294C518.124 801.792 523.756 801.25 529.38 800.668C529.304 808.029 530.124 815.371 531.822 822.534C532.397 824.452 535.419 824.073 535.275 822.15C534.734 814.825 533.561 807.644 532.598 800.328C537.734 799.776 542.886 799.179 548.054 798.536C548.156 802.802 548.959 807.022 550.43 811.028C551.006 812.562 553.692 812.562 553.482 810.644C553.204 806.414 552.601 802.211 551.677 798.074C555.424 797.591 559.171 797.077 562.917 796.531C566.813 802.495 569.655 809.084 571.319 816.011C571.895 818.505 575.731 817.546 575.156 814.86C573.742 808.037 570.89 801.593 566.789 795.959C572.312 795.122 577.818 794.21 583.309 793.221C586.491 798.834 589.278 804.661 591.65 810.661C592.417 812.405 594.876 811.054 594.527 809.51C593.055 803.434 590.442 797.692 586.828 792.589C592.496 791.525 598.142 790.363 603.766 789.101C606.696 795.332 609.652 801.545 613.136 807.413C613.336 807.686 613.623 807.884 613.95 807.973C614.277 808.062 614.624 808.038 614.936 807.905C615.247 807.771 615.504 807.536 615.665 807.238C615.826 806.94 615.881 806.596 615.822 806.262C613.648 799.978 610.797 793.949 607.32 788.282C612.438 787.078 617.525 785.77 622.58 784.357C625.067 788.8 627.804 793.099 630.776 797.233C630.891 797.422 631.041 797.586 631.22 797.717C631.398 797.848 631.6 797.942 631.814 797.995C632.029 798.047 632.252 798.057 632.47 798.024C632.689 797.99 632.898 797.914 633.087 797.799C633.276 797.685 633.441 797.534 633.571 797.356C633.702 797.178 633.796 796.976 633.849 796.761C633.902 796.547 633.912 796.324 633.878 796.106C633.845 795.887 633.769 795.678 633.654 795.489C631.607 791.156 629.048 787.083 626.033 783.359C631.494 781.781 636.907 780.066 642.269 778.214C644.218 783.311 645.884 788.704 648.234 793.762C649.001 795.68 651.683 794.146 651.286 792.419C650.028 787.075 648.015 781.936 645.308 777.159C649.729 775.578 654.105 773.891 658.436 772.097C660.612 777.136 663.572 781.799 667.204 785.914C667.477 786.185 667.839 786.348 668.223 786.373C668.607 786.397 668.986 786.282 669.291 786.047C669.596 785.812 669.806 785.475 669.88 785.098C669.955 784.72 669.89 784.329 669.698 783.996C667.291 779.527 664.266 775.206 661.593 770.767C666.697 768.576 671.726 766.221 676.678 763.704C678.231 768.685 680.971 773.214 684.662 776.902C684.969 777.158 685.354 777.301 685.754 777.306C686.154 777.312 686.543 777.18 686.857 776.933C687.171 776.686 687.391 776.338 687.479 775.948C687.568 775.559 687.52 775.15 687.343 774.792C684.556 770.725 682.131 766.421 680.097 761.93C685.082 759.287 689.969 756.462 694.759 753.454C698.194 757.831 702.147 761.775 706.531 765.2C708.066 766.351 709.409 764.049 708.275 762.898C704.944 758.899 701.033 755.486 697.423 751.762C703.083 748.079 708.582 744.107 713.922 739.846C716.88 743.149 720.514 745.778 724.577 747.555C726.321 748.322 727.071 745.636 725.728 744.869C722.459 742.747 719.348 740.391 716.42 737.819C721.77 733.393 726.853 728.663 729.735 725.724C733.419 729.92 738.324 732.858 743.761 734.126C744.189 734.239 744.644 734.18 745.03 733.963C745.415 733.745 745.701 733.386 745.826 732.961C745.951 732.537 745.905 732.08 745.699 731.689C745.492 731.297 745.141 731.002 744.721 730.865C739.905 729.488 735.535 726.872 732.046 723.278C734.865 720.183 737.473 716.903 739.855 713.459C743.48 716.227 747.515 718.412 751.814 719.934C753.558 720.505 754.5 717.824 752.965 717.052C749.163 715.068 745.357 713.085 741.673 710.73C743.627 707.688 745.397 704.531 746.975 701.278C753.201 703.924 759.619 706.736 766.202 708.807C767.946 709.383 769.08 706.697 767.545 705.755C761.318 702.858 754.921 700.344 748.387 698.226C749.408 695.889 750.319 693.508 751.112 691.101C757.842 690.973 764.568 691.513 771.19 692.715C771.541 692.695 771.877 692.564 772.148 692.34C772.419 692.116 772.611 691.812 772.697 691.471C772.783 691.13 772.757 690.771 772.624 690.445C772.491 690.12 772.257 689.846 771.958 689.663C765.667 687.28 758.875 686.53 752.215 687.483C753.674 682.249 754.502 676.859 754.683 671.429C760.29 673.445 766.242 674.327 772.193 674.023ZM130.767 558.745C149.759 545.508 174.502 548.194 196.368 550.112C249.033 554.377 301.218 563.293 352.312 576.756C373.466 578.946 394.729 579.907 415.994 579.634C426.755 579.342 441.596 580.401 452.243 575.165C501.101 560.022 553.591 542.425 605.506 544.915C628.906 546.066 697.576 557.559 673.217 594.619C659.98 614.566 636.004 627.227 614.906 636.815C569.841 657.416 515.498 665.247 510.179 667.636C505.194 667.228 500.179 667.424 495.241 668.22C471.911 650.314 442.921 638.38 414.581 628.57C453.56 612.286 477.274 597.235 558.309 582.149C560.419 581.766 559.464 578.74 557.541 579.097C528.895 583.657 500.623 590.324 472.957 599.044C451.341 606.378 427.884 614.636 407.993 626.334C353.02 607.451 296.148 594.635 238.389 588.114C236.471 587.922 236.462 591.231 238.581 591.563C318.417 604.133 423.742 626.151 490.82 671.351C490.139 672.178 489.553 673.081 489.076 674.041C484.972 679.766 483.059 686.775 483.683 693.792C427.374 685.835 360.099 680.276 302.826 677.11C254.317 674.058 229.438 676.966 171.625 651.216C153.212 643.159 134.028 633.951 122.522 616.881C109.669 597.876 111.012 572.557 130.767 558.745ZM228.784 698.958C230.862 700.705 233.387 701.835 236.074 702.219C273.49 711.053 312.88 704.729 345.65 684.627C472.469 693.809 486.539 701.631 489.844 699.015C507.497 706.553 525.892 709.631 544.126 713.529C563.881 717.75 585.546 719.28 603.396 709.501C605.678 708.398 607.654 706.751 609.151 704.705C610.241 702.686 610.714 700.39 610.509 698.105C610.304 695.819 609.432 693.645 608 691.851C605.003 688.383 601.266 685.631 597.065 683.798C576.682 673.77 553.726 671.011 530.993 669.14C569.002 661.68 605.663 648.507 639.727 630.07C664.675 648.783 668.067 666.127 657.102 690.321C647.655 709.381 632.413 724.959 613.563 734.819C573.089 757.452 525.522 759.178 480.252 760.138C381.659 762.248 281.536 764.358 185.245 740.383C160.886 734.244 132.302 727.529 118.877 703.937C115.514 698.407 113.44 692.189 112.809 685.747C112.178 679.305 113.006 672.803 115.233 666.725C119.985 654.565 130.009 647.105 140.455 640.068C161.462 654.185 201.844 669.223 226.434 674.778C224.362 678.581 223.478 682.918 223.897 687.229C224.315 691.54 226.018 695.626 228.784 698.958V698.958ZM726.731 722.742C705.441 744.228 675.902 761.11 647.898 772.04C614.714 784.889 579.228 790.649 543.934 794.673C393.623 812.134 241.362 800.807 95.2899 761.297C75.5304 755.93 55.0078 749.408 39.8525 734.828C25.4645 721.212 17.7952 701.644 23.9341 682.272C25.3216 678.034 27.1497 673.952 29.3885 670.095C29.5794 669.959 29.7394 669.784 29.8581 669.582C29.9768 669.38 30.0515 669.155 30.0774 668.922C45.7254 642.841 83.1386 618.782 113.053 609.112C118.44 621.128 127.174 631.339 138.21 638.524C122.793 648.387 109.469 660.908 108.906 680.546C108.331 701.452 122.527 719.289 139.98 729.073C162.809 741.717 190.992 746.334 216.515 751.309C300.175 767.58 389.123 766.333 475.063 764.354C524.554 763.203 577.685 762.244 621.228 735.007C640.983 722.729 658.244 704.125 664.575 681.108C667.878 671.75 667.605 661.501 663.808 652.332C658.973 642.7 651.907 634.362 643.198 628.012C656.384 620.527 667.847 610.35 676.84 598.142C703.213 606.648 733.38 620.613 745.728 646.974C757.805 672.872 745.723 703.754 726.731 722.742V722.742Z" fill="#3B89A0"/>
</svg>
