<svg width="542" height="529" viewBox="0 0 542 529" fill="none" xmlns="http://www.w3.org/2000/svg">
<path d="M80.9733 294.257C80.7933 293.92 64.7483 260.872 53.4114 238.624C53.1511 237.863 52.6409 237.249 51.9898 236.912C51.3387 236.576 50.5985 236.545 49.9275 236.825C28.8497 241.321 10.7131 245.094 -16.598 251.142C-8.13736 274.129 -15.123 257.021 6.21144 309.492C6.52709 310.4 6.84274 311.122 7.95194 310.761C16.032 308.949 24.112 307.528 32.1862 305.699C45.4995 302.637 77.9613 295.162 80.9733 294.257Z" fill="#D63037"/>
<path d="M189.787 154.181C189.156 154.181 188.2 152.912 188.046 152.004C187.064 146.213 169.488 36.7617 169.04 34.9426C168.367 32.2426 169.352 30.5551 171.889 30.2176C180.739 29.0397 308.106 13.3426 315.395 12.4583C316.976 12.2693 317.953 12.6304 318.404 14.6318C319.746 20.5921 341.19 123.729 342.954 132.602C343.072 133.132 343.083 133.685 342.988 134.221C342.893 134.757 342.693 135.261 342.404 135.696C342.115 136.132 341.744 136.487 341.318 136.735C340.892 136.983 340.423 137.119 339.945 137.131C333.608 137.688 192.005 154.36 189.787 154.181Z" fill="#3B89A0"/>
<path d="M83.6637 324.7C82.9616 319.084 81.1945 314.825 85.5664 313.286C88.9206 312.101 88.8911 312.196 88.8911 305.675C88.5734 298.538 90.5445 291.513 94.4341 285.921C96.985 281.679 100.243 278.054 104.021 275.256C107.799 272.457 112.023 270.54 116.45 269.613C123.672 267.872 125.495 266.778 144.802 269.431C151.587 270.362 170.367 274.709 179.022 274.868C189.672 275.064 199.05 270.778 195.805 259.1C191.362 243.025 178.314 236.265 164.284 226.12C157.243 221.027 151.428 216.46 156.523 207.817C158.935 204.004 162.149 200.95 165.868 198.937C176.211 192.734 175.769 193.5 180.913 192.592C180.913 192.231 180.913 191.506 181.229 191.327C183.294 189.514 182.63 187.344 182.179 185.164C181.422 180.288 181.584 175.284 182.654 170.486C182.971 169.164 183.65 167.992 184.59 167.142C185.53 166.292 186.684 165.808 187.881 165.761C194.705 165.154 343.6 147.293 349.925 146.375C352.273 145.927 354.679 146.102 356.959 146.887C359.238 147.673 361.329 149.047 363.07 150.904C377.295 165.231 404.208 189.16 418.191 202.37C419.546 203.365 420.566 204.857 421.084 206.602C421.602 208.347 421.588 210.241 421.043 211.975C420.374 214.213 419.781 221.908 411.379 223.028C385.876 226.43 281.367 238.378 246.179 243.143C227.668 245.647 208.286 231.098 196.286 215.053C192.366 210.15 188.963 204.738 186.147 198.927C185.831 197.84 183.757 198.002 183.297 197.476C182.188 195.481 180.763 196.207 179.338 196.75C171.713 198.853 164.814 203.526 159.535 210.163C153.676 218.327 165.762 222.005 181.71 234.263C190.442 240.973 199.967 252.998 199.767 264.524C199.635 267.093 198.905 269.574 197.652 271.711C196.398 273.848 194.668 275.561 192.64 276.674C175.892 285.145 146.54 271.176 126.114 272.688C113.429 273.623 102.901 279.256 96.3369 292.263C93.6058 297.442 92.2823 303.433 92.5343 309.475C92.5343 310.927 92.85 312.013 94.4341 312.374C97.4461 312.739 97.9505 315.628 98.5641 318.355C99.4019 322.148 99.3636 322.067 102.694 321.619C149.458 315.368 130.719 316.948 145.935 315.274C148.139 315.231 150.307 315.906 152.188 317.221C154.068 318.536 155.583 320.436 156.555 322.699C163.553 340.184 188.985 397.823 189.66 407.323C189.972 409.409 189.57 411.551 188.538 413.306C187.505 415.061 185.92 416.293 184.114 416.746C178.148 419.64 171.938 421.826 165.582 423.27C165.234 423.365 103.535 438.157 93.9887 439.217C91.1331 439.534 81.1591 440.125 77.0409 437.587C67.1997 434.067 59.8218 414.036 55.6593 403.162C37.4283 355.531 37.7233 354.224 36.9681 344.633C36.7466 342.414 37.2572 340.181 38.3999 338.37C39.5425 336.56 41.2349 335.303 43.1454 334.845C52.7919 332.057 62.4561 329.708 72.1321 327.235C78.3183 325.648 83.0884 325.361 83.6637 324.7ZM45.4907 358.588C45.2011 358.647 44.9271 358.78 44.6894 358.978C44.4517 359.175 44.2567 359.433 44.1192 359.73C43.9817 360.027 43.9055 360.357 43.8962 360.693C43.887 361.029 43.945 361.363 44.0658 361.67C49.0012 374.42 70.5185 425.818 71.4684 427.266C72.6484 428.616 182.347 403.786 182.66 403.709C182.992 403.628 183.305 403.462 183.573 403.224C183.842 402.986 184.061 402.682 184.213 402.334C184.365 401.986 184.447 401.603 184.452 401.215C184.458 400.826 184.386 400.44 184.244 400.087C179.017 387.667 159.85 340.829 158.284 337.204C158.092 336.887 157.829 336.635 157.522 336.476C157.215 336.316 156.875 336.255 156.54 336.3C144.18 338.656 61.9635 355.146 45.4907 358.588V358.588ZM190.421 198.576C193.703 205.631 197.865 212.103 202.776 217.787C218.01 234.324 235.267 240.197 240.79 239.724C245.855 239.282 398.399 220.402 409.479 218.887C411.295 218.787 413.025 217.976 414.381 216.591C415.736 215.205 416.635 213.329 416.925 211.276C417.179 210.182 417.165 209.028 416.886 207.942C416.607 206.855 416.072 205.877 415.341 205.114C396.886 187.648 378.389 169.838 360.061 152.2C359.151 151.188 358.048 150.432 356.839 149.992C355.629 149.551 354.347 149.438 353.093 149.662C342.034 151.529 204.844 168.245 189.156 170.142C183.748 170.793 185.155 172.454 186.462 187.537C186.604 189.17 187.412 189.71 188.822 189.71C190.344 189.684 191.836 190.191 193.1 191.161C194.281 192.597 195.149 194.332 195.634 196.224C196.268 197.675 195.634 198.586 194.209 198.586C192.951 198.764 191.678 198.761 190.421 198.576V198.576Z" fill="#3B89A0"/>
<path d="M397.29 72.9958C395.865 67.5587 394.597 62.3038 393.013 57.2312C392.465 49.2215 392.945 41.1632 394.437 33.3126C396.797 31.9626 399.918 39.6879 404.102 44.7268C407.417 48.7228 407.901 53.7887 409.17 58.5002C409.804 60.8627 410.435 63.0294 411.069 65.3852C411.155 65.3965 411.243 65.3861 411.325 65.3546C411.407 65.3231 411.482 65.2713 411.544 65.203C411.229 62.8405 409.96 39.4719 409.96 30.7779C409.96 25.3779 413.527 19.7991 418.04 22.2594C422.368 24.6219 422.731 29.5731 423.424 35.1249C426.752 34.7638 427.168 35.1249 427.849 38.9319C428.529 42.881 428.529 46.9439 427.849 50.8929C427.522 52.3847 427.097 52.9989 426.265 52.5231C425.946 47.7981 424.996 38.2063 424.837 38.2063C424.551 39.4575 424.341 40.7294 424.206 42.0133C424.682 50.5296 425.315 59.0458 426.106 67.5621C426.106 68.0683 426.536 70.6704 427.849 69.9246C429.879 56.3487 432.579 42.915 435.935 29.6878C436.732 26.1407 438.944 22.8197 442.112 24.0684C442.959 24.7015 443.621 25.608 444.016 26.6728C444.411 27.7377 444.521 28.9128 444.331 30.0489C444.331 30.4101 444.171 30.5923 444.171 30.9568C444.965 31.2971 445.641 31.9223 446.098 32.7388C446.554 33.5553 446.768 34.5192 446.705 35.4861C446.785 39.6576 446.785 43.6367 446.705 47.8082C446.676 48.2521 446.506 48.6685 446.227 48.9792C445.948 49.2899 445.58 49.4737 445.191 49.496C444.803 49.5184 444.42 49.3778 444.116 49.1006C443.811 48.8235 443.606 48.4287 443.537 47.9904C443.466 46.649 443.308 45.3155 443.062 44.0012C434.74 91.609 440.673 68.5071 450.664 44.5446C451.546 42.7755 452.61 41.1337 453.833 39.6542C455.05 37.5796 456.432 35.6385 457.963 33.8559C458.194 33.4036 458.516 33.0201 458.901 32.7363C459.287 32.4525 459.725 32.2765 460.181 32.2224C461.606 32.2224 461.786 33.3092 461.922 34.9427C462.302 39.4652 462.874 43.8223 463.349 48.3516C463.612 49.8636 463.163 50.5149 454.479 72.4524C453.836 74.0792 454.479 74.9634 455.588 75.7161C456.871 76.5936 458.281 77.5284 459.547 78.2507C460.53 78.8303 461.314 79.7709 461.773 80.9216C462.233 82.0722 462.341 83.3662 462.081 84.5957C460.836 93.688 450.396 159.592 449.251 167.769C446.458 187.705 420.996 183.942 403.792 179.73C395.151 177.617 395.759 171.63 393.656 161.249C392.517 155.636 379.525 92.3481 377.342 83.3267C375.31 74.9972 389.835 72.5368 397.29 72.9958ZM457.175 86.587C431.832 92.7497 406.804 93.2931 382.095 83.3267C388.956 122.568 392.184 133.253 400.47 169.389C401.497 173.875 403.981 173.301 405.379 174.114C424.462 176.477 431.885 179.177 440.384 174.658C441.575 174.167 442.629 173.32 443.437 172.204C444.245 171.089 444.777 169.746 444.977 168.316C456.609 97.1001 453.045 113.908 457.157 86.587H457.175ZM396.508 56.3233C397.759 65.209 399.879 73.9058 402.827 82.2501C403.001 82.6874 403.276 83.0628 403.621 83.3368C406.47 83.8802 409.32 84.2413 412.332 84.6058C411.854 82.4155 404.506 55.5808 404.411 55.2433C402.986 51.0684 395.859 55.4188 396.491 56.3233H396.508ZM455.907 51.0684C455.116 51.2507 454.319 51.9966 453.532 51.7941C452.895 51.6321 452.423 50.5251 451.788 49.6206C447.511 61.0348 442.286 71.8956 438.484 83.8701C441.334 83.5056 443.711 83.1445 446.086 82.7833C447.239 82.7833 447.381 81.9868 457.331 55.4188C457.856 54.1802 456.771 52.7526 455.889 51.0684H455.907ZM432.941 48.5338C430.722 61.0213 428.811 72.6347 426.604 84.7746C428.823 84.5957 430.247 84.4134 431.832 84.4134C434.457 84.4134 432.964 84.4911 439.749 50.5251C437.357 49.8028 435.139 49.2561 432.923 48.5338H432.941ZM423.436 84.7746C422.436 68.7703 421.748 61.3554 421.371 53.9676C421.17 49.9851 420.737 49.2426 417.093 49.6206C416.13 49.8621 415.178 50.1641 414.244 50.5251C415.194 61.9427 416.143 73.3603 416.937 84.7746H423.436ZM420.586 45.2871C419.952 39.6711 419.347 33.6838 418.368 27.8923C417.754 24.2642 414.565 26.0799 414.09 26.9844C413.46 27.9863 413.127 29.1928 413.14 30.4269C413.394 42.5972 414.09 43.7447 414.09 46.9172C416.291 46.3569 418.191 45.8001 420.568 45.2702L420.586 45.2871ZM401.101 48.3684C398.092 43.1136 398.092 43.1136 396.033 43.8392C395.083 51.9932 394.449 50.7242 396.508 50.7242C398.182 50.3816 399.755 49.5661 401.084 48.3516L401.101 48.3684ZM454.957 46.5561C457.175 45.1082 457.175 45.1082 459.382 48.7296H459.857C459.701 46.3738 459.543 44.0181 459.382 41.6623C458.553 41.3048 457.707 41.0028 456.848 40.7578C453.83 44.5446 453.83 44.5446 454.939 46.5392L454.957 46.5561Z" fill="#3B89A0"/>
<path d="M-0.44375 499.572C-1.96722 499.819 -3.51343 499.819 -5.0369 499.572C-5.32333 499.497 -5.58899 499.342 -5.80993 499.121C-6.03086 498.899 -6.20013 498.618 -6.30245 498.303C-6.46175 497.942 -5.8275 497.216 -5.51185 496.673C-4.95913 496.03 -4.28925 495.534 -3.54991 495.221C-2.81057 494.907 -2.01995 494.784 -1.23435 494.861C26.5429 488.9 477.68 394.623 527.957 383.415C532.612 382.375 535.444 387.539 531.76 388.477C528.488 389.331 -0.14875 499.511 -0.44375 499.572Z" fill="#3B89A0"/>
<path d="M538.253 403.53C538.803 403.286 539.413 403.28 539.967 403.514C540.521 403.748 540.981 404.204 541.262 404.799C540.946 406.79 539.521 407.161 538.097 407.698C358.441 456.936 20.0764 528.023 3.83374 528.023C3.83374 520.271 110.928 510.538 538.253 403.53Z" fill="#3B89A0"/>
<path d="M77.9613 212.893C73.5363 217.243 61.0283 215.039 56.5797 211.806C53.529 209.588 51.0346 206.501 49.3409 202.847C47.6472 199.194 46.8125 195.099 46.9185 190.966C46.4612 173.449 59.4589 167.638 67.6658 175.562C68.3001 176.105 68.9343 176.831 69.4093 175.562C70.6698 172.79 72.519 170.424 74.787 168.683C77.055 166.941 79.6691 165.88 82.3893 165.596C98.3488 162.443 106.444 160.55 130.383 165.778C137.522 167.337 141.298 174.293 140.678 183.173C139.672 195.985 135.243 208.133 127.993 217.966C125.412 221.67 121.67 224.077 117.562 224.675C110.278 225.958 102.889 226.261 95.5433 225.58C86.5458 224.722 80.9674 215.839 77.9613 212.893ZM71.6277 180.638C71.1265 187.155 72.1083 193.709 74.4774 199.663C77.6116 206.912 82.1002 213.285 87.6255 218.33C89.6283 220.418 92.2079 221.636 94.915 221.773C103.546 222.538 112.228 221.99 120.733 220.142C121.595 219.853 122.365 219.286 122.952 218.509C131.448 208.482 138.324 193.176 137.84 178.826C137.566 170.699 130.144 168.232 123.111 167.047C107.429 164.401 73.1558 162.622 71.6277 180.638V180.638ZM97.7617 167.769C123.601 164.732 140.162 173.925 133.401 177.374C121.353 183.52 101.246 187.064 78.2799 180.274C75.8993 179.572 71.9315 175.886 77.1707 172.481C80.8051 170.111 93.3249 168.289 97.7617 167.769V167.769ZM67.9844 182.086C68.1793 180.969 68.0103 179.81 67.5095 178.826C66.4962 177.403 65.1703 176.315 63.6678 175.672C62.1653 175.03 60.5404 174.857 58.96 175.17C57.3796 175.484 55.9007 176.273 54.6752 177.457C53.4497 178.641 52.5217 180.177 51.9866 181.907C50.9735 184.604 50.4676 187.514 50.5018 190.449C50.536 193.384 51.1095 196.278 52.1851 198.942C53.2607 201.607 54.8143 203.983 56.7449 205.916C58.6755 207.849 60.94 209.296 63.3913 210.163C67.581 212.069 72.2064 212.323 76.5365 210.885C75.7459 209.616 74.9523 208.522 74.3181 207.442C65.0816 211.202 47.2312 191.533 58.7981 182.255C60.0962 181.065 61.7031 180.403 63.366 180.372C65.029 180.342 66.6537 180.945 67.9844 182.086V182.086ZM73.5275 206.187C70.2768 200.254 68.472 193.435 68.3001 186.436C68.0454 185.711 67.6516 185.061 67.1479 184.533C66.6441 184.005 66.0432 183.613 65.3895 183.386C64.7357 183.16 64.0458 183.104 63.3707 183.223C62.6955 183.342 62.0523 183.632 61.4885 184.074C52.73 189.636 63.6007 206.187 73.5275 206.187V206.187ZM96.0183 173.571C91.5933 171.033 83.6637 171.937 81.1296 176.47C86.1977 175.4 90.785 174.475 96.0183 173.571Z" fill="#3B89A0"/>
<path d="M179.81 162.879C180.444 170.489 176.981 163.962 176.801 162.696C175.813 155.788 157.113 44.1901 156.366 38.2029C155.648 34.381 155.977 30.3985 157.31 26.7986C158.642 23.1987 160.913 20.1569 163.812 18.0879C165.492 17.1028 167.318 16.488 169.196 16.2755C173.305 15.4891 306.052 1.30738 311.752 1.05425C329.528 0.264504 327.879 2.96451 353.724 140.951C353.724 144.758 351.226 143.479 350.875 141.856C350.441 139.851 349.724 137.883 349.291 135.879C326.322 29.6337 326.623 16.046 324.581 11.7463C323.781 9.61746 322.42 7.82732 320.688 6.62526C318.956 5.4232 316.94 4.86908 314.92 5.04013C310.168 5.41138 168.709 20.2276 166.346 21.8949C160.818 25.766 160.741 31.2976 160.01 36.3905C160.169 36.5727 178.226 152.369 179.81 162.879Z" fill="#3B89A0"/>
<path d="M66.716 301.142C63.0875 301.956 49.6059 305.28 46.4435 306.036C41.5141 307.214 29.5518 309.225 9.06115 314.372C8.26099 314.647 7.42036 314.733 6.59026 314.625C5.76016 314.517 4.95789 314.217 4.23211 313.744C3.50633 313.271 2.87217 312.634 2.36809 311.871C1.86402 311.109 1.50053 310.238 1.29969 309.31C-20.2707 250.693 -19.545 252.438 -19.132 249.134C-19.132 248.013 -19.9728 248.523 38.3635 235.725C42.4935 234.824 46.6088 233.956 50.7181 232.826C52.6238 232.302 53.5707 233.551 54.3614 235.188C74.0084 275.648 65.9667 260.838 80.6547 288.101C81.9232 290.464 82.8997 292.793 84.1387 294.99C84.9499 296.424 84.295 297.511 83.0324 297.889C81.935 298.209 71.315 300.113 66.716 301.142ZM80.9733 294.257C80.7933 293.92 64.7483 260.872 53.4115 238.624C53.1511 237.863 52.6409 237.249 51.9898 236.912C51.3387 236.576 50.5985 236.545 49.9275 236.825C28.8498 241.32 10.7131 245.094 -16.598 251.142C-8.13736 274.129 -15.123 257.021 6.21144 309.492C6.52709 310.4 6.84274 311.122 7.95194 310.761C16.032 308.949 24.112 307.528 32.1862 305.699C45.4996 302.637 77.9613 295.162 80.9733 294.257Z" fill="#3B89A0"/>
<path d="M-9.78641 146.375C-13.1937 147.155 -14.8191 141.923 -11.3706 140.938C-6.94556 140.33 157.411 123.86 162.703 123.361C164.919 123.152 165.712 123.54 165.871 125.352C166.031 127.164 165.553 128.072 163.806 128.072C157.874 128.086 -8.85126 146.375 -9.78641 146.375Z" fill="#3B89A0"/>
<path d="M483.766 241.523C474.748 238.712 479.804 241.499 456.523 231.557C450.384 228.601 444.628 224.7 439.413 219.96C438.312 219.093 437.075 218.477 435.77 218.148C434.808 217.996 433.9 217.545 433.146 216.844C432.393 216.143 431.821 215.22 431.494 214.173C431.168 213.127 431.098 211.998 431.293 210.909C431.489 209.82 431.941 208.814 432.601 207.999C436.275 203.003 441.026 199.192 446.384 196.946C455.603 192.501 464.756 194.05 473.783 197.672C487.262 203.072 503.935 208.688 508.003 223.767C508.636 226.538 508.487 229.466 507.576 232.133C506.666 234.801 505.041 237.07 502.935 238.617C491.708 245.695 488.699 243.062 483.766 241.523ZM443.534 220.686C453.468 227.785 464.32 233.044 475.689 236.268C473.84 234.155 477.772 236.828 444.643 220.321C443.351 219.339 442.758 220.24 443.534 220.686V220.686ZM453.67 197.128C447.307 198.816 438.33 203.352 434.663 209.45C433.041 212.15 433.708 214.007 436.566 214.887C451.326 219.261 465.46 226.034 478.539 234.999C485.808 239.194 491.551 242.741 501.033 233.734C505.458 229.535 505.629 225.937 502.614 220.321C500.192 215.596 496.537 211.858 492.162 209.633C484.722 205.994 477.117 202.744 469.353 199.663C464.309 197.707 458.99 196.848 453.67 197.128V197.128Z" fill="#3B89A0"/>
<path d="M428.171 286.286C428.486 279.397 433.062 276.714 438.307 280.123C438.602 280.322 479.073 305.844 510.694 326.698C513.497 330.215 515.99 334.039 518.137 338.115C518.865 339.378 518.508 340.815 516.712 340.815C502.67 339.03 515.128 344.69 432.289 291.54C430.864 290.089 428.805 288.641 428.171 286.286ZM508.635 328.507L448.915 289.728C448.436 289.264 447.875 288.925 447.269 288.736C446.664 288.546 446.03 288.511 445.412 288.632C444.793 288.753 444.205 289.027 443.689 289.436C443.173 289.844 442.742 290.377 442.425 290.997C441.127 292.779 441.165 293.697 442.9 294.801C470.223 312.118 504.281 334.848 504.992 334.848C506.101 332.857 507.21 330.68 508.635 328.507V328.507ZM513.703 334.666L511.328 330.319C508.316 331.767 507.051 333.579 507.198 336.479C509.425 336.117 511.959 337.93 513.703 334.666ZM432.283 287.916C433.548 285.739 434.658 283.748 435.926 281.571C435.545 281.329 435.124 281.18 434.691 281.131C434.257 281.083 433.819 281.137 433.404 281.29C432.99 281.444 432.607 281.692 432.279 282.022C431.952 282.351 431.687 282.753 431.501 283.204C430.389 285.378 430.864 287.19 432.289 287.916H432.283ZM438.301 292.263C439.885 289.9 441.31 288.095 442.726 286.103C441.608 286.018 440.5 286.391 439.6 287.154C438.7 287.918 438.067 289.023 437.814 290.271C437.832 290.825 438.295 291.719 438.295 292.263H438.301ZM435.133 290.45C436.56 287.75 437.667 285.725 438.62 283.565C436.242 284.109 434.658 285.56 434.49 287.916C434.578 288.797 434.797 289.654 435.139 290.45H435.133Z" fill="#3B89A0"/>
<path d="M134.826 215.61C144.448 217.527 141.708 240.419 108.057 242.792C94.9976 243.713 66.356 237.851 71.3091 226.123C71.7239 224.734 72.4848 223.515 73.4981 222.616C74.5114 221.716 75.7328 221.175 77.0114 221.06C76.7704 221.609 76.3814 222.054 75.9022 222.329C75.0969 222.816 74.4278 223.552 73.9719 224.454C73.516 225.355 73.2918 226.386 73.3251 227.427C73.3584 228.468 73.6478 229.477 74.16 230.339C74.6723 231.2 75.3866 231.878 76.2208 232.296C90.4811 242.212 119.789 243.285 134.51 229.596C135.316 228.915 135.991 228.052 136.495 227.061C136.998 226.07 137.319 224.972 137.437 223.834C137.556 222.696 137.47 221.542 137.184 220.443C136.898 219.345 136.419 218.325 135.775 217.446C135.3 217.061 135.141 216.335 134.826 215.61Z" fill="#3B89A0"/>
<path d="M466.819 95.1053C464.518 95.1053 464.078 92.8778 465.709 91.4806C468.397 88.1663 502.794 85.6823 503.092 85.6823C503.89 85.6103 504.68 85.9039 505.289 86.4985C505.898 87.0932 506.275 87.9402 506.338 88.8532C506.401 89.7662 506.145 90.6704 505.625 91.367C505.105 92.0635 504.365 92.4953 503.567 92.5673C491.37 94.2164 479.1 95.0638 466.819 95.1053V95.1053Z" fill="#3B89A0"/>
<path d="M361.486 101.265C373.876 99.648 375.923 99.405 377.643 100.539C377.968 100.71 378.241 100.989 378.427 101.339C378.613 101.689 378.703 102.095 378.686 102.504C378.668 102.913 378.545 103.307 378.331 103.635C378.117 103.963 377.822 104.211 377.484 104.346C375.276 105.265 372.994 105.933 370.672 106.341C365.135 107.124 359.427 107.61 353.724 107.971C351.35 108.332 347.06 103.148 361.486 101.265Z" fill="#3B89A0"/>
<path d="M409.32 267.075C408.214 265.445 406.96 263.45 404.571 264.537C404.096 264.719 399.296 265.114 398.081 262.725C395.8 258.27 387.08 255.637 383.667 255.3C351.288 251.331 336.664 258.884 320.628 269.252C317.54 270.767 319.782 269.998 309.855 265.992C290.715 257.78 258.36 259.62 227.491 282.121C223.503 284.933 220.099 288.704 217.514 293.174C215.514 296.6 214.001 296.006 209.593 298.236C209.119 298.36 208.679 298.616 208.312 298.981C207.945 299.346 207.663 299.809 207.491 300.329C207.318 300.85 207.261 301.41 207.323 301.962C207.386 302.514 207.567 303.039 207.85 303.491C210.384 308.385 256.318 396.456 260.436 404.61C261.705 407.148 262.655 407.691 265.03 407.148C273.744 404.971 347.143 388.666 363.394 384.677C365.972 383.878 368.647 383.571 371.312 383.769C376.825 384.527 382.381 382.836 386.835 379.044C388.085 377.995 389.567 377.368 391.113 377.232C398.555 376.145 455.579 366.54 461.438 365.635C478.825 363.56 484.819 379.128 409.32 267.075ZM268.986 398.636C267.806 397.286 218.021 303.292 217.824 302.955C219.207 301.372 214.874 294.686 268.192 395.376C269.894 398.619 269.909 397.58 268.986 398.636ZM294.01 389.574C313.566 379.675 334.576 374.08 355.943 373.084L294.01 389.574ZM300.347 383.05C314.126 375.078 328.54 370.006 343.272 370.728C328.611 373.014 314.215 377.146 300.347 383.05V383.05ZM272.944 396.824C254.887 363.119 236.83 329.473 218.774 295.887C245.802 269.562 281.886 259.542 312.386 271.969C316.152 273.46 319.344 276.408 321.413 280.305C347.509 326.063 370.66 365.385 373.84 371.454C335.986 358.045 303.04 369.824 272.944 396.824V396.824ZM377.643 370.728C359.111 338.834 340.42 306.579 321.572 274.325C339.328 257.51 376.64 255.617 395.225 263.45C396.632 263.855 454.644 350.471 455.889 352.608C442.514 349.329 428.637 349.889 415.497 354.238C402.274 357.709 389.535 363.259 377.643 370.728V370.728ZM443.85 355.146C432.935 356.958 421.359 358.588 409.954 360.401C425.161 355.689 439.416 353.694 443.85 355.146V355.146ZM394.75 368.555C394.623 368.342 394.567 368.085 394.591 367.829C398.234 366.742 402.036 365.466 405.995 364.748C413.978 363.36 445.472 357.927 453.67 357.501C454.743 357.516 455.809 357.699 456.839 358.045C435.935 361.67 415.341 365.112 394.75 368.555Z" fill="#3B89A0"/>
<path d="M432.289 287.916C429.044 286.262 431.767 279.279 435.773 281.571C434.664 283.738 433.398 285.739 432.289 287.916Z" fill="#D63037"/>
<path d="M153.517 404.073C153.198 406.064 152.245 407.009 150.664 406.79C143.198 405.754 152.959 410.671 121.046 389.031C112.724 383.388 78.5956 362.345 78.5956 355.146C79.3714 354.258 88.2893 355.821 89.6846 356.776C160.278 405.558 148.449 396.827 153.517 404.073ZM120.412 385.588C121.211 386.503 135.938 396.533 146.546 403.709C147.646 404.454 148.13 403.891 148.764 402.986C149.399 401.896 148.764 401.36 147.974 400.809C144.994 398.741 127.22 386.297 121.521 382.507C121.207 383.559 120.836 384.588 120.412 385.588V385.588Z" fill="#3B89A0"/>
<path d="M353.249 156.537C356.146 157.047 354.134 155.741 397.759 198.758C399.405 200.014 398.199 201.296 397.125 201.296C391.107 202.019 247.76 220.699 241.267 221.772C240.252 221.963 239.211 221.826 238.259 221.378C237.308 220.93 236.484 220.187 235.881 219.234C204.906 176.261 203.915 176.372 204.36 174.836C205.608 171.981 352.901 156.473 353.249 156.537ZM233.506 187.705C231.603 188.066 230.178 188.427 228.594 188.61C227.169 188.974 228.435 189.518 229.388 189.518C235.025 187.725 237.438 191.971 243.958 201.296C241.742 201.657 239.999 201.84 238.255 202.201C236.671 202.926 238.099 202.744 238.255 202.926C239.782 203.119 241.322 203.119 242.849 202.926C243.638 202.715 244.465 202.773 245.226 203.096C245.987 203.418 246.647 203.989 247.126 204.739C248.634 206.463 250.22 208.096 251.879 209.629C252.354 209.994 252.828 210.355 252.354 209.086C250.769 207.095 249.345 205.1 247.601 203.109C247.568 203.064 247.546 203.011 247.537 202.955C247.527 202.898 247.531 202.839 247.547 202.784C247.563 202.729 247.591 202.68 247.628 202.641C247.665 202.602 247.711 202.575 247.76 202.562C250.294 202.201 261.065 200.571 266.608 200.027C267.408 200.15 268.142 200.601 268.673 201.296C272.753 205.964 278.266 213.278 276.594 209.45C274.375 206.369 272.169 203.109 269.782 200.027C270.416 199.663 274.859 199.194 287.048 197.665C292.594 196.99 294.37 196.176 296.075 198.39C297.845 200.706 299.719 202.92 301.462 205.275C302.253 206.723 302.887 206.001 301.937 204.732C300.353 202.012 298.61 199.477 296.869 196.578C303.678 195.67 310.333 194.766 317.141 193.858C319.501 193.858 322.251 199.808 325.378 202.194L325.853 201.651C324.112 199.113 322.528 196.588 320.785 194.04C320.339 193.028 320.224 193.662 339.317 190.776C341.538 190.439 342.96 190.054 344.544 192.589C347.397 198.39 348.674 199.295 347.553 196.035C347.078 195.127 345.969 192.589 345.338 191.141C345.292 191.047 345.269 190.941 345.27 190.834C345.272 190.727 345.298 190.622 345.346 190.53C345.394 190.438 345.463 190.362 345.544 190.31C345.626 190.258 345.719 190.231 345.812 190.233C348.347 189.872 354.686 188.454 360.383 187.698C365.613 187.003 367.209 185.873 369.094 188.242C370.531 190.044 372.106 191.684 373.69 193.497C374.796 194.945 375.271 194.583 374.321 192.953L369.896 186.791C369.82 186.723 369.765 186.629 369.74 186.523C369.714 186.417 369.72 186.304 369.755 186.202C369.791 186.1 369.855 186.013 369.937 185.956C370.02 185.899 370.116 185.875 370.212 185.886L375.599 184.256C376.864 183.891 376.233 183.53 375.439 183.53C368.032 184.3 368.622 185.832 364.669 180.449C362.934 178.086 356.748 172.113 355.798 171.026C356.31 170.687 356.839 170.383 357.382 170.118C358.492 169.757 358.492 169.214 356.907 169.575C356.012 169.792 355.082 169.731 354.214 169.396C353.898 169.214 351.524 165.953 350.73 164.863C349.78 163.959 349.78 164.502 350.255 165.228L352.32 169.031C352.366 169.125 352.389 169.231 352.388 169.338C352.386 169.445 352.36 169.55 352.312 169.642C352.264 169.734 352.195 169.81 352.113 169.862C352.031 169.914 351.939 169.941 351.845 169.939C345.193 170.844 338.697 171.752 332.204 172.474C330.089 172.474 329.254 170.837 326.977 168.67C326.342 167.401 325.868 167.945 326.661 169.031C327.452 170.3 328.086 171.569 328.879 172.838C329.195 173.564 329.036 173.743 328.72 173.743C325.711 174.468 319.69 174.634 316.035 175.194C306.846 176.605 306.35 176.848 302.731 171.93C301.909 170.876 301.008 169.906 300.037 169.031C299.562 168.309 299.247 168.852 299.562 169.575C300.99 171.569 302.731 174.107 304.315 176.281C304.347 176.325 304.368 176.378 304.377 176.434C304.387 176.491 304.383 176.549 304.367 176.603C304.351 176.657 304.323 176.706 304.286 176.745C304.249 176.784 304.204 176.811 304.156 176.824C301.781 177.006 291.963 177.557 287.683 178.454C284.202 179.187 283.553 178.998 280.874 175.376C280.169 174.209 279.374 173.116 278.496 172.113C277.387 170.483 277.706 171.752 278.021 172.656C279.131 174.468 280.24 176.463 281.349 178.454C281.382 178.538 281.4 178.628 281.402 178.719C281.404 178.811 281.39 178.902 281.36 178.986C281.33 179.071 281.286 179.148 281.229 179.213C281.172 179.278 281.105 179.328 281.03 179.362C273.744 180.631 266.649 181.927 259.495 183.166C256.879 183.621 257.787 182.491 253.634 177.732L253.159 178.275C254.112 180.088 255.224 181.718 256.486 183.709C250.309 184.978 244.288 185.873 238.27 187.334C237.384 187.63 236.435 187.555 235.593 187.122C234.751 186.689 234.071 185.926 233.677 184.971C229.718 179.355 229.084 179.717 229.718 180.624C230.773 183.122 232.042 185.494 233.506 187.705Z" fill="#D63037"/>
<path d="M235.406 233.008C235.111 232.67 232.586 230.46 235.721 229.565C242.211 228.657 404.411 207.456 411.379 206.551C412.745 206.551 413.698 208.472 411.539 209.086C394.844 211.553 238.76 232.238 235.406 233.008Z" fill="#3B89A0"/>
<path d="M188.837 174.114C232.176 229.802 233.199 228.232 231.288 230.109C230.178 231.195 229.397 229.916 228.754 229.022C220.473 217.479 186.462 175.569 186.462 174.836C186.462 174.293 186.451 171.043 188.837 174.114Z" fill="#3B89A0"/>
<path d="M257.262 299.512C255.427 300.589 253.657 301.797 253.132 300.238C252.501 297.345 265.864 290.693 267.23 290.089C279.668 284.509 293.018 282.097 306.353 283.022C308.652 283.309 310.929 283.794 313.165 284.473C320 288.371 287.361 281.868 257.262 299.512Z" fill="#3B89A0"/>
<path d="M314.445 296.613C318.245 298.425 314.601 298.976 313.967 298.976C306.269 299.027 298.607 300.184 291.161 302.418C290.686 302.6 286.883 302.057 290.527 300.056C304.66 294.875 307.781 294.855 314.445 296.613Z" fill="#3B89A0"/>
<path d="M379.227 334.487C377.327 331.045 375.425 327.781 373.525 324.521C373.247 324.313 372.935 324.174 372.608 324.111C372.281 324.048 371.946 324.064 371.625 324.156C370.029 324.659 368.297 325.243 366.554 325.608C367.507 323.07 369.722 322.526 371.625 321.075C370.197 318.358 368.932 315.641 367.495 312.742C361.784 315.105 362.126 314.983 360.524 314.372C361.486 312.722 359.795 313.36 366.386 310.204C364.483 306.397 362.742 302.779 360.84 298.969C359.574 299.512 358.306 300.056 356.881 300.599C356.881 298.064 358.781 297.899 359.733 296.795C358.306 293.353 356.881 289.907 355.456 286.282C355.615 286.103 355.533 283.319 357.99 287.19C362.12 293.69 362.498 295.526 363.692 295.526C368.92 294.257 373.988 292.806 379.215 291.358C373.829 280.123 373.038 276.316 381.115 289.546C381.298 290.159 381.678 290.669 382.179 290.972C382.68 291.275 383.262 291.348 383.808 291.176C387.605 290.754 391.411 290.633 395.529 290.45C395 289.358 394.576 288.204 394.263 287.008C390.133 272.33 396.479 285.921 396.479 286.103C399.393 296.107 406.453 287.669 409.459 294.075C406.925 293.896 404.231 293.714 401.063 293.532C402.806 296.613 404.231 299.33 405.815 302.05C406.187 302.897 413.952 302.114 416.27 304.75C413.577 306.38 410.884 304.75 407.875 305.837C409.143 308.199 410.409 310.562 411.836 312.904C411.993 313.269 412.786 313.269 413.418 313.269C415.795 313.448 418.014 313.448 420.388 313.63C421.044 313.789 421.681 314.032 422.288 314.355C422.288 315.672 423.226 314.632 413.733 316.347C415.158 319.067 416.427 321.784 418.011 324.322C418.834 325.267 421.551 324.612 427.988 325.047C428.61 325.047 431.528 326.235 430.681 327.221C427.197 327.582 423.71 327.947 420.061 328.308C420.333 329.669 420.703 331.002 421.167 332.294C425.297 345.341 425.129 345.885 419.102 333.927C417.922 332.121 416.89 329.033 415.303 329.033C411.173 329.759 407.223 330.485 402.948 331.207C404.057 334.288 406.116 340.451 406.748 342.807C408.175 347.154 405.798 343.168 405.641 342.986C401.624 336.479 400.452 332.476 398.671 332.476C393.918 333.563 389.325 334.838 384.573 335.918C386 338.817 387.266 341.538 388.534 344.255C389.644 346.249 388.375 345.885 387.741 344.798C386.791 343.529 385.676 342.435 384.732 341.173C383.628 339.719 382.667 337.37 381.407 337.005C379.734 336.371 377.917 338.176 372.537 339.543C373.525 336.843 376.534 336.3 379.227 334.487ZM369.247 308.935C374.315 307.487 379.227 305.854 384.136 304.406C382.87 301.142 381.446 298.064 380.006 294.44C374.779 295.526 369.386 296.802 363.692 298.064C365.763 301.868 367.495 305.493 369.247 308.935ZM375.9 322.526C377.965 326.151 379.861 329.594 381.761 332.857C381.889 333.044 382.065 333.179 382.264 333.244C382.464 333.309 382.676 333.3 382.87 333.218C387.463 331.767 392.216 330.319 396.965 328.689C395.384 325.608 393.8 322.709 392.216 319.809C392.101 319.601 391.933 319.437 391.735 319.34C391.537 319.243 391.318 319.217 391.107 319.266C386.195 320.353 381.286 321.44 375.9 322.526V322.526ZM390.157 316.185C388.888 313.647 387.463 311.122 386.195 308.574C385.629 307.275 383.348 308.719 370.516 311.473C371.941 314.372 373.05 316.536 374.315 318.898C374.634 319.263 375.268 319.806 375.743 319.624C380.493 318.54 385.245 317.454 390.157 316.185V316.185ZM395.066 318.358C399.116 325.942 399.948 328.146 400.927 328.146C405.057 327.42 409.164 326.512 413.438 325.608C412.013 322.887 410.748 320.353 409.308 317.815C408.863 316.769 407.686 316.866 395.066 318.358V318.358ZM382.87 294.075C387.564 303.92 386.154 303.998 391.741 303.319C394.75 302.951 397.759 302.594 400.927 302.229C399.659 299.512 398.429 296.947 397.125 294.618C396.97 294.33 396.763 294.084 396.517 293.896C396.271 293.708 395.992 293.584 395.7 293.532C391.579 293.623 387.463 293.896 382.87 294.075V294.075ZM389.048 307.123C390.473 310.022 391.741 312.378 393.178 314.733C393.328 314.955 393.519 315.135 393.738 315.26C393.957 315.386 394.198 315.454 394.443 315.459C398.721 314.916 402.839 314.19 407.273 313.647C401.556 303.856 406.054 305.732 389.048 307.123V307.123Z" fill="#3B89A0"/>
<path d="M351.35 277.042C350.875 275.411 351.984 274.504 353.093 274.142C369.191 267.359 385.67 268.648 388.729 272.148C390.107 273.724 388.587 274.676 387.623 274.325C376.115 270.133 362.79 273.771 351.35 277.042Z" fill="#3B89A0"/>
<path d="M447.968 202.019C450.346 202.019 452.564 201.84 454.78 202.019C456.048 202.201 459.205 206.369 460.166 207.274C458.101 206.912 453.514 206.008 453.195 205.826C451.611 204.739 450.027 203.47 447.968 202.019Z" fill="#3B89A0"/>
<path d="M293.535 194.773C290.686 195.134 288.311 195.519 285.933 195.859C280.553 196.632 275.163 197.128 269.776 197.851C269.142 197.851 268.192 197.851 267.876 197.307C265.024 193.504 262.174 189.518 259.006 185.157C262.333 184.614 276.762 182.363 280.865 181.533C281.592 181.31 282.36 181.347 283.068 181.638C283.775 181.93 284.388 182.461 284.824 183.163C287.338 186.818 290.367 190.605 293.535 194.773Z" fill="#D63037"/>
<path d="M364.654 184.081C364.73 184.148 364.785 184.242 364.811 184.348C364.836 184.454 364.831 184.567 364.795 184.669C364.759 184.772 364.695 184.858 364.613 184.915C364.531 184.972 364.434 184.996 364.338 184.985C362.188 185.275 353.279 186.862 344.063 187.705C341.458 187.705 343.302 187.955 332.977 175.555C332.901 175.488 332.846 175.394 332.82 175.288C332.795 175.182 332.801 175.069 332.836 174.967C332.872 174.864 332.936 174.778 333.018 174.721C333.101 174.664 333.197 174.64 333.293 174.651C353.353 171.485 353.353 170.793 354.043 171.569C357.686 175.738 361.129 179.956 364.654 184.081Z" fill="#D63037"/>
<path d="M308.109 177.918C315.422 176.871 324.859 175.866 328.54 175.201C329.267 175.042 330.018 175.109 330.715 175.396C331.411 175.683 332.027 176.178 332.499 176.831C335.257 180.577 338.201 184.256 341.213 188.249C336.7 188.984 337.364 188.741 319.829 191.148C319.165 191.161 318.509 190.974 317.929 190.604C314.601 186.797 311.439 182.811 308.109 178.826V177.918Z" fill="#D63037"/>
<path d="M316.504 191.691C311.118 192.417 305.884 192.771 300.663 194.054C298.845 194.619 296.914 194.459 295.187 193.6C293.46 192.741 292.04 191.234 291.161 189.329C289.426 186.686 287.575 184.145 285.615 181.718C285.555 181.628 285.516 181.523 285.5 181.411C285.485 181.3 285.493 181.186 285.524 181.079C285.555 180.972 285.609 180.875 285.68 180.797C285.752 180.719 285.839 180.662 285.933 180.631C305.244 178.269 302.48 178.478 304.625 178.269C305.575 178.269 306.052 178.988 306.69 179.717C310.198 183.445 313.478 187.446 316.504 191.691Z" fill="#D63037"/>
<path d="M237.149 188.974C242.533 188.066 245.551 187.418 252.038 186.436C255.843 185.859 257.416 184.161 259.321 187.884C262.41 193.919 264.083 194.151 266.452 198.215C257.254 199.383 253.017 200.196 247.445 200.753C245.026 200.753 244.79 199.612 236.99 189.696C236.927 189.654 236.877 189.589 236.849 189.512C236.821 189.434 236.815 189.348 236.833 189.267C236.851 189.186 236.892 189.113 236.949 189.06C237.006 189.008 237.076 188.977 237.149 188.974V188.974Z" fill="#D63037"/>
</svg>
