<svg width="61" height="76" viewBox="0 0 61 76" fill="none" xmlns="http://www.w3.org/2000/svg">
<path fill-rule="evenodd" clip-rule="evenodd" d="M48.7992 10.2853C48.7122 11.4987 47.7396 12.333 46.6267 12.1487C37.4221 10.624 28.2833 8.63097 19.1789 6.64539C18.0201 6.39267 16.8619 6.14006 15.7041 5.88856C14.5965 5.64796 13.811 4.47722 13.9497 3.27366C14.0883 2.0701 15.0987 1.28947 16.2063 1.53008C17.367 1.78222 18.5262 2.03502 19.6842 2.28754C28.7998 4.2754 37.839 6.24662 46.9416 7.75436C48.0545 7.93869 48.8861 9.07183 48.7992 10.2853Z" fill="#D63037"/>
<path fill-rule="evenodd" clip-rule="evenodd" d="M2.6167 35.5589C2.43352 34.1534 3.16647 32.8818 4.25381 32.7187C6.30573 32.411 8.35617 32.1065 10.405 31.8022C22.3787 30.0241 34.2966 28.2543 46.13 25.8935C47.2097 25.6781 48.2663 26.6372 48.4899 28.0356C48.7136 29.4341 48.0196 30.7424 46.9398 30.9578C35.0249 33.3349 23.0217 35.1172 11.0511 36.8948C9.0053 37.1985 6.96046 37.5022 4.91718 37.8086C3.82985 37.9717 2.79989 36.9645 2.6167 35.5589Z" fill="#D63037"/>
<path fill-rule="evenodd" clip-rule="evenodd" d="M24.7067 69.5531C24.0873 68.354 24.3095 66.7857 25.203 66.0502L54.342 42.0618C55.2355 41.3263 56.4618 41.702 57.0811 42.9011C57.7005 44.1002 57.4783 45.6685 56.5848 46.404L27.4458 70.3924C26.5524 71.128 25.326 70.7522 24.7067 69.5531Z" fill="#D63037"/>
</svg>
