<svg width="293" height="313" viewBox="0 0 293 313" fill="none" xmlns="http://www.w3.org/2000/svg">
<path fill-rule="evenodd" clip-rule="evenodd" d="M86.6436 294.211C87.6793 294.891 88.5254 293.863 88.5335 291.915C88.5696 283.208 88.5236 274.525 88.478 265.916C88.2484 222.588 88.0288 181.142 98.3368 147.968C106.558 121.511 122.154 98.8494 141.021 105.14C141.917 120.54 145.494 136.415 151.345 152.557C154.108 160.18 158.127 170.212 162.71 178.21C167.277 186.179 172.744 192.695 178.119 191.832C182.76 191.087 183.605 182.708 183.221 174.901C182.83 166.956 181.143 157.912 179.61 152.323C172.452 126.243 157.55 106.558 144.551 99.5801C144.57 93.8567 145.022 88.2152 145.928 82.6518C149.981 57.7724 158.991 42.1274 170.182 31.1926C180.904 20.7152 193.518 14.6595 205.549 8.88317C206.103 8.61711 206.656 8.35163 207.208 8.08634C208.098 7.65824 208.389 5.67505 207.86 3.65675C207.33 1.63845 206.179 0.349339 205.289 0.777436C204.71 1.05578 204.129 1.33468 203.546 1.61461C191.584 7.35575 178.715 13.5322 167.739 24.2579C156.201 35.5316 146.632 51.9373 142.315 78.4373C141.275 84.8198 140.781 91.3139 140.799 97.9027C140.673 97.8583 140.548 97.8152 140.423 97.7735C119.792 90.8881 103.412 115.521 94.9667 142.701C84.2341 177.241 84.4783 220.654 84.7222 264.017C84.77 272.52 84.8178 281.021 84.7829 289.453C84.7748 291.401 85.6079 293.531 86.6436 294.211ZM144.751 106.767C156.722 113.167 170.18 131.261 176.433 154.047C177.69 158.626 179.158 166.484 179.487 173.179C179.824 180.012 178.956 184.011 176.651 184.381C172.852 184.991 168.709 180.482 164.604 173.32C160.516 166.186 156.803 156.981 154.146 149.65C148.779 134.845 145.558 120.568 144.751 106.767Z" fill="#D63037"/>
<path fill-rule="evenodd" clip-rule="evenodd" d="M85.4382 295.835C85.231 294.87 85.028 293.924 84.9075 293.45C83.897 289.468 82.8424 285.48 81.8002 281.539C81.3659 279.896 80.9337 278.262 80.5078 276.64C79.9779 274.622 78.8269 273.333 77.937 273.761C77.0471 274.189 76.7552 276.172 77.2851 278.19C77.727 279.874 78.1683 281.542 78.6075 283.203C79.6405 287.11 80.6618 290.971 81.6513 294.87C81.6507 294.868 81.6508 294.868 81.6518 294.872C81.6553 294.887 81.6695 294.947 81.6978 295.072C81.7306 295.218 81.772 295.406 81.8228 295.641C81.8803 295.906 81.9417 296.192 82.0104 296.512C82.0681 296.78 82.1308 297.072 82.2008 297.396C82.4956 298.761 82.8729 300.484 83.2747 302.161C83.664 303.786 84.1271 305.586 84.6033 307.017C84.8291 307.695 85.1606 308.608 85.5896 309.389C86.022 310.175 86.9732 311.527 87.9678 311.048C89.1464 310.481 90.0254 309.177 90.7078 307.812C91.2987 306.629 91.806 305.26 92.2314 304.113C92.2918 303.95 92.3506 303.791 92.4077 303.638C92.9428 302.206 93.575 300.971 94.2781 299.701C94.4588 299.375 94.6477 299.041 94.8412 298.698C95.3758 297.752 95.9455 296.743 96.4744 295.672C97.0724 294.461 96.8717 292.125 96.026 290.455C95.1803 288.784 94.01 288.412 93.412 289.623C92.9389 290.581 92.4533 291.44 91.9382 292.352C91.7329 292.716 91.5228 293.088 91.307 293.477C90.573 294.803 89.8131 296.267 89.1466 298.051C89.0834 298.22 89.0211 298.388 88.9594 298.554C88.5247 299.724 88.1217 300.809 87.6546 301.744C87.4513 302.151 87.2487 302.501 87.0443 302.793C86.9004 302.249 86.7456 301.631 86.5835 300.954C86.2267 299.465 85.8813 297.891 85.592 296.55C85.5413 296.316 85.4896 296.075 85.4382 295.835Z" fill="#D63037"/>
</svg>
