<svg width="895" height="5" viewBox="0 0 895 5" fill="none" xmlns="http://www.w3.org/2000/svg">
<path fill-rule="evenodd" clip-rule="evenodd" d="M894.98 0.633777C895.269 1.01057 892.332 1.33857 888.421 1.36638C858.732 1.57748 829.032 1.79539 799.32 2.01339C668.459 2.97351 537.384 3.93519 406.234 4.32281C302.636 4.62899 198.966 4.60193 95.4504 4.5749C65.9865 4.56721 36.5352 4.55952 7.10165 4.55952C3.17952 4.55952 0 4.25324 0 3.87542C0 3.4976 3.17952 3.19131 7.10165 3.19131C36.6229 3.19131 66.1318 3.19901 95.6308 3.20671C199.107 3.2337 302.461 3.26066 405.798 2.95524C536.595 2.56867 667.275 1.60993 798.118 0.649999C827.861 0.431787 857.612 0.213514 887.375 0.00188699C891.287 -0.0259252 894.692 0.256982 894.98 0.633777Z" fill="#D63037"/>
</svg>
