<svg width="323" height="323" viewBox="0 0 323 323" fill="none" xmlns="http://www.w3.org/2000/svg">
<!-- <circle cx="161.5" cy="161.5" r="161.5" fill="#EEE4D3"/> -->
<path d="M66.506 156.882C63.4353 156.882 61.1813 155.837 59.744 153.746C58.3067 151.655 58.3067 149.042 59.744 145.906L84.146 93.378C85.322 90.83 86.7593 88.968 88.458 87.792C90.1567 86.616 92.1493 86.028 94.436 86.028C96.6573 86.028 98.6173 86.616 100.316 87.792C102.015 88.968 103.452 90.83 104.628 93.378L129.03 145.906C130.533 149.107 130.598 151.753 129.226 153.844C127.854 155.869 125.698 156.882 122.758 156.882C120.145 156.882 118.119 156.294 116.682 155.118C115.31 153.942 114.069 152.047 112.958 149.434L109.822 141.986H78.952L75.816 149.434C74.64 152.047 73.4313 153.942 72.19 155.118C70.9487 156.294 69.054 156.882 66.506 156.882ZM94.24 105.726L84.832 128.168H103.844L94.436 105.726H94.24ZM154.97 156C152.03 156 149.776 155.216 148.208 153.648C146.64 152.015 145.856 149.761 145.856 146.886V95.926C145.856 92.986 146.64 90.732 148.208 89.164C149.776 87.596 151.997 86.812 154.872 86.812C157.747 86.812 159.968 87.596 161.536 89.164C163.104 90.732 163.888 92.986 163.888 95.926V141.006H187.8C190.283 141.006 192.177 141.659 193.484 142.966C194.856 144.273 195.542 146.102 195.542 148.454C195.542 150.871 194.856 152.733 193.484 154.04C192.177 155.347 190.283 156 187.8 156H154.97ZM220.136 156C217.196 156 214.942 155.216 213.374 153.648C211.806 152.015 211.022 149.761 211.022 146.886V95.926C211.022 92.986 211.806 90.732 213.374 89.164C214.942 87.596 217.164 86.812 220.038 86.812C222.913 86.812 225.134 87.596 226.702 89.164C228.27 90.732 229.054 92.986 229.054 95.926V141.006H252.966C255.449 141.006 257.344 141.659 258.65 142.966C260.022 144.273 260.708 146.102 260.708 148.454C260.708 150.871 260.022 152.733 258.65 154.04C257.344 155.347 255.449 156 252.966 156H220.136Z" fill="#DB474D"/>
<path d="M61.616 227C58.976 227 57.656 225.68 57.656 223.04V168.92C57.656 166.28 58.976 164.96 61.616 164.96H82.472C88.8667 164.96 93.7947 166.397 97.256 169.272C100.776 172.088 102.536 176.048 102.536 181.152C102.536 184.555 101.656 187.459 99.896 189.864C98.136 192.269 95.7013 194.029 92.592 195.144C96.1707 196.083 98.9573 197.813 100.952 200.336C103.005 202.859 104.032 206.056 104.032 209.928C104.032 215.443 102.243 219.667 98.664 222.6C95.0853 225.533 90.04 227 83.528 227H61.616ZM64.696 192.68H81.416C90.744 192.68 95.408 189.043 95.408 181.768C95.408 174.435 90.744 170.768 81.416 170.768H64.696V192.68ZM64.696 221.192H82.824C92.2107 221.192 96.904 217.408 96.904 209.84C96.904 202.272 92.2107 198.488 82.824 198.488H64.696V221.192ZM116.421 227C113.957 227 112.725 225.739 112.725 223.216V168.304C112.725 165.781 113.927 164.52 116.333 164.52C118.738 164.52 119.941 165.781 119.941 168.304V220.664H148.805C151.034 220.664 152.149 221.72 152.149 223.832C152.149 225.944 151.034 227 148.805 227H116.421ZM178.974 227.792C173.225 227.792 168.209 226.501 163.926 223.92C159.702 221.28 156.417 217.584 154.07 212.832C151.782 208.08 150.638 202.448 150.638 195.936C150.638 189.424 151.782 183.792 154.07 179.04C156.358 174.288 159.614 170.621 163.838 168.04C168.121 165.459 173.166 164.168 178.974 164.168C184.841 164.168 189.886 165.459 194.11 168.04C198.393 170.621 201.678 174.288 203.966 179.04C206.313 183.733 207.486 189.336 207.486 195.848C207.486 202.36 206.313 208.021 203.966 212.832C201.62 217.584 198.305 221.28 194.022 223.92C189.798 226.501 184.782 227.792 178.974 227.792ZM178.974 221.368C185.604 221.368 190.737 219.139 194.374 214.68C198.012 210.221 199.83 203.973 199.83 195.936C199.83 187.899 198.012 181.68 194.374 177.28C190.737 172.821 185.604 170.592 178.974 170.592C172.462 170.592 167.388 172.821 163.75 177.28C160.113 181.68 158.294 187.899 158.294 195.936C158.294 203.915 160.113 210.163 163.75 214.68C167.388 219.139 172.462 221.368 178.974 221.368ZM244.323 227.792C234.35 227.792 226.753 224.976 221.531 219.344C216.31 213.712 213.699 205.939 213.699 196.024C213.699 189.453 214.873 183.792 217.219 179.04C219.566 174.288 222.939 170.621 227.339 168.04C231.739 165.459 237.049 164.168 243.267 164.168C246.963 164.168 250.542 164.696 254.003 165.752C257.465 166.749 260.545 168.363 263.243 170.592C264.065 171.179 264.534 171.912 264.651 172.792C264.769 173.613 264.593 174.405 264.123 175.168C263.713 175.872 263.097 176.341 262.275 176.576C261.513 176.811 260.691 176.635 259.811 176.048C257.406 174.171 254.854 172.821 252.155 172C249.457 171.12 246.465 170.68 243.179 170.68C236.139 170.68 230.742 172.909 226.987 177.368C223.233 181.768 221.355 187.987 221.355 196.024C221.355 204.237 223.291 210.515 227.163 214.856C231.035 219.197 236.814 221.368 244.499 221.368C249.486 221.368 254.267 220.517 258.843 218.816V200.424H246.259C244.147 200.424 243.091 199.456 243.091 197.52C243.091 195.643 244.147 194.704 246.259 194.704H262.011C264.065 194.704 265.091 195.731 265.091 197.784V220.752C265.091 222.571 264.446 223.744 263.155 224.272C260.691 225.328 257.729 226.179 254.267 226.824C250.865 227.469 247.55 227.792 244.323 227.792Z" fill="#222222"/>
</svg>
