<svg width="260" height="237" viewBox="0 0 260 237" fill="none" xmlns="http://www.w3.org/2000/svg">
<path d="M128.096 137.831C87.075 135.75 49.4938 134.808 43.4346 138.204C40.3134 139.959 35.4576 163.023 33.2264 178.448C20.6266 176.944 4.79292 175.56 -11.0257 174.482C-8.67676 162.614 -7.22774 155.179 -1.89804 143.712C-1.09081 141.975 -3.30193 141.273 -4.2019 142.86C-9.54224 152.636 -13.1287 163.272 -14.7986 174.287C-36.2152 172.88 -57.3461 172.03 -70.5901 172.03C-69.086 159.069 -60.7555 129.202 -45.8217 113.887C-34.31 102.082 -11.9783 91.5757 7.78621 89.0889C8.09409 91.828 9.15067 94.4294 10.84 96.6074C12.5294 98.7854 14.7861 100.456 17.3626 101.435C27.9218 105.584 47.1949 106.675 64.3874 97.2313C82.5249 102.406 115.764 122.145 128.096 137.831Z" fill="#D63037"/>
<path d="M-93.0102 230.081C15.1458 232.114 122.813 231.713 230.911 231.835C233.097 231.835 233.591 235.252 231.33 235.292C123.475 237.285 14.3335 234.939 -93.5041 233.618C-95.808 233.598 -95.3015 230.038 -93.0102 230.081Z" fill="#D63037"/>
<path d="M55.7806 0.354022C63.6223 1.85817 70.5389 18.988 61.8875 27.0076C56.5904 31.9186 32.1956 32.1267 17.4073 31.4975C17.3009 33.3073 16.9127 35.0895 16.2566 36.7795C15.6675 38.2837 13.9026 38.76 14.3413 36.0475C14.581 34.5026 14.6908 32.9404 14.6697 31.3771C11.6764 31.2292 9.31243 31.0487 7.78572 30.8758C8.18414 34.2161 8.75816 37.5332 9.50544 40.8132C9.91908 42.6106 7.90102 42.9466 7.21664 41.2318C5.11805 35.8084 4.26889 29.9816 4.73229 24.1848C5.62475 11.407 41.4561 -2.39857 55.7806 0.354022ZM53.3113 7.10265C56.9188 7.92743 57.7711 13.4075 58.0995 16.3381C58.6636 21.352 61.8599 17.8423 61.0928 13.4326C60.5062 10.1084 57.6658 4.6935 53.5219 5.23248C53.2818 5.21959 53.0458 5.29894 52.8623 5.45431C52.6788 5.60968 52.5616 5.82932 52.5347 6.06826C52.5078 6.30721 52.5732 6.5474 52.7176 6.73969C52.862 6.93198 53.0744 7.06182 53.3113 7.10265Z" fill="#3B89A0"/>
<path d="M26.4629 51.9414C24.4647 48.5571 23.0908 44.8413 22.4067 40.9711C19.0392 41.581 15.8281 42.8597 12.9631 44.7315C11.2584 45.466 10.6116 43.2273 11.459 42.5329C14.5359 40.0255 18.2966 38.5029 22.2512 38.1633C24.0763 34.7063 37.9496 33.9016 40.0905 37.5491C40.6144 37.2551 41.1946 37.0752 41.793 37.0212C42.3914 36.9672 42.9945 37.0403 43.5626 37.2358C44.6531 34.2425 56.957 33.493 60.023 36.95C63.5552 36.5614 65.0218 39.8229 60.3539 39.7929C60.1811 43.0328 59.5818 46.2359 58.5715 49.3191C57.3632 51.791 48.6742 51.7534 46.9444 50.5024C44.8862 49.0158 43.9511 42.5254 43.367 40.026C42.5193 39.7598 41.6034 39.8133 40.7924 40.1764C40.8107 43.5272 40.4295 46.8683 39.6568 50.1289C38.3281 52.7712 28.3907 54.2177 26.4629 51.9414ZM47.8945 47.6295C48.3032 48.6147 48.6717 48.8504 51.9657 48.72C57.5311 48.5019 56.3654 49.7077 58.0701 38.4993C54.1498 37.1681 49.8996 37.1681 45.9792 38.4993C46.033 41.6366 46.683 44.735 47.8945 47.6295ZM37.4181 48.7651C38.0393 45.6836 38.2609 42.5349 38.0774 39.3967C33.7783 37.8619 29.0584 38.0061 24.8609 39.8004C25.096 42.2657 25.7285 44.6767 26.7336 46.9401C28.1576 50.0562 28.3932 50.4648 32.8831 50.0988C35.039 49.9233 37.1148 49.4445 37.4181 48.7676V48.7651Z" fill="#3B89A0"/>
<path d="M35.2921 46.7621C34.8233 48.4517 31.5318 48.6498 32.2989 43.7688C32.7376 40.9912 36.6533 41.8636 35.2921 46.7621Z" fill="#3B89A0"/>
<path d="M6.85813 44.7415C15.4468 45.461 19.686 61.1944 24.2486 62.7011C27.4374 63.7565 34.5897 59.1688 41.8171 58.675C49.0446 58.1811 53.1609 61.2345 54.5097 60.5903C55.8584 59.946 54.9283 54.3054 54.9283 52.9893C54.9283 51.6731 55.6453 50.9537 56.9188 53.8567C58.1923 56.7597 70.6116 84.6266 65.2092 92.1248C57.4879 102.839 25.9784 105.108 16.1964 97.7378C3.93257 88.4973 14.3689 58.8204 11.348 51.089C10.78 49.9839 9.87417 49.0889 8.76226 48.5343C7.65036 47.9797 6.39044 47.7945 5.16595 48.0055C1.03455 49.7955 2.17021 62.0443 8.77343 60.1265C10.433 59.6477 10.809 61.7334 9.27481 62.5381C4.78993 64.8971 0.387764 61.2195 -0.198853 55.055C-0.637566 50.3871 0.946815 44.2476 6.85813 44.7415ZM41.055 72.5683C47.2797 72.5683 48.5382 70.099 49.0621 66.0503C43.674 67.2084 38.0917 67.1115 32.7471 65.7671C33.3161 69.4673 34.1058 72.5783 41.055 72.5783V72.5683Z" fill="#3B89A0"/>
<path d="M44.0334 46.2682C45.1859 48.9255 46.049 51.699 46.608 54.541C47.2272 57.9128 42.7423 57.9228 40.2153 57.5343C38.7112 57.3036 38.4354 55.5889 40.0825 55.4686C41.2933 55.3783 43.6724 55.3182 43.898 54.8995C43.6909 52.1025 43.1531 49.3398 42.2961 46.6693C41.9476 45.5662 43.5571 45.1351 44.0334 46.2682Z" fill="#3B89A0"/>
<path d="M51.1535 46.8774C49.7596 46.346 49.6493 42.5931 50.8401 41.8937C53.8459 40.1088 54.2646 48.0507 51.1535 46.8774Z" fill="#3B89A0"/>
<path d="M158.718 181.71C178.523 180.531 209.2 176.656 227.681 168.721C230.057 167.698 241.797 169.616 255.127 163.457C256.52 162.815 257.074 164.778 255.771 165.583C248.959 169.779 240.356 170.897 232.499 171.15C230.387 171.096 228.295 171.563 226.407 172.512C204.632 180.321 181.7 184.418 158.568 184.633C156.667 184.66 156.727 181.83 158.718 181.71Z" fill="#3B89A0"/>
<path d="M-66.4464 176.024C-66.0604 173.913 -63.215 174.657 -63.571 176.756C-64.7959 184.288 -64.3101 191.999 -62.1496 199.318C-57.0329 217.15 -41.9764 214.289 -26.9048 213.595C-11.0862 212.868 10.699 211.351 24.3667 210.722C24.6685 210.682 24.974 210.761 25.2182 210.943C25.4623 211.125 25.6258 211.395 25.6738 211.696C25.7219 211.996 25.6507 212.304 25.4753 212.553C25.3 212.802 25.0344 212.972 24.7352 213.028C11.5864 215.117 -16.5011 216.353 -27.4438 216.871C-42.4101 217.583 -59.1062 219.579 -64.679 202.251C-67.421 193.788 -68.0282 184.778 -66.4464 176.024Z" fill="#3B89A0"/>
<path d="M31.6568 184.958C12.2887 181.878 -7.22229 179.776 -26.802 178.659C-27.1184 178.63 -27.4115 178.48 -27.6201 178.24C-27.8286 178.001 -27.9364 177.69 -27.9208 177.372C-27.9053 177.055 -27.7676 176.756 -27.5367 176.538C-27.3057 176.32 -26.9993 176.199 -26.6816 176.202C-6.96819 177.011 12.6784 179.01 32.1507 182.188C32.5181 182.255 32.844 182.464 33.0567 182.771C33.2694 183.078 33.3516 183.457 33.2851 183.824C33.2186 184.191 33.0089 184.517 32.7022 184.73C32.3954 184.943 32.0167 185.025 31.6494 184.958H31.6568Z" fill="#3B89A0"/>
<path d="M237.856 163.274C237.647 163.272 237.441 163.229 237.25 163.146C237.059 163.063 236.886 162.942 236.742 162.791C236.599 162.64 236.487 162.461 236.414 162.266C236.341 162.071 236.308 161.863 236.317 161.654C236.326 161.446 236.377 161.241 236.467 161.053C236.557 160.865 236.684 160.697 236.84 160.559C236.996 160.421 237.179 160.316 237.377 160.25C237.574 160.184 237.784 160.158 237.991 160.175C247.297 160.473 251.993 157.831 258.134 153.469C259.107 152.78 260.14 153.996 259.388 154.973C255.016 160.752 244.815 163.544 237.856 163.274Z" fill="#3B89A0"/>
<path d="M222.375 147.405C221.242 149.37 218.866 149.636 216.75 150.115C204.253 152.955 175.657 152.007 162.392 151.852C160.507 151.829 160.888 149.393 162.826 149.41C172.51 149.508 201.739 149.784 216.241 147.106C218.918 146.605 218.781 147.001 220.147 144.85C222.729 140.774 226.58 135.788 231.25 135.705C232.644 135.68 232.754 137.024 231.566 137.62C227.44 139.69 224.183 143.157 222.375 147.405Z" fill="#3B89A0"/>
<path d="M230.648 147.961C237.121 146.061 246.269 143.013 251.3 136.512C252.805 134.562 254.083 136.079 253.336 137.65C250.202 144.249 238.731 150.185 232.145 150.436C228.503 150.589 229.515 148.292 230.648 147.961Z" fill="#3B89A0"/>
<path d="M256.863 142.845C257.07 142.593 257.365 142.43 257.688 142.39C258.011 142.349 258.337 142.434 258.6 142.627C258.862 142.819 259.041 143.105 259.1 143.425C259.158 143.746 259.091 144.076 258.913 144.349C256.524 147.777 253.421 150.648 249.817 152.763C246.213 154.879 242.194 156.19 238.036 156.605C237.708 156.617 237.386 156.521 237.118 156.332C236.85 156.144 236.651 155.873 236.551 155.56C236.451 155.248 236.456 154.912 236.565 154.603C236.673 154.294 236.88 154.029 237.153 153.848C239.352 152.9 248.698 152.291 256.863 142.845Z" fill="#3B89A0"/>
<path d="M-31.7403 219.544C-27.2504 218.96 24.8308 220.113 27.2425 219.125C29.6542 218.138 42.1286 147.094 45.3876 142.426C48.6466 137.758 151.302 140.719 155.97 143.414C160.638 146.109 145.223 227.258 141.23 228.9C137.667 230.361 -26.388 228.331 -31.7478 228.047C-37.1076 227.764 -36.2302 220.128 -31.7403 219.544ZM97.5967 196.197C111.603 197.363 115.992 174.387 101.996 172.103C95.353 171.017 89.4993 176.909 88.2584 184.164C88.0004 185.578 88.0434 187.03 88.3847 188.426C88.726 189.823 89.3578 191.131 90.239 192.267C91.1202 193.402 92.231 194.339 93.4988 195.016C94.7666 195.694 96.1629 196.096 97.5967 196.197Z" fill="#3B89A0"/>
</svg>
