<svg width="655" height="891" viewBox="0 0 655 891" fill="none" xmlns="http://www.w3.org/2000/svg">
<path d="M227.709 321.576C226.806 321.126 226.229 318.86 226.576 317.618C228.778 309.691 271.819 160.584 272.311 157.995C273.031 154.146 275.491 152.744 279.33 154.133C292.724 158.98 484.695 230.297 495.673 234.396C498.052 235.289 499.224 236.436 498.623 239.256C496.83 247.65 463.255 391.638 460.251 403.968C460.09 404.713 459.762 405.412 459.292 406.013C458.822 406.613 458.222 407.1 457.537 407.437C456.852 407.774 456.1 407.952 455.336 407.958C454.572 407.964 453.817 407.797 453.126 407.471C443.715 403.644 230.771 323.383 227.709 321.576Z" fill="#EDEDED"/>
<path d="M-30.1384 458.835C-27.6442 451.327 -27.5187 444.751 -20.306 445.951C-14.7699 446.867 -14.8709 446.964 -10.8089 438.829C-6.81712 429.697 0.378464 422.339 9.42622 418.138C15.718 414.666 22.6363 412.469 29.7841 411.673C36.9319 410.878 44.1687 411.5 51.0792 413.503C62.4946 416.484 65.7838 416.421 91.7511 433.51C100.877 439.515 125.033 458.341 137.316 464.716C152.428 472.561 168.514 473.906 171.146 457.02C174.805 433.793 160.351 416.047 146.601 393.376C139.7 381.996 134.228 372.149 146.9 365.001C152.726 361.965 159.227 360.449 165.8 360.592C184.46 360.234 183.35 360.874 191.275 363.413C191.5 362.962 191.952 362.057 192.515 362.059C196.598 361.271 197 358.09 197.713 355.048C199.668 348.425 203.017 342.297 207.536 337.073C208.814 335.65 210.514 334.673 212.389 334.284C214.263 333.894 216.214 334.113 217.957 334.909C228.097 339.021 452.219 423 461.838 426.368C465.476 427.484 468.81 429.421 471.581 432.027C474.353 434.634 476.487 437.841 477.821 441.401C489.245 469.428 512.837 518.49 524.611 544.951C525.929 547.16 526.459 549.75 526.113 552.296C525.767 554.843 524.567 557.196 522.708 558.971C520.356 561.285 514.714 570.463 501.998 565.865C463.396 551.908 306.452 492.229 253.147 473.062C225.107 462.975 206.445 430.99 199.273 402.407C196.72 393.493 195.224 384.311 194.815 375.051C195.04 373.47 191.973 372.192 191.643 371.207C191.298 367.927 188.808 367.815 186.431 367.476C174.213 364.658 161.434 365.564 149.747 370.077C136.28 376.082 151.278 389.298 166.455 415.973C174.767 430.576 180.902 452.378 173.435 466.615C171.647 469.726 169.056 472.301 165.932 474.072C162.808 475.844 159.265 476.747 155.671 476.687C126.436 475.305 93.1497 436.928 62.9885 424.237C44.2602 416.35 25.69 415.864 8.19757 427.408C1.06432 431.921 -4.56134 438.452 -7.96461 446.17C-8.86868 447.981 -9.09414 449.562 -7.05297 451.143C-2.97143 453.747 -4.04954 457.712 -4.87058 461.552C-6.03528 466.883 -6.03968 466.755 -0.995678 468.572C69.7934 494.147 42.0041 482.745 64.8136 491.515C67.9924 493.035 70.6739 495.425 72.5449 498.408C74.416 501.39 75.3993 504.842 75.3801 508.359C74.497 535.169 74.9715 625.233 70.0194 637.569C69.1672 640.393 67.2572 642.78 64.6864 644.232C62.1157 645.685 59.0819 646.091 56.2157 645.367C45.8785 644.72 35.6336 643.015 25.6417 640.281C25.0848 640.151 -72.3915 614.574 -86.7075 609.083C-90.9901 607.441 -105.626 601.06 -109.936 594.954C-121.821 583.539 -119.897 553.282 -119.077 536.743C-115.484 464.304 -114.249 462.885 -109.354 450.379C-108.289 447.452 -106.167 445.03 -103.404 443.587C-100.642 442.144 -97.438 441.783 -94.42 442.576C-78.884 445.982 -63.596 449.948 -48.2133 453.767C-38.3758 456.203 -31.3734 459.249 -30.1384 458.835ZM-105.856 473.873C-106.306 473.739 -106.782 473.71 -107.245 473.787C-107.708 473.864 -108.147 474.046 -108.529 474.319C-108.911 474.592 -109.225 474.948 -109.448 475.361C-109.671 475.774 -109.796 476.232 -109.814 476.701C-110.697 496.132 -111.935 575.616 -111.478 578.1C-110.631 580.627 61.7615 627.937 62.2571 628.063C62.7833 628.199 63.3332 628.215 63.8661 628.11C64.399 628.005 64.9012 627.781 65.3355 627.456C65.7698 627.131 66.1251 626.712 66.375 626.23C66.6249 625.749 66.7631 625.217 66.7792 624.675C67.0385 605.448 68.7994 533.331 68.8166 527.691C68.7404 527.158 68.5205 526.656 68.1804 526.238C67.8404 525.82 67.3929 525.502 66.8861 525.318C47.7368 519.436 -80.1471 481.334 -105.856 473.873ZM201.148 377.664C201.448 388.809 203.37 399.853 206.854 410.45C218.344 441.955 239.373 461.598 247.567 464.95C255.088 468.013 485.065 553.325 501.86 559.342C504.519 560.513 507.499 560.736 510.302 559.975C513.104 559.214 515.557 557.514 517.252 555.16C518.297 553.975 518.996 552.527 519.274 550.972C519.551 549.417 519.396 547.815 518.825 546.341C503.305 511.378 487.94 475.957 472.709 440.87C472.038 438.958 470.931 437.227 469.475 435.815C468.02 434.402 466.256 433.346 464.323 432.731C447.339 427.166 240.675 350.114 217.051 341.284C208.91 338.238 209.889 341.314 202.362 361.065C201.547 363.204 202.367 364.455 204.384 365.461C206.577 366.515 208.397 368.212 209.599 370.324C210.394 372.959 210.555 375.743 210.071 378.449C210.074 380.713 208.599 381.397 206.561 380.38C204.65 379.704 202.832 378.791 201.148 377.664Z" fill="#3B89A0"/>
<path d="M208.023 325.309C204.189 335.258 203.301 324.642 203.832 322.934C206.722 313.609 249.492 161.021 252.154 153.018C253.507 147.736 256.459 143.002 260.608 139.461C264.757 135.921 269.9 133.746 275.336 133.234C278.352 133.204 281.347 133.74 284.166 134.815C290.534 136.767 489.255 213.817 497.565 217.569C523.486 229.271 519.445 231.463 470.456 422.077C468.085 426.827 465.307 423.447 465.816 421.171C466.445 418.361 466.645 415.394 467.274 412.583C500.603 263.627 509.498 246.888 509.257 240.066C509.438 236.839 508.606 233.634 506.878 230.898C505.15 228.162 502.611 226.032 499.614 224.803C492.585 221.875 281.008 139.399 276.589 139.793C266.27 140.677 262.714 147.524 258.495 153.356C258.609 153.698 212.304 311.065 208.023 325.309Z" fill="#3B89A0"/>
<path d="M460.234 441.23C464.063 443.932 461.997 440.868 497.631 525.652C499.205 528.393 496.68 529.132 495.143 528.366C486.082 524.975 269.321 446.041 259.361 442.749C257.79 442.262 256.384 441.349 255.302 440.111C254.22 438.873 253.504 437.36 253.233 435.741C235.673 360.033 234.185 359.465 235.779 357.867C239.343 355.195 459.776 440.902 460.234 441.23ZM269.472 394.71C266.524 393.804 264.26 393.238 261.88 392.336C259.614 391.774 261.086 393.355 262.45 394.034C271.633 395.819 272.442 402.837 275.963 419.122C272.568 417.992 269.96 416.976 267.24 416.183C264.521 415.958 266.678 416.749 266.788 417.088C268.852 418.417 271.057 419.516 273.361 420.364C274.623 420.663 275.77 421.326 276.657 422.271C277.545 423.216 278.135 424.4 278.353 425.676C279.437 428.903 280.69 432.071 282.108 435.167C282.561 435.961 283.015 436.75 283.126 434.828C282.099 431.214 281.303 427.709 280.048 423.981C280.029 423.903 280.03 423.821 280.052 423.743C280.074 423.665 280.115 423.594 280.172 423.537C280.229 423.48 280.3 423.439 280.378 423.417C280.456 423.395 280.538 423.394 280.617 423.413C284.468 424.77 300.895 430.418 309.166 433.693C310.234 434.417 311.003 435.503 311.33 436.749C314.262 445.483 317.596 458.54 317.586 452.572C316.331 447.145 315.204 441.504 313.708 435.957C314.843 435.955 321.492 438.538 339.887 445.325C348.244 448.438 351.292 448.69 352.353 452.669C353.444 456.82 354.745 460.918 355.773 465.1C356.003 467.471 357.36 467.022 356.791 464.761C356.218 460.238 355.302 455.832 354.617 450.973C364.926 454.697 375.012 458.315 385.321 462.039C388.698 463.722 388.927 473.106 391.915 478.314L392.933 477.974C392.023 473.567 391.329 469.287 390.421 464.865C390.414 463.284 389.854 463.993 418.972 474.01C422.361 475.174 424.636 475.708 425.324 480C425.793 489.273 427.057 491.312 427.484 486.445C427.369 484.974 427.363 481.016 427.361 478.76C427.354 478.61 427.387 478.462 427.456 478.329C427.525 478.196 427.627 478.084 427.754 478.004C427.88 477.923 428.025 477.877 428.175 477.871C428.324 477.864 428.473 477.897 428.606 477.966C432.457 479.323 442.412 482.076 451.034 485.195C458.952 488.058 461.94 487.786 463.162 492.087C464.095 495.36 465.328 498.53 466.466 501.921C467.147 504.516 468.052 504.404 467.708 501.693L465.214 490.848C465.147 490.71 465.126 490.554 465.156 490.403C465.186 490.252 465.264 490.116 465.379 490.013C465.494 489.911 465.639 489.849 465.792 489.837C465.946 489.825 466.099 489.863 466.229 489.945L474.952 491.753C476.99 492.201 476.312 491.3 475.176 490.734C464.097 486.411 463.987 488.744 461.683 479.208C460.672 475.023 455.54 463.158 454.858 461.125C455.801 461.066 456.747 461.065 457.69 461.122C459.502 461.463 459.841 460.785 457.349 460.105C455.932 459.738 454.639 458.998 453.606 457.961C453.268 457.509 451.901 451.747 451.444 449.821C450.648 448.015 450.309 448.693 450.537 449.937L451.123 456.156C451.13 456.305 451.097 456.453 451.029 456.586C450.96 456.719 450.857 456.831 450.731 456.912C450.605 456.992 450.459 457.038 450.31 457.045C450.16 457.051 450.011 457.018 449.878 456.949C439.796 453.333 429.935 449.833 420.193 446.103C417.167 444.594 416.991 441.957 415.082 437.629C414.965 435.593 413.947 435.933 414.405 437.854C414.746 440.002 414.864 442.037 415.209 444.186C415.209 445.317 414.869 445.426 414.418 445.201C409.66 443.96 400.941 439.872 395.362 437.964C381.333 433.17 380.473 433.12 378.356 424.403C377.837 422.501 377.151 420.648 376.307 418.865C376.077 417.625 375.287 418.078 375.289 419.204C376.09 422.711 377 427.119 377.913 430.961C377.931 431.039 377.929 431.12 377.907 431.197C377.885 431.274 377.844 431.344 377.787 431.4C377.731 431.457 377.66 431.498 377.583 431.52C377.506 431.541 377.425 431.543 377.347 431.525C373.835 430.059 359.444 423.743 352.759 421.81C347.322 420.241 346.511 419.542 344.933 413.113C344.652 411.154 344.194 409.223 343.563 407.346C342.991 404.521 342.657 406.331 342.545 407.685C343.004 410.737 343.349 414.017 343.696 417.292C343.692 417.42 343.661 417.545 343.607 417.661C343.553 417.776 343.476 417.879 343.38 417.964C343.285 418.049 343.173 418.113 343.052 418.153C342.93 418.194 342.802 418.209 342.675 418.198C331.457 414.584 320.498 411.141 309.489 407.584C305.461 406.286 307.466 405.523 304.486 396.624L303.468 396.963C303.702 399.904 304.279 402.731 304.845 406.115C295.215 403.293 286.042 400.114 276.52 397.645C275.068 397.383 273.756 396.612 272.821 395.471C271.885 394.33 271.388 392.894 271.419 391.422C269.252 381.591 268.119 381.59 268.461 383.175C268.415 387.043 268.753 390.907 269.472 394.71Z" fill="#D63037"/>
<path d="M243.995 452.642C243.783 452.01 241.544 447.451 246.589 448.57C256.443 452.065 501.78 541.247 512.316 545.086C514.271 546.06 514.439 549.136 510.966 548.363C485.538 539.54 249.274 454.073 243.995 452.642Z" fill="#3B89A0"/>
<path d="M214.018 345.921C241.314 446.354 243.756 445.127 239.853 446.104C237.59 446.668 237.269 444.514 236.906 442.939C232.253 422.623 209.716 346.041 210.172 345.128C210.511 344.449 212.518 340.385 214.018 345.921Z" fill="#3B89A0"/>
<path d="M350.961 446.356C346.659 444.773 343.021 443.559 339.407 442.288C331.227 439.413 323.206 436.187 315.049 433.245C314.141 432.793 312.782 432.115 312.669 431.212C310.957 424.432 309.362 417.426 307.545 409.726C312.645 411.422 334.692 418.907 341.08 420.799C342.258 421.039 343.335 421.633 344.166 422.502C344.997 423.37 345.542 424.471 345.729 425.657C347.048 432.01 349.024 438.895 350.961 446.356Z" fill="#D63037"/>
<path d="M459.402 483.703C459.469 483.841 459.489 483.998 459.459 484.148C459.429 484.299 459.351 484.436 459.236 484.538C459.122 484.64 458.977 484.702 458.823 484.714C458.67 484.727 458.517 484.689 458.387 484.606C455.129 483.434 441.394 479.057 427.683 473.534C423.956 471.676 426.438 473.303 419.39 450.467C419.323 450.328 419.302 450.172 419.332 450.021C419.362 449.871 419.44 449.734 419.555 449.632C419.67 449.53 419.815 449.468 419.968 449.455C420.122 449.443 420.275 449.481 420.405 449.563C451.078 459.926 451.509 459.063 452.013 460.524C454.629 468.323 456.927 476.043 459.402 483.703Z" fill="#D63037"/>
<path d="M382.328 435.691C393.444 439.604 407.573 445.081 413.255 446.879C414.394 447.199 415.426 447.819 416.244 448.673C417.062 449.528 417.635 450.586 417.904 451.737C419.516 458.378 421.437 465.068 423.26 472.198C416.344 469.896 417.445 470.066 390.857 460.558C389.898 460.102 389.077 459.4 388.477 458.525C386.087 451.402 384.045 444.173 381.763 436.824L382.328 435.691Z" fill="#D63037"/>
<path d="M385.753 458.882C377.594 455.944 369.886 452.652 361.616 450.527C358.664 449.935 356 448.357 354.064 446.053C352.128 443.75 351.035 440.857 350.964 437.853C350.129 433.318 349.063 428.828 347.77 424.401C347.742 424.246 347.751 424.087 347.798 423.937C347.845 423.786 347.927 423.65 348.039 423.539C348.15 423.428 348.287 423.345 348.438 423.299C348.589 423.252 348.748 423.243 348.903 423.272C378.004 434.103 373.919 432.392 377.118 433.661C378.477 434.338 378.713 435.576 379.17 436.94C381.868 444.095 384.068 451.426 385.753 458.882Z" fill="#D63037"/>
<path d="M273.887 398.912C282.156 401.621 286.877 402.965 296.771 406.368C302.575 408.364 305.882 407.367 306.29 413.371C306.95 423.103 309.198 424.587 310.056 431.347C296.168 426.241 289.6 424.234 281.28 420.953C277.819 419.227 278.192 417.635 273.209 399.7C273.146 399.602 273.115 399.485 273.123 399.369C273.131 399.252 273.176 399.141 273.253 399.052C273.329 398.964 273.432 398.902 273.547 398.877C273.661 398.852 273.78 398.864 273.887 398.912V398.912Z" fill="#D63037"/>
<path d="M99.8509 313.289L174.949 322.74L198.147 339.335L194.62 357.428L196.153 357.586L193.924 378.742L190.889 376.571L187.102 395.998C185.369 403.572 183.331 423.43 189.039 442.271C196.174 465.822 198.833 486.171 194.464 492.269L161.262 538.616C153.399 549.592 144.168 593.41 135.252 611.013C126.335 628.615 73.128 666.799 65.4438 672.37C59.2964 676.827 -0.34106 679.42 -29.3914 680.159L-149.451 594.272C-145.733 556.144 -139.272 476.607 -143.17 463.489C-147.067 450.37 -92.4226 400.384 -64.6129 377.03L99.8509 313.289Z" fill="white"/>
<path d="M203.307 359.629C200.093 362.741 200.521 373.828 201.137 378.983C203.269 380.303 207.615 383.002 207.94 383.235C208.266 383.468 212.268 379.772 214.228 377.895L211.969 366.441C210.421 362.873 206.521 356.517 203.307 359.629Z" fill="white"/>
<path opacity="0.69" d="M320.924 296.619C320.071 296.316 319.532 295.611 319.307 294.502C319.083 293.393 319.165 292.291 319.554 291.193L319.651 290.919C320.388 289.808 320.929 288.765 321.275 287.79C321.663 286.693 322.101 285.167 322.588 283.213C322.971 281.359 323.378 279.822 323.81 278.603L324.523 276.592C324.778 276.065 325.036 275.435 325.295 274.704C325.532 274.033 325.806 273.067 326.116 271.805L323.642 271.237C322.358 270.988 321.442 270.766 320.893 270.571C319.735 270.161 318.72 269.252 317.846 267.845C318.3 266.565 318.873 265.43 319.567 264.441C319.802 262.809 320.255 261.049 320.924 259.159C321.551 257.392 322.907 254.339 324.993 250.001C326.802 246.252 328.107 243.249 328.906 240.994L334.9 224.08C335.181 223.287 335.567 222.875 336.059 222.844C336.428 222.769 336.826 222.807 337.253 222.958C338.045 223.239 338.61 223.679 338.946 224.279C339.365 224.839 339.456 225.454 339.218 226.124C338.743 227.465 338.261 228.632 337.772 229.625L336.325 233.126L336.034 233.949C335.886 234.171 335.758 234.435 335.65 234.74C335.478 235.227 335.344 235.797 335.25 236.45L335.12 236.816C334.763 238.404 334.282 240.052 333.677 241.759C332.619 244.745 331.034 248.54 328.922 253.143C326.811 257.746 325.226 261.541 324.167 264.528C324.016 264.954 323.829 265.677 323.605 266.695C325.05 267.07 326.212 267.276 327.091 267.313C327.868 265.119 329.544 260.876 332.117 254.584C334.175 249.55 335.787 245.388 336.954 242.097C337.17 241.487 337.586 241.086 338.204 240.893C338.903 240.661 339.528 240.642 340.076 240.836L340.956 243L339.4 247.389C336.592 255.313 334.026 262.361 331.7 268.535C331.761 268.557 331.853 268.589 331.975 268.633C332.179 268.636 332.464 268.703 332.83 268.833C333.278 268.923 333.807 269.076 334.416 269.292C336.245 269.94 336.933 270.904 336.479 272.184C335.96 273.647 334.482 273.946 332.044 273.082C331.008 272.715 330.393 272.806 330.198 273.354C329.291 275.914 328.324 278.933 327.297 282.412C326.292 285.829 325.834 287.896 325.922 288.614C325.628 289.058 325.361 289.615 325.124 290.286C324.843 291.078 324.749 291.731 324.842 292.244L324.258 293.89C323.913 294.865 323.438 295.623 322.835 296.164C322.292 296.726 321.656 296.878 320.924 296.619ZM354.161 306.134C346.786 303.52 349.168 285.086 361.308 250.831L362.345 247.905C363.965 243.334 365.747 239.952 367.691 237.759C368.697 236.469 369.847 235.642 371.143 235.277C372.521 234.874 373.972 234.942 375.495 235.482C384.212 238.571 383.072 255.628 372.077 286.653C366.655 301.952 360.683 308.445 354.161 306.134ZM356.474 302.22C357.45 302.566 358.566 301.932 359.824 300.32C361.81 298.005 364.129 293.784 366.781 287.657C367.378 286.36 367.99 284.827 368.616 283.059C370.064 278.975 371.803 273.486 373.835 266.591C375.677 260.039 376.784 253.914 377.158 248.215C377.416 245.356 377.236 242.96 376.618 241.026C376.061 239.113 375.114 237.817 373.777 237.137C372.603 237.545 371.693 238.08 371.047 238.742C370.461 239.427 369.931 240.439 369.456 241.78C368.268 245.133 367.27 248.141 366.463 250.805L363.406 260.013C363.125 260.805 362.759 262.322 362.307 264.563C361.813 266.927 361.436 268.474 361.177 269.205C360.658 270.668 359.562 274.053 357.887 279.36C356.359 284.444 355.308 289.251 354.731 293.781C354.402 296.065 354.376 297.977 354.654 299.517C354.953 300.995 355.56 301.896 356.474 302.22ZM394.434 322.671C393.581 322.369 393.042 321.663 392.818 320.554C392.593 319.446 392.675 318.343 393.064 317.246L393.161 316.971C393.898 315.86 394.439 314.817 394.785 313.842C395.174 312.745 395.612 311.219 396.098 309.265C396.481 307.411 396.888 305.874 397.32 304.655L398.033 302.644C398.289 302.117 398.546 301.488 398.805 300.756C399.043 300.086 399.317 299.119 399.627 297.857L397.152 297.289C395.868 297.04 394.952 296.818 394.404 296.624C393.246 296.213 392.23 295.304 391.356 293.897C391.81 292.617 392.384 291.482 393.077 290.493C393.313 288.861 393.765 287.101 394.435 285.211C395.061 283.444 396.417 280.391 398.504 276.053C400.313 272.304 401.617 269.301 402.416 267.046L408.411 250.132C408.691 249.339 409.078 248.927 409.569 248.896C409.939 248.821 410.337 248.859 410.763 249.01C411.556 249.291 412.12 249.731 412.457 250.331C412.875 250.891 412.966 251.506 412.729 252.177C412.253 253.518 411.771 254.685 411.282 255.678L409.835 259.178L409.544 260.001C409.396 260.224 409.269 260.487 409.161 260.792C408.988 261.279 408.855 261.85 408.76 262.502L408.631 262.868C408.274 264.457 407.793 266.104 407.188 267.811C406.129 270.798 404.544 274.592 402.433 279.195C400.321 283.798 398.736 287.593 397.678 290.58C397.526 291.007 397.339 291.729 397.115 292.748C398.56 293.123 399.722 293.329 400.601 293.366C401.379 291.171 403.054 286.928 405.627 280.636C407.685 275.603 409.298 271.44 410.464 268.149C410.68 267.539 411.097 267.138 411.714 266.945C412.414 266.713 413.038 266.694 413.586 266.888L414.466 269.052L412.911 273.441C410.103 281.365 407.536 288.414 405.211 294.588C405.272 294.609 405.363 294.642 405.485 294.685C405.689 294.689 405.974 294.755 406.34 294.885C406.788 294.975 407.317 295.128 407.927 295.344C409.755 295.992 410.443 296.956 409.989 298.236C409.471 299.699 407.993 299.999 405.554 299.135C404.518 298.767 403.903 298.858 403.709 299.407C402.801 301.967 401.834 304.986 400.807 308.464C399.802 311.881 399.344 313.948 399.433 314.666C399.138 315.11 398.872 315.668 398.634 316.338C398.353 317.131 398.259 317.783 398.352 318.296L397.769 319.942C397.423 320.917 396.949 321.675 396.345 322.216C395.803 322.779 395.166 322.93 394.434 322.671Z" fill="#D63037"/>
</svg>
