<svg width="527" height="458" viewBox="0 0 527 458" fill="none" xmlns="http://www.w3.org/2000/svg">
<path d="M334.567 227.865L238.248 227.885C221.7 227.889 219.216 248.207 236.951 248.45C254.687 248.693 331.82 249.296 334.572 249.296C336.288 249.295 335.643 227.865 334.567 227.865Z" fill="#D63037"/>
<path d="M425.598 177.217C425.58 172.745 423.885 168.442 420.848 165.159C417.812 161.876 413.655 159.85 409.198 159.482C399.104 158.541 178.823 159.116 167.173 159.532C155.523 159.949 150.056 167.85 149.571 174.899C149.229 179.856 148.839 193.578 150.988 193.578C157.416 193.576 421.833 194.191 424.962 194.238C426.805 194.264 425.599 179.087 425.598 177.217ZM373.05 184.774C362.531 184.776 361.566 168.361 372.462 168.359C373.587 168.237 374.724 168.348 375.804 168.686C376.884 169.023 377.883 169.579 378.738 170.32C379.593 171.06 380.287 171.969 380.775 172.989C381.264 174.01 381.537 175.12 381.577 176.25C381.618 177.381 381.425 178.508 381.01 179.56C380.596 180.613 379.969 181.569 379.169 182.369C378.369 183.169 377.413 183.795 376.36 184.209C375.307 184.623 374.18 184.815 373.05 184.774ZM400.985 184.768C399.861 184.89 398.723 184.78 397.644 184.443C396.564 184.107 395.565 183.552 394.71 182.812C393.854 182.073 393.16 181.165 392.671 180.145C392.181 179.126 391.907 178.016 391.866 176.886C391.824 175.756 392.015 174.629 392.428 173.577C392.841 172.524 393.466 171.567 394.265 170.767C395.063 169.966 396.019 169.339 397.07 168.923C398.122 168.508 399.248 168.314 400.379 168.353C411.213 168.343 412.162 184.766 400.985 184.768Z" fill="#D63037"/>
<path d="M424.749 254.669C426.492 236.495 426.639 218.204 425.189 200.004C425.005 197.685 421.422 198.122 421.608 200.441C422.828 215.517 423.212 246.695 420.208 262.065C417.205 277.434 406.186 275.471 394.029 275.617L185.332 278.109C148.036 278.553 152.769 276.257 152.31 200.722C152.309 199.062 149.486 199.026 149.388 200.723C148.803 211.035 148.366 253.218 150.06 263.755C153.48 285.003 174.766 281.732 192.079 281.542L387.753 279.257C410.203 279.005 422.085 282.456 424.749 254.669Z" fill="#3B89A0"/>
<path d="M340.996 228.127C340.815 228.135 340.638 228.178 340.474 228.254C340.31 228.33 340.162 228.438 340.04 228.571C339.792 228.839 339.662 229.195 339.677 229.56C339.693 229.925 339.852 230.269 340.121 230.516C340.39 230.764 340.746 230.894 341.111 230.879C359.412 231.855 377.941 230.672 396.113 231.715C402.578 232.088 405.641 234.863 405.942 237.801C406.804 246.513 391.937 245.522 386.819 245.656L341.77 245.666C339.488 245.666 339.646 249.409 341.922 249.384C357.527 249.254 373.122 249.051 388.706 248.979C396.143 248.943 409.902 248.709 409.172 237.819C408.58 228.96 398.107 228.455 391.527 228.398C375.564 228.261 356.189 227.51 340.996 228.127Z" fill="#3B89A0"/>
<path d="M191.913 213.419C191.499 212.192 189.724 212.551 189.313 213.549C188.495 215.544 188.299 231.155 188.204 234.058C185.813 232.173 183.446 230.301 181.031 228.519C180.577 228.182 176.731 228.182 181.221 232.609C183.846 235.205 186.769 237.482 189.929 239.392C191.494 239.787 197.631 232.803 199.014 231.511C202.368 228.379 199.545 227.213 198.522 227.421C196.105 229.044 193.885 230.942 191.907 233.077C191.906 229.478 192.846 216.112 191.903 213.323L191.913 213.419Z" fill="#3B89A0"/>
<path d="M170.679 250.591C168.554 250.504 168.633 243.686 168.51 241.978C168.103 236.323 171.543 239.114 171.543 239.114C172.523 240.176 172.45 246.237 172.413 247.539C184.421 246.642 196.482 246.753 208.471 247.871C208.149 244.1 207.075 238.973 209.75 238.784C212.424 238.595 211.921 242.364 211.958 245.456C211.993 248.245 212.637 251.709 210.772 251.677C197.22 251.449 184.061 251.141 170.679 250.591Z" fill="#3B89A0"/>
<path d="M260.637 109.526C259.864 108.413 253.772 100.496 252.021 100.669C247.155 101.114 224.635 108.309 226.973 111.682C230.461 125.666 236.647 150.906 237.782 153.995C238.252 155.278 240.215 154.616 240.023 153.318C238.67 144.133 232.686 122.462 229.685 111.455C236.842 108.084 244.344 105.499 252.059 103.748C254.301 106.236 256.509 108.685 258.733 111.287C262.202 113.868 326.197 94.3081 332.656 92.5723C344.883 131.719 345.081 139.404 350.122 149.985C350.76 151.313 352.497 150.285 352.327 149.06C347.704 133.265 341.369 104.237 334.635 90.3619C333.37 87.7272 260.637 109.863 260.637 109.526Z" fill="#3B89A0"/>
<path d="M280.848 43.8683C287.53 49.777 310.512 78.3184 315.087 86.217C315.799 87.444 313.845 88.4006 313.071 87.4047C303.671 75.3209 298.532 66.4476 280.19 46.3015C254.558 63.875 231.491 86.5743 227.796 85.255C224.101 83.9356 219.238 83.0707 215.75 81.9771C210.117 86.6262 204.896 91.7543 200.148 97.3039C202.693 99.9596 222.298 122.456 224.166 125.744C224.931 127.085 223.12 128.735 222.131 127.498C206.535 107.941 195.861 98.7498 197.374 96.2128C199.764 92.2094 210.246 81.9038 214.105 80.1871C214.652 77.6796 226.037 82.0706 227.865 82.8219C227.87 82.5563 278.298 41.6243 280.848 43.8683Z" fill="#3B89A0"/>
<path d="M177.923 97.4971C178.262 94.5752 182.497 74.4058 184.383 73.6723L195.052 70.4455C196.935 65.3372 214.116 19.647 215.774 19.9734C222.465 21.2496 264.386 38.3176 267.991 41.0368C269.067 41.8334 268.329 43.6451 267.07 43.1859C250.996 37.3456 232.233 27.9625 216.624 22.8578C216.115 25.554 197.635 72.0945 197.244 72.4903C195.359 74.3766 188.572 75.1138 185.69 75.8687C185.503 79.1279 181.733 92.2689 180.661 96.3013L189.709 98.6183C191.085 99.2395 190.897 101.596 189.202 101.407C190.299 101.407 177.719 99.2582 177.923 97.4971Z" fill="#3B89A0"/>
<path d="M122.504 84.9183C120.618 85.5403 114.651 92.7796 114.965 94.5699C116.238 102.075 118.397 109.402 121.398 116.397C122.283 118.421 163.523 105.381 168.367 104.023C168.551 103.989 168.726 103.92 168.882 103.819C169.039 103.718 169.174 103.588 169.28 103.434C169.386 103.281 169.461 103.109 169.5 102.927C169.539 102.744 169.543 102.556 169.509 102.373C169.476 102.19 169.407 102.015 169.306 101.858C169.205 101.702 169.074 101.567 168.921 101.46C168.768 101.354 168.595 101.28 168.413 101.24C168.231 101.201 168.043 101.198 167.859 101.231C152.808 104.404 137.986 108.578 123.49 113.725C121.162 107.523 119.215 101.184 117.661 94.7446C118.885 93.1798 125.389 86.2432 125.2 84.9788C121.425 67.3929 117.445 49.1669 113.576 31.658C130.541 28.7513 148.219 24.4791 165.317 21.1659C166.24 29.6868 172.541 54.6033 176.635 71.6314C176.858 72.5557 178.51 71.9152 178.52 71.0094C178.594 65.3544 168.787 27.2373 166.785 19.2531C166.038 16.273 115.897 28.0292 111.711 29.3847C108.226 30.5249 120.843 78.3924 122.448 84.9688L122.504 84.9183Z" fill="#3B89A0"/>
<path d="M108.623 134.645C91.9977 122.645 63.8432 102.977 45.6756 94.3585C41.914 92.5743 21.3875 133.776 20.6532 140.884C20.6541 144.916 55.3797 163.189 63.0515 166.226C63.1851 170.187 63.2975 174.144 63.4311 178.102C64.2284 179.988 71.8365 183.761 74.0254 184.339C83.219 186.771 86.7121 187.673 87.5721 185.109C96.7382 157.326 109.093 134.985 108.623 134.645ZM85.2796 183.885C78.5437 182.838 72.0467 180.606 66.0898 177.291C66.3152 175.594 66.3688 164.717 64.3711 163.681C49.8188 156.141 37.3944 149.306 23.1792 140.714C30.4905 121.713 36.3697 113.87 45.9021 97.583C66.5088 110.095 85.8695 121.287 105.674 135.663C100.728 144.456 87.6709 174.474 85.2796 183.885Z" fill="#3B89A0"/>
<path d="M80.8737 213.272C57.5202 212.536 32.2994 211.768 8.925 212.325C4.19433 212.438 12.154 259.103 13.762 263.913C14.4664 266.022 51.1775 265.188 58.7926 264.036C59.8502 266.895 61.5671 269.465 63.8038 271.536C65.1613 272.575 87.1015 272.594 87.5525 269.741C82.6556 236.832 83.7584 213.361 80.8737 213.272ZM65.6918 269.055C64.7699 267.81 60.4894 261.178 59.3392 261.12C44.863 261.556 30.5567 261.691 16.0991 261.939C12.9115 246.405 10.8857 230.654 10.0385 214.819L79.0999 215.867C80.4315 232.832 81.9918 251.04 84.3328 267.776L65.6918 269.055Z" fill="#3B89A0"/>
<path d="M124.855 328.279C112.634 314.097 94.4869 289.699 92.973 290.382C72.3189 299.461 52.2517 309.82 32.8882 321.4C27.8421 324.479 52.9953 358.144 58.2476 362.863C61.6349 365.904 90.9868 344.704 96.187 341.499C99.0286 343.937 102.349 345.753 105.934 346.831C107.581 347.306 126.742 330.47 124.855 328.279ZM106.318 343.628C100.134 341.554 96.5581 337.658 95.0071 338.652C83.3506 346.126 72.5228 353.492 58.9538 361.091C49.616 349.157 41.5322 336.292 34.8302 322.701C54.1464 311.387 73.1843 303.239 92.9153 293.829C97.0469 299.805 116.296 324.304 121.989 328.959C116.75 334.106 111.794 338.707 106.318 343.628Z" fill="#3B89A0"/>
<path d="M206.52 378.74C201.836 375.19 166.142 361.085 156.962 359.166C154.284 358.606 120.823 416.638 122.8 418.21C136.696 428.474 152.404 436.023 169.099 440.462C172.871 441.426 190.075 402.851 192.348 397.932C194.725 397.931 197.66 397.346 200.051 397.327C202.547 396.761 208.515 380.254 206.52 378.74ZM199.352 394.944C197.28 395.078 190.459 394.628 189.835 395.964C183.362 409.793 176.459 423.458 169.701 437.155C150.841 431.504 142.178 427.094 125.495 417.014C125.495 417.014 148.104 374.617 157.528 361.968C167.29 365.303 195.831 377.04 204.427 380.334C202.712 385.206 201 390.051 199.36 394.934L199.352 394.944Z" fill="#3B89A0"/>
<path d="M323.464 406.858C322.767 401.732 322.086 394.475 321.389 389.368C320.124 386.258 299.956 389.664 273.097 389.659C269.968 389.66 274.788 448.696 275.108 454.917C279.295 459.166 318.821 457.075 318.78 451.946L315.319 413.477C318.828 411.139 322.222 409.27 323.464 406.858ZM312.78 413.119C313.749 425.868 314.72 438.61 315.691 451.343C303.052 453.563 290.205 454.362 277.389 453.726C277.045 433.653 274.477 413.278 275.15 392.259C289.648 392.145 303.914 391.82 318.845 390.781C319.127 392.686 320.997 406.049 320.317 406.766C320.317 407.374 315.024 409.458 312.78 413.119Z" fill="#3B89A0"/>
<path d="M416.479 365.121C418.362 361.71 419.315 360.182 419.211 358.806C419.086 357.149 409.178 343.275 407.654 344.125C400.868 347.896 384.642 363.677 380.566 369.293C380.415 372.837 403.721 413.227 406.473 414.148C407.802 419.089 431.873 394.182 431.766 392.713C431.617 390.883 418.119 368.01 416.479 365.121ZM407.893 411.718C398.7 398.291 390.506 384.206 383.378 369.577C391.842 361.487 398.795 355.097 407.71 347.632L416.082 359.296L413.839 364.609C413.273 365.966 427.04 387.866 429.208 392.448C422.97 399.771 415.805 406.251 407.893 411.723L407.893 411.718Z" fill="#3B89A0"/>
<path d="M495.877 307.26C493.581 304.844 477.234 296.937 474.219 295.862C474.444 294.656 475.197 288.955 474.517 288.323C470.464 286.001 466.243 283.985 461.888 282.294C459.702 282.294 445.638 311.805 446.815 312.795C451.066 316.37 479.425 334.928 484.724 336.959C486.446 337.607 497.181 308.633 495.877 307.26ZM484.179 333.086C481.275 331.204 452.149 312.454 449.586 311.578C449.851 311.334 460.891 288.355 462.643 285.189C465.588 287.165 468.751 288.795 472.068 290.048C471.71 292.318 471.666 294.627 471.937 296.909C471.937 297.682 489.6 306.706 493.014 308.007C490.056 316.33 487.097 324.793 484.179 333.086Z" fill="#3B89A0"/>
<path d="M509.375 229.978C509.375 228.092 495.541 224.326 493.437 223.572C493.434 221.886 493.186 220.209 492.7 218.594C491.964 217.107 480.656 212.942 479.713 213.508C477.508 214.677 472.775 238.873 474.818 239.994C478.295 241.897 502.105 252.092 505.467 251.295C507.369 250.848 509.697 230.562 509.375 229.978ZM504.178 248.092C494.998 244.927 485.873 241.253 476.77 238.182L480.893 216.355L490.318 219.971C490.488 221.158 490.77 225.23 491.846 225.625L506.531 230.996C505.661 236.202 504.178 247.13 504.178 248.092Z" fill="#3B89A0"/>
<path d="M506.119 151.905C505.407 151.201 490.211 151.643 486.646 151.532L481.84 147.047C480.124 147.047 471.417 146.634 470.623 147.67C469.829 148.707 475.587 170.303 476.867 172.061C477.518 172.953 508.516 172.939 509.045 172.054C508.767 165.255 507.787 158.503 506.119 151.905ZM478.583 169.665C476.772 162.936 474.986 156.239 473.226 149.574C475.582 149.574 478.882 149.932 481.142 149.721C482.419 151.296 483.896 152.697 485.536 153.888C491.673 154.391 497.835 154.534 503.989 154.317C504.598 159.656 505.595 164.943 506.97 170.137C497.734 170.115 487.837 169.663 478.583 169.665Z" fill="#3B89A0"/>
<path d="M466.988 64.1123C465.957 63.0899 450.138 69.6195 448.13 70.3371C446.602 69.0672 444.924 67.9907 443.133 67.1321C442.07 67.1323 430.519 71.6237 431.635 73.6767C434.558 79.0336 442.817 92.034 447.758 96.0465C449.352 97.3477 474.517 86.6141 476.294 84.9775C478.373 83.0673 468.776 65.8863 466.988 64.1123ZM448.916 93.6902C443.674 87.2075 439.486 80.4988 434.528 73.7319L442.727 70.131C443.614 70.678 447.14 73.2193 447.95 73.0119C454.08 71.4418 460.055 69.3147 465.798 66.6572C468.325 72.1604 471.455 77.6633 473.906 83.1665C470.163 85.0478 448.916 93.4246 448.916 93.6902Z" fill="#3B89A0"/>
<path d="M0.104553 127.148C-0.386568 128.476 1.57659 129.56 2.16067 128.183C16.1254 95.2703 32.7302 73.5975 57.6748 49.1075C58.5591 48.2387 57.2599 46.6373 56.2587 47.429C56.2584 46.008 18.037 78.3658 0.104553 127.148Z" fill="#D63037"/>
<path d="M218.423 149.55C213.141 144.013 204.77 135.868 198.195 132.175C196.965 131.487 195.948 133.291 196.894 134.194C203.27 140.265 210.11 145.01 216.651 151.607C217.881 152.847 219.61 150.807 218.423 149.55Z" fill="#D63037"/>
<path d="M275.658 22.6836C265.14 10.9985 241.535 1.97233 228.532 0.0758557C228.195 0.0259086 227.852 0.112058 227.578 0.315353C227.304 0.518649 227.122 0.822438 227.072 1.15989C227.022 1.49734 227.108 1.84081 227.311 2.11474C227.515 2.38867 227.818 2.57062 228.156 2.62057C251.717 6.43794 260.795 14.75 274.171 24.4742C275.234 25.2443 276.32 23.4378 275.584 22.5906L275.658 22.6836Z" fill="#D63037"/>
<path d="M108.41 107.86C105.111 107.749 100.395 114.898 99.2876 117.286C98.6928 118.572 100.853 119.586 101.551 118.362C104.259 113.609 109.088 110.482 109.502 109.48C109.562 109.303 109.58 109.114 109.555 108.928C109.529 108.742 109.461 108.565 109.355 108.41C109.249 108.255 109.108 108.127 108.944 108.037C108.78 107.946 108.597 107.894 108.41 107.887L108.41 107.86Z" fill="#D63037"/>
<path d="M96.9367 52.6162C83.0163 56.0855 68.2775 71.2289 61.3501 83.5179C60.5216 84.9869 62.8991 85.9878 63.7409 84.5533C71.592 71.2148 83.5394 60.7673 97.8058 54.7649C98.8788 54.3132 98.0868 52.3291 96.9367 52.6162Z" fill="#D63037"/>
<path d="M88.066 81.5521C89.1789 81.2305 89.9522 82.8798 89.1288 83.4352C83.0486 87.1385 78.199 92.5567 75.1897 99.0087C74.4675 100.512 72.2679 99.1767 72.9476 97.6811C75.337 92.3204 81.9358 83.3171 88.0235 81.5256L88.066 81.5521Z" fill="#D63037"/>
<path d="M47.8453 168.001C42.2102 174.484 39.1902 187.946 39.1442 196.297C39.1445 197.729 41.559 197.89 41.6702 196.448C42.6584 183.743 45.8628 175.973 50.2203 169.605C51.1205 168.285 48.9367 166.742 47.8453 168.001Z" fill="#D63037"/>
<path d="M30.8006 169.758C26.204 176.168 24.1145 193.245 24.1347 201.145C24.1854 201.456 24.3452 201.739 24.5854 201.943C24.8256 202.147 25.1305 202.259 25.4458 202.259C25.761 202.259 26.0659 202.147 26.306 201.943C26.5462 201.739 26.7058 201.456 26.7564 201.144C27.0591 190.711 29.2156 180.415 33.1249 170.738C33.6559 169.409 31.6928 168.477 30.8059 169.702L30.8006 169.758Z" fill="#D63037"/>
<path d="M70.6971 401.596C44.6438 383.072 31.2736 362.736 18.773 334.405C18.6672 334.127 18.4556 333.903 18.1846 333.782C17.9136 333.66 17.6054 333.651 17.3279 333.757C17.0503 333.863 16.8261 334.074 16.7047 334.345C16.5832 334.616 16.5743 334.925 16.68 335.202C24.678 361.587 46.4776 387.656 69.1887 403.424C70.4347 404.289 71.9589 402.48 70.697 401.54L70.6971 401.596Z" fill="#D63037"/>
<path d="M502.314 261.702C502.277 261.441 502.147 261.202 501.948 261.029C501.749 260.856 501.494 260.76 501.23 260.76C500.966 260.76 500.711 260.856 500.512 261.029C500.313 261.202 500.183 261.441 500.147 261.703C499.173 268.609 499.408 272.134 495.815 278.536C495.146 279.729 497.245 280.926 497.941 279.741C500.628 275.039 503.58 267.147 502.314 261.702Z" fill="#D63037"/>
<path d="M488.084 259.217C486.332 262.327 481.979 278.767 480.963 282.383C480.535 283.892 482.844 284.266 483.3 282.836C484.442 279.25 489.913 263.445 490.175 259.912C490.228 259.647 490.182 259.371 490.046 259.138C489.91 258.904 489.693 258.728 489.436 258.642C489.18 258.557 488.901 258.568 488.652 258.674C488.403 258.78 488.201 258.973 488.084 259.217Z" fill="#D63037"/>
<path d="M428.371 365.859C428.189 366.069 428.084 366.335 428.075 366.613C428.066 366.891 428.153 367.164 428.322 367.385C428.49 367.606 428.73 367.763 429 367.828C429.271 367.893 429.555 367.863 429.806 367.742C436.345 363.255 448.067 351.775 450.421 343.832C450.78 342.626 449.159 341.421 448.535 342.645C447.608 343.023 443.339 354.82 428.371 365.859Z" fill="#D63037"/>
<path d="M440.184 332.134C438.921 337.181 430.093 345.133 426.11 347.84C424.864 348.685 423.785 346.778 424.922 345.955C434.053 339.41 435.544 333.869 438.282 331.135C438.439 330.501 440.45 330.67 440.184 332.134Z" fill="#D63037"/>
<path d="M358.85 427.819C358.541 427.919 358.284 428.135 358.132 428.421C357.98 428.708 357.946 429.043 358.037 429.354C358.128 429.666 358.337 429.929 358.62 430.089C358.902 430.249 359.236 430.292 359.549 430.209C365.377 428.492 381.921 422.308 386.481 417.669C387.277 416.872 386.329 415.239 385.311 415.786C384.637 415.441 371.501 423.976 358.85 427.819Z" fill="#D63037"/>
<path d="M349.309 413.677C340.927 417.044 338.229 420.389 327.766 420.056C327.474 420.077 327.2 420.203 326.994 420.411C326.788 420.618 326.664 420.894 326.646 421.186C326.627 421.478 326.715 421.766 326.893 421.998C327.072 422.23 327.328 422.389 327.615 422.447C333.841 422.896 340.074 421.657 345.655 418.86C353.729 414.784 350.48 413.212 349.309 413.677Z" fill="#D63037"/>
<path d="M368.154 384.702C357.059 389.168 345.274 391.677 333.322 392.117C331.909 392.152 332.077 394.322 333.492 394.303C342.789 394.174 360.851 391.585 369.134 386.755C370.287 386.083 369.245 384.417 368.154 384.872L368.154 384.702Z" fill="#D63037"/>
<path d="M257.699 402.97C245.629 402.277 241.324 403.699 228.709 399.377C227.277 398.886 226.675 401.109 228.088 401.638C236.535 404.797 249.073 407.288 257.947 405.026C258.173 404.945 258.365 404.789 258.491 404.584C258.617 404.38 258.67 404.138 258.641 403.9C258.612 403.661 258.504 403.439 258.333 403.271C258.161 403.102 257.938 402.996 257.699 402.97Z" fill="#D63037"/>
<path d="M251.919 427.116C235.103 426.28 225.389 426.646 208.903 420.246C207.49 419.699 206.377 421.789 207.809 422.371C220.204 427.452 239 431.749 252.315 429.3C253.67 429.055 253.088 427.174 251.919 427.116Z" fill="#D63037"/>
<path d="M103.83 388.055C92.5803 382.894 85.6045 380.285 78.003 369.733C77.0411 368.405 75.0413 369.906 75.9686 371.242C81.7821 379.637 92.7808 389.072 103.246 390.199C103.508 390.219 103.769 390.147 103.984 389.995C104.198 389.843 104.353 389.622 104.423 389.368C104.492 389.115 104.47 388.845 104.362 388.605C104.254 388.366 104.066 388.172 103.83 388.055Z" fill="#D63037"/>
<path d="M127.617 374.459C127.787 374.459 131.071 379.152 119.398 374.102C112.156 370.957 105.466 366.67 99.583 361.404C98.3981 360.342 100.228 358.719 101.469 359.744C111.064 367.665 117.408 369.165 127.71 374.459L127.617 374.459Z" fill="#D63037"/>
<path d="M140.429 357.831C136.415 354.78 132.249 351.872 128.156 348.919C126.875 347.995 125.635 350.121 126.913 351.045C130.962 353.929 134.925 356.905 138.998 359.693C140.06 360.429 141.524 358.676 140.429 357.807L140.429 357.831Z" fill="#D63037"/>
<path d="M37.9915 299.251C33.7231 292.386 31.9818 284.247 33.0674 276.236C33.2238 274.996 31.3645 274.784 30.9424 275.937C28.2107 283.292 31.7722 294.134 35.8481 300.439C36.6931 301.756 38.8417 300.603 37.9915 299.251Z" fill="#D63037"/>
<path d="M61.4577 295.005C58.1594 289.86 55.6721 284.239 54.0833 278.338C53.7537 277.098 52.1974 278.339 52.0861 279.415C51.9539 282.467 57.7363 294.501 59.2905 296.147C60.3771 297.31 62.3797 296.155 61.4577 295.005Z" fill="#D63037"/>
<path d="M522.86 178.251C524.002 199.539 521.819 220.875 516.39 241.491C516.318 241.778 516.362 242.082 516.511 242.337C516.661 242.593 516.904 242.78 517.189 242.858C517.474 242.937 517.779 242.901 518.038 242.758C518.297 242.615 518.49 242.377 518.576 242.094C523.457 224.604 527.784 196.365 525.179 178.006C525.179 176.71 522.788 176.87 522.86 178.251Z" fill="#D63037"/>
<path d="M434.333 30.3215C433.244 29.2593 431.324 30.7126 432.45 31.8492C440.602 40.2155 447.938 49.3404 454.356 59.1C455.066 60.1623 456.882 59.0994 456.356 57.9122C457.012 57.9121 449.222 45.0205 434.333 30.3215Z" fill="#D63037"/>
<path d="M435.893 53.279C436.637 54.3413 435.062 55.3536 434.196 54.6074C428.532 49.6628 414.163 32.6847 408.424 26.0772C407.54 25.0574 408.984 23.5537 409.93 24.5682C416.017 31.0746 431.461 46.905 435.893 53.279Z" fill="#D63037"/>
<path d="M482.226 102.582C482.139 102.458 482.028 102.352 481.9 102.271C481.772 102.19 481.63 102.135 481.48 102.109C481.331 102.084 481.178 102.087 481.031 102.121C480.883 102.154 480.743 102.216 480.619 102.303C480.495 102.39 480.39 102.501 480.309 102.629C480.228 102.757 480.173 102.9 480.147 103.049C480.121 103.198 480.125 103.351 480.158 103.499C480.191 103.646 480.253 103.786 480.341 103.91C488.753 116.924 490.463 125.346 493.015 135.8C493.331 137.102 495.14 136.573 495.182 135.348C495.61 125.635 483.079 102.581 482.226 102.582Z" fill="#D63037"/>
<path d="M470.351 102.884C469.804 101.453 467.48 102.088 468.014 103.565C469.021 106.359 473.888 120.874 475.455 123.052C476.037 123.864 477.615 123.657 477.493 122.467C477.091 118.7 471.933 107.014 470.351 102.884Z" fill="#D63037"/>
<path d="M505.165 188.996C504.995 187.905 502.971 187.403 503.072 188.697C503.377 198.361 502.685 208.031 501.006 217.554C500.741 219.081 503.041 219.062 503.381 217.553C505.185 208.136 505.785 198.528 505.165 188.959L505.165 188.996Z" fill="#D63037"/>
<path d="M202.544 22.2286C197.191 18.5934 184.715 19.9055 178.773 22.0822C177.116 22.6881 177.698 25.3761 179.398 24.7781C191.35 20.5629 197.322 24.3414 201.904 24.4148C202.16 24.4144 202.41 24.3309 202.615 24.177C202.82 24.0231 202.969 23.807 203.041 23.5609C203.113 23.3149 203.104 23.0522 203.014 22.812C202.924 22.5719 202.759 22.3672 202.544 22.2286Z" fill="#D63037"/>
<path d="M368.131 99.418C367.927 97.9677 365.945 98.5153 365.794 99.7212C364.092 113.295 364.711 127.516 362.692 141.849C362.493 143.265 364.95 143.62 365.181 142.207C367.028 130.891 369.682 110.401 368.131 99.418Z" fill="#D63037"/>
<path d="M287.493 5.96283C286.309 4.90059 284.572 6.55046 285.704 7.71629C310.061 32.7592 317.677 52.1054 325.295 74.0759C325.8 75.5287 328.623 74.8136 328.216 73.3209C320.611 45.3341 302.884 19.6895 287.493 5.96283Z" fill="#D63037"/>
</svg>
