<svg width="175" height="23" viewBox="0 0 175 23" fill="none" xmlns="http://www.w3.org/2000/svg">
<path fill-rule="evenodd" clip-rule="evenodd" d="M27.3597 4.19544C73.7267 0.18489 120.814 -1.78684 167.125 2.11125C168.149 2.19743 170.184 2.41189 171.711 2.62461C172.465 2.72965 173.125 2.83812 173.471 2.93541C173.553 2.95842 173.653 2.99002 173.737 3.03612L173.739 3.03735C173.768 3.0526 173.878 3.1125 173.973 3.2508C174.028 3.33132 174.131 3.51635 174.137 3.79841C174.142 4.09774 174.035 4.30347 173.961 4.40434C173.848 4.55811 173.717 4.60884 173.688 4.62004L173.685 4.62116C173.633 4.64167 173.58 4.65457 173.536 4.66356C173.445 4.68197 173.33 4.69516 173.197 4.70526C167.246 5.15673 161.271 5.06322 155.317 4.97005C152.511 4.92614 149.709 4.8823 146.917 4.89562C107.077 5.0858 67.2375 5.43282 27.3971 5.78237C24.2295 6.05642 21.0651 6.33999 17.9044 6.63188C23.8539 6.61118 29.805 6.57703 35.757 6.54287C58.5328 6.41215 81.3222 6.28136 104.089 6.90417C106.902 6.98112 109.717 7.09536 112.53 7.28339C112.897 7.30794 113.401 7.31115 113.972 7.31478C114.088 7.31552 114.206 7.31627 114.327 7.31722C115.032 7.32279 115.802 7.33531 116.472 7.39539C116.808 7.42544 117.127 7.46811 117.407 7.5304C117.678 7.59074 117.948 7.67702 118.165 7.81549C118.34 7.92718 118.718 8.22874 118.73 8.87175C118.735 9.16914 118.652 9.41267 118.567 9.58459C118.481 9.75597 118.37 9.90247 118.255 10.0288C116.87 11.5508 115.205 12.198 113.536 12.5599C112.7 12.7412 111.847 12.8538 111.018 12.9619L110.97 12.9682C110.152 13.0749 109.358 13.1785 108.595 13.3399C102.933 14.5376 98.4096 15.2141 93.4709 15.7172C95.0273 15.7157 96.5946 15.7142 98.1618 15.7127C104.128 15.7071 110.094 15.7014 115.463 15.6972C123.517 15.6908 130.23 15.6876 133.586 15.6924C134.425 15.6936 135.055 15.6953 135.444 15.6976C135.638 15.6987 135.774 15.7 135.847 15.7015C135.865 15.7018 135.882 15.7023 135.895 15.7028C135.901 15.7031 135.91 15.7035 135.919 15.7041C135.924 15.7045 135.935 15.7056 135.942 15.7064C135.954 15.7082 136.001 15.7183 136.035 15.7293C136.317 15.978 136.357 16.9414 136.045 17.2619C136.008 17.2747 135.958 17.2862 135.944 17.2881C135.927 17.2903 135.913 17.2912 135.908 17.2914L135.908 17.2915C135.894 17.2922 135.878 17.2928 135.862 17.2932C135.604 17.3003 134.255 17.3099 131.574 17.3226C130.822 17.3262 130.07 17.3296 129.318 17.3331C101.516 17.4611 73.6903 17.5891 46.1517 22.9925C45.8465 23.0523 45.5649 22.7489 45.5229 22.3147C45.4807 21.8805 45.6941 21.48 45.9993 21.4201C56.1834 19.4219 66.4053 18.1432 76.6455 17.3186C72.9963 17.3211 69.7503 17.3226 67.1392 17.3226H50.5301C50.53 17.3226 50.53 16.529 50.5301 15.7354H51.5742C62.6434 15.7354 73.7175 15.6413 84.7605 14.8532C93.7626 14.2108 99.748 13.6068 108.431 11.7699C109.225 11.6019 110.046 11.4948 110.854 11.3894L110.916 11.3814C111.75 11.2726 112.57 11.1638 113.368 10.9908C114.822 10.6755 116.148 10.1562 117.251 9.1024C117.246 9.1011 117.24 9.0998 117.234 9.09851C117.001 9.04667 116.719 9.0079 116.402 8.97947C115.768 8.9226 115.027 8.91 114.321 8.90442C114.205 8.90351 114.09 8.90279 113.976 8.90208C113.406 8.89851 112.871 8.89516 112.478 8.86886C109.678 8.68173 106.874 8.56787 104.068 8.4911C81.3143 7.86866 58.5457 7.99934 35.7755 8.13004C26.2897 8.18448 16.8036 8.23893 7.31826 8.23893C6.63252 8.23893 5.49164 8.26292 4.34561 8.28702C3.76969 8.29914 3.19248 8.31128 2.67106 8.32041C1.89846 8.33395 1.2413 8.34103 0.906036 8.33047C0.824445 8.3279 0.747085 8.32393 0.688945 8.31645C0.688324 8.31637 0.68756 8.31627 0.686661 8.31616C0.669328 8.31401 0.60166 8.30564 0.532598 8.27458C0.511986 8.26531 0.461237 8.24123 0.404036 8.19105C0.367453 8.15896 0.198051 8.00646 0.149298 7.67612C0.0906859 7.27897 0.25224 7.01295 0.318499 6.92629C0.386467 6.83738 0.45355 6.7945 0.475581 6.78078C0.553067 6.73251 0.632074 6.71557 0.647283 6.71231C0.648144 6.71213 0.6488 6.71198 0.649241 6.71188C0.68221 6.70439 0.71925 6.69792 0.757033 6.69212C0.833748 6.68034 0.937715 6.66768 1.0688 6.65387C3.4333 6.40472 5.80143 6.17438 8.16883 5.95062C7.50212 5.95642 6.83541 5.96221 6.1687 5.96799C5.86059 5.97066 5.6093 5.61752 5.60742 5.17923C5.60554 4.74094 5.85379 4.38347 6.1619 4.3808C12.588 4.32506 19.0142 4.26867 25.4404 4.21228C26.0802 4.20667 26.7199 4.20105 27.3597 4.19544ZM50.1682 3.99667C82.4161 3.71905 114.665 3.46235 146.913 3.30841C149.74 3.29491 152.56 3.33913 155.375 3.38327C158.293 3.42903 161.206 3.4747 164.116 3.45596C126.37 0.4823 88.1194 1.35344 50.1682 3.99667ZM117.746 9.29204C117.745 9.29217 117.741 9.28856 117.733 9.28082C117.743 9.28803 117.747 9.29191 117.746 9.29204ZM0.789555 6.73569C0.779116 6.73434 0.780987 6.73393 0.791032 6.73587C0.790518 6.73581 0.790026 6.73575 0.789555 6.73569ZM0.827991 8.27864C0.815321 8.28244 0.812561 8.28212 0.825399 8.2792C0.826117 8.27904 0.826979 8.27885 0.827991 8.27864Z" fill="#D63037"/>
</svg>
